<svg xmlns="http://www.w3.org/2000/svg" xmlns:xlink="http://www.w3.org/1999/xlink" width="107" zoomAndPan="magnify" viewBox="0 0 80.25 51.749998" height="69" preserveAspectRatio="xMidYMid meet" version="1.0"><defs><g><g id="id1"/></g><clipPath id="id2"><path d="M 14.542969 0.222656 L 65 0.222656 L 65 51.386719 L 14.542969 51.386719 Z M 14.542969 0.222656 " clip-rule="nonzero"/></clipPath></defs><path fill="rgb(93.728638%, 17.248535%, 37.249756%)" d="M 55.558594 7.953125 L 55.589844 7.964844 L 55.582031 7.957031 L 55.554688 7.933594 C 55.5625 7.949219 55.550781 7.941406 55.558594 7.953125 " fill-opacity="1" fill-rule="nonzero"/><g clip-path="url(#id2)"><path fill="rgb(93.728638%, 17.248535%, 37.249756%)" d="M 40.953125 46.414062 C 40.984375 46.410156 41.007812 46.40625 41.039062 46.398438 C 41.476562 46.355469 41.988281 46.304688 42.496094 46.253906 C 42.582031 46.234375 42.667969 46.222656 42.75 46.207031 C 43.71875 46.191406 44.671875 46.113281 45.601562 45.96875 C 45.484375 46.019531 45.367188 46.074219 45.242188 46.128906 C 45.097656 46.191406 44.957031 46.253906 44.8125 46.316406 C 43.535156 46.457031 42.242188 46.488281 40.953125 46.414062 Z M 26.398438 39.621094 C 25.664062 39.105469 25.117188 38.582031 24.371094 37.851562 C 24.117188 37.621094 23.867188 37.144531 23.738281 36.871094 C 23.613281 36.589844 23.609375 36.480469 23.726562 36.558594 C 23.882812 36.660156 24.097656 36.878906 24.414062 37.300781 C 24.8125 37.777344 25.25 38.210938 25.65625 38.664062 C 26.273438 39.296875 26.824219 39.65625 27.109375 39.789062 C 27.160156 39.8125 27.21875 39.84375 27.285156 39.882812 L 27.332031 39.933594 C 27.570312 40.203125 27.855469 40.425781 28.117188 40.675781 L 28.535156 41.058594 C 28.335938 40.949219 28.082031 40.78125 27.808594 40.597656 C 27.210938 40.234375 26.734375 39.777344 26.398438 39.621094 Z M 23.191406 36.242188 C 23.039062 36.125 22.835938 35.78125 22.707031 35.46875 C 22.664062 35.371094 22.667969 35.328125 22.652344 35.257812 C 22.695312 35.304688 22.726562 35.328125 22.78125 35.398438 C 22.929688 35.585938 23.054688 35.859375 23.167969 36.0625 C 23.25 36.21875 23.261719 36.304688 23.191406 36.242188 Z M 22.222656 35.761719 C 22.167969 35.667969 22.113281 35.53125 22.070312 35.429688 C 22.058594 35.398438 22.085938 35.417969 22.09375 35.414062 C 22.160156 35.484375 22.242188 35.609375 22.351562 35.839844 C 22.378906 35.894531 22.402344 35.960938 22.40625 35.988281 C 22.425781 36.074219 22.339844 35.980469 22.222656 35.761719 Z M 21.246094 34.28125 C 21.210938 34.222656 21.125 33.984375 21.109375 33.917969 C 21.089844 33.847656 21.113281 33.824219 21.144531 33.878906 C 21.210938 33.980469 21.292969 34.15625 21.371094 34.300781 C 21.394531 34.425781 21.453125 34.59375 21.441406 34.574219 C 21.382812 34.527344 21.320312 34.417969 21.246094 34.28125 Z M 39.285156 1.769531 C 39.804688 1.722656 40.375 1.710938 40.9375 1.679688 C 41.023438 1.675781 41.207031 1.695312 41.324219 1.707031 C 41.371094 1.710938 41.363281 1.722656 41.378906 1.734375 C 41.332031 1.75 41.320312 1.769531 41.226562 1.78125 C 40.597656 1.875 39.871094 1.878906 39.007812 1.988281 C 38.949219 1.996094 38.824219 2.003906 38.792969 2 C 38.707031 1.992188 38.59375 1.984375 38.601562 1.96875 C 38.625 1.90625 38.886719 1.832031 39.285156 1.769531 Z M 39.679688 1.53125 C 39.71875 1.535156 39.777344 1.539062 39.828125 1.542969 C 39.804688 1.546875 39.789062 1.558594 39.75 1.558594 C 39.710938 1.554688 39.652344 1.550781 39.601562 1.546875 C 39.625 1.542969 39.640625 1.53125 39.679688 1.53125 Z M 48.621094 3.980469 C 48.652344 3.988281 48.742188 4.027344 48.804688 4.050781 C 48.828125 4.070312 48.875 4.101562 48.863281 4.101562 C 48.847656 4.105469 48.777344 4.085938 48.730469 4.066406 C 48.539062 3.984375 48.492188 3.949219 48.621094 3.980469 Z M 50.105469 4.757812 C 50.203125 4.796875 50.339844 4.871094 50.476562 4.949219 C 50.421875 4.929688 50.371094 4.910156 50.316406 4.890625 C 50.023438 4.777344 49.734375 4.667969 49.445312 4.554688 C 49.664062 4.621094 49.882812 4.675781 50.105469 4.757812 Z M 51.574219 5.28125 C 51.855469 5.410156 52.105469 5.566406 52.304688 5.746094 C 52.355469 5.789062 52.398438 5.828125 52.445312 5.871094 C 52.328125 5.816406 52.210938 5.761719 52.097656 5.703125 C 51.875 5.59375 51.652344 5.484375 51.429688 5.375 C 51.371094 5.332031 51.316406 5.292969 51.273438 5.253906 C 51.109375 5.121094 51.238281 5.121094 51.574219 5.28125 Z M 53.859375 6.476562 C 54.078125 6.640625 54.304688 6.804688 54.535156 6.976562 C 54.777344 7.160156 55.011719 7.363281 55.207031 7.558594 C 55.292969 7.652344 55.378906 7.734375 55.460938 7.820312 L 55.371094 7.753906 L 54.84375 7.351562 C 54.667969 7.21875 54.492188 7.082031 54.300781 6.96875 C 54.066406 6.824219 53.8125 6.671875 53.558594 6.515625 C 53.5 6.449219 53.445312 6.386719 53.390625 6.324219 C 53.25 6.152344 53.402344 6.203125 53.859375 6.476562 Z M 55.277344 7.328125 C 55.335938 7.359375 55.476562 7.464844 55.570312 7.542969 C 55.765625 7.695312 55.832031 7.847656 55.730469 7.765625 C 55.675781 7.726562 55.539062 7.621094 55.441406 7.546875 C 55.257812 7.386719 55.164062 7.265625 55.277344 7.328125 Z M 57.132812 8.773438 C 57.542969 9.128906 57.882812 9.578125 58.269531 9.980469 L 57.835938 9.714844 C 57.519531 9.378906 57.28125 9.148438 56.871094 8.761719 C 56.796875 8.6875 56.667969 8.53125 56.660156 8.503906 C 56.621094 8.382812 56.828125 8.5 57.132812 8.773438 Z M 58.308594 10.023438 C 58.394531 9.980469 58.800781 10.246094 59.296875 10.914062 C 59.570312 11.273438 59.8125 11.640625 60.074219 12.046875 C 60.214844 12.257812 60.328125 12.410156 60.382812 12.464844 C 60.421875 12.496094 60.445312 12.503906 60.46875 12.507812 C 60.53125 12.511719 60.648438 12.640625 60.859375 12.996094 C 61.207031 13.609375 61.539062 14.054688 61.742188 14.382812 C 61.773438 14.429688 61.875 14.660156 61.914062 14.769531 C 61.957031 14.886719 61.988281 15.007812 61.984375 15.042969 C 61.96875 15.132812 61.929688 15.15625 61.917969 15.253906 C 61.898438 15.425781 61.824219 15.417969 61.476562 14.660156 C 61.371094 14.421875 61.253906 14.238281 61.140625 14.105469 C 61.070312 14.015625 61.011719 13.957031 60.957031 13.898438 C 60.75 13.554688 60.546875 13.214844 60.328125 12.882812 L 59.367188 11.601562 L 59.125 11.28125 L 58.855469 10.984375 L 58.773438 10.894531 C 58.75 10.75 58.601562 10.449219 58.304688 10.019531 Z M 62.582031 15.90625 C 62.644531 16 62.734375 16.152344 62.792969 16.332031 C 62.816406 16.394531 62.851562 16.566406 62.878906 16.6875 C 62.863281 16.765625 62.800781 16.667969 62.6875 16.355469 C 62.652344 16.253906 62.585938 16.054688 62.5625 15.980469 C 62.539062 15.902344 62.550781 15.855469 62.582031 15.90625 Z M 52.933594 6.296875 L 52.800781 6.214844 C 52.566406 6.085938 52.328125 5.964844 52.089844 5.847656 C 51.9375 5.722656 51.777344 5.613281 51.625 5.507812 C 51.945312 5.664062 52.261719 5.820312 52.578125 5.988281 C 52.683594 6.085938 52.792969 6.183594 52.933594 6.296875 Z M 56.550781 8.699219 C 56.761719 8.863281 56.972656 9.054688 57.1875 9.269531 C 56.972656 9.082031 56.761719 8.890625 56.550781 8.699219 Z M 58.324219 11.039062 C 58.441406 11.171875 58.566406 11.320312 58.699219 11.480469 C 58.621094 11.390625 58.511719 11.265625 58.425781 11.171875 C 58.363281 11.101562 58.292969 11.027344 58.226562 10.953125 C 58.261719 10.984375 58.289062 11.007812 58.324219 11.039062 Z M 50.445312 5.441406 C 50.34375 5.40625 50.265625 5.386719 50.25 5.386719 C 50.226562 5.386719 50.316406 5.425781 50.460938 5.484375 C 50.476562 5.511719 50.496094 5.542969 50.515625 5.578125 C 50.304688 5.507812 50.109375 5.441406 49.917969 5.378906 C 49.851562 5.355469 49.78125 5.332031 49.714844 5.308594 C 49.734375 5.261719 49.667969 5.179688 49.503906 5.050781 C 49.65625 5.109375 49.808594 5.164062 49.964844 5.222656 C 50.117188 5.28125 50.277344 5.335938 50.433594 5.390625 C 50.433594 5.40625 50.4375 5.421875 50.445312 5.441406 Z M 52.46875 6.523438 C 52.4375 6.507812 52.445312 6.527344 52.464844 6.554688 C 52.273438 6.453125 52.082031 6.347656 51.886719 6.25 C 52.050781 6.324219 52.210938 6.394531 52.378906 6.46875 C 52.453125 6.507812 52.527344 6.546875 52.597656 6.585938 C 52.554688 6.566406 52.511719 6.546875 52.46875 6.523438 Z M 51.0625 5.808594 C 51.082031 5.800781 51.105469 5.796875 51.140625 5.792969 C 51.203125 5.824219 51.265625 5.859375 51.328125 5.886719 C 51.578125 6.011719 51.886719 6.164062 51.945312 6.207031 C 52.027344 6.265625 51.675781 6.097656 51.445312 5.988281 C 51.3125 5.929688 51.1875 5.867188 51.0625 5.808594 Z M 51.65625 5.957031 C 51.75 6.019531 51.539062 5.921875 51.332031 5.824219 C 51.390625 5.839844 51.460938 5.863281 51.535156 5.890625 C 51.589844 5.921875 51.632812 5.945312 51.65625 5.957031 Z M 43.667969 3.542969 C 43.683594 3.539062 43.699219 3.539062 43.71875 3.535156 C 43.960938 3.519531 44.273438 3.554688 44.707031 3.632812 C 44.363281 3.59375 44.015625 3.5625 43.667969 3.542969 Z M 34.820312 5.339844 L 34.277344 5.484375 C 34.226562 5.5 34.167969 5.503906 34.148438 5.5 C 34.128906 5.5 34.136719 5.480469 34.164062 5.472656 C 34.277344 5.433594 34.457031 5.371094 34.507812 5.363281 C 34.636719 5.34375 34.722656 5.34375 34.820312 5.339844 Z M 30.234375 7.832031 C 30.234375 7.832031 30.234375 7.828125 30.234375 7.828125 C 30.417969 7.695312 30.597656 7.5625 30.789062 7.441406 C 30.652344 7.519531 30.523438 7.609375 30.390625 7.699219 C 30.667969 7.480469 30.972656 7.269531 31.457031 6.972656 C 31.710938 6.824219 31.921875 6.65625 32.097656 6.558594 C 32.398438 6.367188 32.789062 6.175781 33.367188 5.945312 C 34.097656 5.671875 34.59375 5.527344 34.867188 5.332031 C 35.089844 5.238281 35.316406 5.148438 35.535156 5.0625 C 35.761719 4.996094 35.988281 4.929688 36.207031 4.867188 C 36.652344 4.730469 37.082031 4.597656 37.496094 4.472656 C 37.785156 4.417969 38.066406 4.355469 38.339844 4.292969 C 38.351562 4.292969 38.363281 4.289062 38.378906 4.289062 C 38.585938 4.257812 38.789062 4.226562 38.886719 4.199219 C 38.867188 4.195312 38.753906 4.210938 38.621094 4.226562 C 38.914062 4.160156 39.203125 4.09375 39.480469 4.039062 C 39.566406 4.027344 39.65625 4.015625 39.753906 4.003906 C 40.011719 3.964844 40.300781 3.917969 40.605469 3.914062 C 40.945312 3.894531 41.285156 3.875 41.625 3.855469 C 41.769531 3.855469 41.851562 3.855469 41.886719 3.84375 C 41.964844 3.839844 42.046875 3.835938 42.125 3.828125 C 42.378906 3.804688 42.632812 3.820312 42.882812 3.832031 C 43.136719 3.84375 43.386719 3.855469 43.636719 3.867188 L 44.453125 3.902344 C 44.726562 3.914062 44.996094 3.976562 45.265625 4.011719 C 45.804688 4.097656 46.347656 4.160156 46.871094 4.277344 C 47.425781 4.429688 47.980469 4.5625 48.53125 4.722656 C 48.566406 4.753906 48.632812 4.800781 48.742188 4.871094 C 48.882812 4.957031 48.769531 4.945312 48.601562 4.890625 C 47.652344 4.546875 46.648438 4.417969 45.65625 4.207031 C 44.976562 4.132812 44.269531 4.046875 43.78125 4.035156 C 43.753906 4.039062 43.722656 4.039062 43.695312 4.042969 C 43.273438 4.015625 42.851562 4 42.421875 4 C 37.761719 4 33.453125 5.519531 29.964844 8.089844 C 30.054688 8.003906 30.144531 7.917969 30.234375 7.832031 Z M 21.390625 22.714844 C 21.382812 22.78125 21.375 22.847656 21.367188 22.914062 C 21.367188 22.910156 21.367188 22.90625 21.367188 22.902344 C 21.371094 22.855469 21.378906 22.785156 21.390625 22.714844 Z M 21.449219 23.199219 C 21.433594 23.234375 21.417969 23.261719 21.40625 23.296875 C 21.378906 23.300781 21.363281 23.246094 21.359375 23.140625 C 21.378906 22.941406 21.402344 22.742188 21.429688 22.539062 C 21.472656 22.4375 21.503906 22.441406 21.515625 22.550781 C 21.492188 22.765625 21.46875 22.980469 21.449219 23.199219 Z M 59.109375 11.355469 C 59.453125 11.800781 59.808594 12.269531 60.15625 12.75 L 60.347656 13.015625 L 60.515625 13.296875 L 60.742188 13.671875 C 60.464844 13.359375 60.167969 12.933594 59.726562 12.347656 C 59.492188 12.054688 59.292969 11.839844 59.066406 11.5625 C 59.046875 11.535156 59.027344 11.503906 59.003906 11.476562 C 58.976562 11.445312 58.949219 11.414062 58.921875 11.378906 C 58.824219 11.257812 58.722656 11.121094 58.609375 10.960938 C 58.617188 10.960938 58.621094 10.953125 58.632812 10.960938 C 58.699219 11 58.742188 11.007812 58.765625 10.980469 C 58.878906 11.105469 58.996094 11.234375 59.109375 11.355469 Z M 55.582031 7.957031 L 56.21875 8.445312 C 56.699219 8.847656 57.160156 9.269531 57.597656 9.714844 C 57.835938 9.984375 58.078125 10.28125 58.328125 10.605469 C 58.410156 10.710938 58.496094 10.808594 58.574219 10.917969 C 58.546875 10.914062 58.511719 10.894531 58.476562 10.871094 C 58.441406 10.835938 58.40625 10.796875 58.375 10.757812 C 57.582031 9.796875 56.632812 8.925781 55.609375 8.117188 C 55.636719 8.109375 55.628906 8.0625 55.558594 7.953125 C 55.457031 7.902344 55.367188 7.875 55.375 7.933594 C 54.992188 7.640625 54.601562 7.355469 54.203125 7.078125 L 53.816406 6.839844 C 53.8125 6.832031 53.808594 6.824219 53.800781 6.808594 C 53.746094 6.730469 53.679688 6.65625 53.617188 6.582031 C 54.273438 6.980469 54.90625 7.414062 55.515625 7.882812 C 55.535156 7.90625 55.5625 7.929688 55.582031 7.957031 Z M 50.71875 5.105469 C 50.804688 5.167969 50.871094 5.21875 50.886719 5.242188 C 50.890625 5.253906 50.898438 5.265625 50.90625 5.277344 C 50.542969 5.117188 50.167969 4.988281 49.800781 4.851562 C 49.28125 4.65625 48.765625 4.453125 48.222656 4.332031 C 47.941406 4.25 47.65625 4.171875 47.367188 4.101562 C 47.386719 4.070312 47.460938 4.0625 47.585938 4.070312 C 48.65625 4.335938 49.703125 4.683594 50.71875 5.105469 Z M 25.691406 38.457031 C 25.671875 38.441406 25.65625 38.4375 25.628906 38.40625 C 25.605469 38.378906 25.566406 38.324219 25.539062 38.277344 C 25.558594 38.292969 25.574219 38.296875 25.601562 38.328125 C 25.621094 38.359375 25.660156 38.414062 25.691406 38.457031 Z M 28.703125 41.140625 L 28.46875 40.925781 C 28.136719 40.621094 27.808594 40.320312 27.480469 40.019531 C 27.464844 40.003906 27.453125 39.992188 27.4375 39.976562 C 27.472656 39.996094 27.503906 40.015625 27.542969 40.039062 C 27.929688 40.425781 28.332031 40.800781 28.746094 41.15625 C 28.734375 41.152344 28.714844 41.144531 28.703125 41.140625 Z M 63.128906 19.136719 C 63.238281 19.597656 63.367188 20.128906 63.355469 20.195312 C 63.34375 20.28125 63.15625 19.558594 63.027344 19.09375 C 62.976562 18.917969 62.972656 18.921875 62.992188 19.011719 C 63.121094 19.5 63.242188 19.972656 63.363281 20.433594 L 63.449219 20.78125 L 63.503906 21.132812 C 63.539062 21.363281 63.574219 21.59375 63.609375 21.824219 C 63.679688 22.011719 63.710938 22.105469 63.761719 22.347656 C 63.78125 22.46875 63.8125 22.625 63.851562 22.847656 C 63.859375 22.933594 63.867188 23.027344 63.875 23.132812 C 63.824219 23.078125 63.769531 23.042969 63.714844 23.042969 C 63.632812 23.039062 63.554688 23.1875 63.484375 23.613281 C 63.46875 23.679688 63.460938 23.75 63.449219 23.816406 C 63.128906 18.519531 60.851562 13.753906 57.339844 10.21875 C 57.539062 10.367188 57.75 10.53125 57.980469 10.734375 C 58.132812 10.898438 58.292969 11.070312 58.460938 11.257812 C 58.632812 11.441406 58.855469 11.695312 58.789062 11.589844 C 59.054688 11.914062 59.347656 12.292969 59.675781 12.75 C 59.941406 13.199219 60.171875 13.511719 60.257812 13.523438 C 60.273438 13.523438 60.292969 13.535156 60.316406 13.550781 C 60.359375 13.613281 60.398438 13.671875 60.433594 13.714844 C 60.542969 13.863281 60.679688 14.070312 60.839844 14.320312 C 60.992188 14.578125 61.199219 14.863281 61.359375 15.230469 C 61.53125 15.585938 61.707031 15.941406 61.878906 16.296875 C 61.964844 16.476562 62.058594 16.652344 62.136719 16.832031 L 62.34375 17.386719 C 62.425781 17.609375 62.46875 17.707031 62.472656 17.6875 C 62.476562 17.667969 62.433594 17.523438 62.363281 17.320312 C 62.339844 17.257812 62.3125 17.183594 62.292969 17.125 L 62.167969 16.789062 C 62.121094 16.679688 62.066406 16.574219 62.015625 16.464844 C 61.910156 16.25 61.808594 16.039062 61.707031 15.828125 C 61.605469 15.613281 61.5 15.402344 61.402344 15.191406 L 61.25 14.875 L 61.070312 14.574219 C 60.964844 14.40625 60.863281 14.234375 60.761719 14.0625 C 60.804688 14.125 60.851562 14.183594 60.898438 14.25 C 61.101562 14.5 61.199219 14.726562 61.375 15 C 61.503906 15.234375 61.660156 15.53125 61.804688 15.800781 C 62.101562 16.289062 62.320312 17.222656 62.507812 17.523438 C 62.53125 17.5625 62.550781 17.597656 62.574219 17.625 L 62.609375 17.722656 C 62.601562 17.695312 62.59375 17.671875 62.589844 17.648438 C 62.632812 17.710938 62.671875 17.753906 62.710938 17.792969 C 62.71875 17.8125 62.722656 17.832031 62.730469 17.851562 C 62.875 18.277344 63.042969 18.699219 63.128906 19.136719 Z M 29.925781 48.121094 C 29.839844 48.121094 29.488281 47.953125 29.199219 47.773438 C 28.890625 47.582031 28.710938 47.4375 28.777344 47.433594 C 28.839844 47.429688 29.199219 47.601562 29.515625 47.792969 C 29.832031 47.980469 30.007812 48.121094 29.925781 48.121094 Z M 19.59375 16.148438 C 19.554688 16.257812 19.472656 16.441406 19.421875 16.546875 C 19.367188 16.652344 19.304688 16.746094 19.28125 16.761719 C 19.21875 16.796875 19.257812 16.628906 19.351562 16.367188 C 19.386719 16.257812 19.46875 16.070312 19.519531 15.96875 C 19.570312 15.867188 19.609375 15.835938 19.652344 15.773438 C 19.691406 15.785156 19.695312 15.871094 19.59375 16.148438 Z M 19.46875 30.179688 C 19.433594 30.199219 19.351562 29.972656 19.292969 29.6875 C 19.238281 29.410156 19.1875 29.023438 19.203125 28.921875 C 19.21875 28.8125 19.246094 28.75 19.257812 28.695312 C 19.300781 28.753906 19.324219 28.78125 19.351562 28.828125 C 19.402344 28.910156 19.492188 29.355469 19.511719 29.582031 C 19.542969 29.96875 19.523438 30.148438 19.46875 30.179688 Z M 18.867188 19.320312 C 18.847656 19.472656 18.816406 19.683594 18.792969 19.855469 C 18.765625 19.945312 18.742188 20.023438 18.734375 20.058594 C 18.71875 20.089844 18.703125 20.101562 18.703125 20.074219 C 18.714844 19.730469 18.671875 19.402344 18.84375 18.800781 C 18.871094 18.6875 18.9375 18.484375 18.976562 18.382812 C 19.011719 18.296875 19.070312 18.222656 19.0625 18.269531 C 19 18.601562 18.9375 18.953125 18.867188 19.320312 Z M 18.890625 27.800781 C 18.882812 27.871094 18.855469 27.878906 18.839844 27.808594 C 18.707031 27.035156 18.496094 26.21875 18.445312 25.523438 C 18.4375 25.4375 18.4375 25.253906 18.433594 25.109375 C 18.425781 24.851562 18.46875 24.414062 18.5 24.394531 C 18.515625 24.417969 18.542969 24.394531 18.550781 24.480469 C 18.640625 25.324219 18.691406 26.300781 18.878906 27.417969 C 18.890625 27.507812 18.898438 27.730469 18.890625 27.800781 Z M 64.980469 27.902344 L 64.808594 26.582031 C 64.746094 26.144531 64.714844 25.625 64.617188 25.289062 C 64.542969 25.054688 64.46875 24.796875 64.398438 24.507812 C 64.238281 23.855469 64.074219 23.351562 63.890625 23.144531 C 63.839844 22.460938 63.722656 21.828125 63.648438 21.210938 C 63.605469 20.886719 63.613281 20.84375 63.660156 21.097656 C 63.707031 21.351562 63.765625 21.671875 63.828125 22.007812 C 63.792969 21.738281 63.757812 21.472656 63.722656 21.210938 C 63.6875 20.949219 63.660156 20.691406 63.59375 20.457031 C 63.429688 19.75 63.285156 19.117188 63.085938 18.554688 C 63.007812 18.363281 62.921875 18.144531 62.828125 17.90625 C 62.851562 17.929688 62.878906 17.953125 62.90625 17.984375 C 63.023438 18.128906 63.15625 18.273438 63.273438 18.464844 C 63.328125 18.5625 63.402344 18.773438 63.476562 19.101562 L 63.683594 20.027344 C 63.871094 20.785156 63.914062 21.34375 64.042969 21.761719 C 64.109375 22.027344 64.191406 22.363281 64.261719 22.65625 C 64.324219 22.910156 64.378906 22.984375 64.429688 22.992188 C 64.539062 23.007812 64.574219 22.582031 64.53125 21.703125 L 64.539062 21.734375 C 64.480469 21.386719 64.421875 21.007812 64.390625 20.574219 C 64.171875 19.398438 63.992188 18.292969 63.582031 17.273438 C 63.390625 16.761719 63.242188 16.238281 63.019531 15.746094 C 62.789062 15.257812 62.558594 14.769531 62.328125 14.273438 C 61.945312 13.457031 61.441406 12.71875 61.007812 11.960938 C 60.496094 11.253906 59.996094 10.5625 59.46875 9.925781 C 58.730469 9.128906 57.984375 8.25 57.0625 7.394531 C 56.367188 6.644531 55.589844 6.128906 55.039062 5.773438 C 54.921875 5.691406 54.722656 5.558594 54.5625 5.449219 C 54.300781 5.300781 54.035156 5.101562 53.75 4.847656 C 53.535156 4.652344 53.226562 4.4375 53.132812 4.417969 C 52.851562 4.339844 52.132812 4.03125 51.378906 3.679688 L 51.195312 3.601562 C 50.878906 3.453125 50.546875 3.277344 50.152344 3.109375 C 49.964844 3.023438 49.667969 2.90625 49.542969 2.871094 C 48.636719 2.574219 47.402344 2.316406 46.4375 2.132812 C 46 2.078125 45.503906 2.015625 44.980469 1.953125 C 44.460938 1.882812 43.921875 1.796875 43.386719 1.800781 C 43.128906 1.792969 42.679688 1.710938 42.671875 1.671875 C 42.636719 1.5 43.011719 1.292969 44.621094 1.488281 L 45.261719 1.585938 C 46 1.691406 46.523438 1.730469 46.859375 1.761719 C 47.152344 1.773438 47.386719 1.761719 47.964844 1.886719 C 48.761719 2.019531 49.464844 2.289062 50.257812 2.523438 C 50.96875 2.734375 51.351562 2.871094 51.738281 2.96875 C 51.882812 3.007812 51.804688 2.921875 51.609375 2.777344 C 51.328125 2.558594 50.953125 2.320312 50.449219 2.128906 C 49.074219 1.515625 47.605469 1.039062 46.195312 0.742188 C 44.5 0.414062 42.746094 0.21875 41.003906 0.261719 C 39.496094 0.257812 37.960938 0.457031 36.675781 0.722656 C 36.289062 0.820312 35.824219 0.941406 35.382812 1.054688 C 34.714844 1.195312 34.0625 1.414062 33.414062 1.65625 C 33.027344 1.796875 32.847656 1.8125 32.621094 1.851562 C 32.449219 1.875 32.113281 1.980469 32.011719 2.058594 C 31.933594 2.109375 31.78125 2.1875 31.777344 2.207031 C 31.730469 2.367188 31.089844 2.703125 30.253906 3.113281 C 29.570312 3.503906 29.007812 3.902344 28.425781 4.28125 C 28.019531 4.546875 27.648438 4.855469 27.101562 5.171875 C 26.628906 5.460938 26.277344 5.710938 26.046875 5.972656 C 25.894531 6.128906 25.816406 6.238281 25.742188 6.34375 C 25.640625 6.484375 25.484375 6.667969 25.152344 6.945312 C 24.253906 7.6875 23.789062 8.355469 23.496094 8.777344 C 23.402344 8.921875 23.171875 9.191406 23.015625 9.445312 C 22.527344 10.199219 21.996094 10.886719 21.5625 11.734375 C 21.34375 12.113281 21.117188 12.515625 20.882812 12.921875 C 20.683594 13.347656 20.480469 13.78125 20.28125 14.207031 C 20.257812 14.261719 20.113281 14.484375 20.074219 14.53125 C 19.933594 14.6875 19.925781 14.597656 19.96875 14.433594 C 20.074219 14.03125 20.273438 13.476562 20.523438 12.859375 C 20.640625 12.589844 20.859375 12.28125 21.113281 11.917969 C 21.78125 10.980469 21.773438 10.972656 21.757812 10.765625 C 21.753906 10.742188 21.75 10.714844 21.792969 10.636719 C 21.835938 10.566406 21.9375 10.425781 22.019531 10.324219 L 22.5 9.785156 C 22.8125 9.429688 23.035156 9.101562 22.9375 9.148438 C 22.859375 9.179688 22.753906 9.25 22.660156 9.304688 C 22.53125 9.382812 22.488281 9.355469 22.660156 9.09375 C 23.074219 8.472656 23.59375 7.90625 24.078125 7.285156 C 24.132812 7.222656 24.304688 7.042969 24.421875 6.964844 C 24.542969 6.882812 24.625 6.828125 24.742188 6.75 C 24.847656 6.675781 25.003906 6.566406 25.085938 6.496094 C 25.171875 6.417969 25.242188 6.332031 25.246094 6.308594 C 25.253906 6.226562 25.222656 6.175781 25.222656 6.105469 C 25.21875 6.027344 25.40625 5.808594 25.808594 5.464844 C 26.347656 5.035156 26.800781 4.730469 27.097656 4.441406 C 27.257812 4.292969 27.585938 4.035156 27.878906 3.828125 C 28.3125 3.5625 28.785156 3.273438 29.214844 3.007812 C 30.089844 2.46875 30.167969 2.34375 29.433594 2.597656 C 29.222656 2.679688 28.988281 2.769531 28.757812 2.859375 C 28.332031 3.042969 27.792969 3.257812 27.265625 3.613281 C 26.976562 3.808594 26.675781 4.007812 26.402344 4.195312 C 25.417969 4.835938 24.546875 5.667969 23.660156 6.433594 C 22.851562 7.285156 22.023438 8.09375 21.40625 8.992188 C 21.109375 9.421875 20.671875 9.878906 20.378906 10.378906 C 19.964844 11.046875 19.5 11.691406 19.152344 12.375 C 18.808594 13.066406 18.464844 13.726562 18.195312 14.371094 C 17.890625 15.28125 17.476562 16.179688 17.257812 17.140625 C 17.035156 18.023438 16.773438 18.894531 16.675781 19.777344 C 16.535156 20.652344 16.414062 21.5 16.425781 22.308594 C 16.398438 23.105469 16.367188 23.914062 16.453125 24.738281 C 16.503906 25.558594 16.539062 26.390625 16.707031 27.21875 C 16.8125 27.800781 16.871094 28.410156 17.015625 29.015625 C 17.164062 29.621094 17.320312 30.242188 17.472656 30.863281 C 17.578125 31.320312 17.742188 31.675781 17.867188 31.964844 C 18.03125 32.308594 18.222656 32.765625 18.410156 33.234375 C 18.9375 34.265625 19.414062 35.351562 20.09375 36.316406 C 20.234375 36.535156 20.386719 36.777344 20.539062 37.046875 C 21.003906 37.863281 21.445312 38.300781 21.789062 38.691406 C 22.027344 38.960938 22.367188 39.367188 22.671875 39.632812 C 23.007812 39.941406 23.457031 40.53125 23.84375 40.9375 C 24.058594 41.128906 24.273438 41.316406 24.460938 41.484375 C 25.34375 42.296875 26.339844 42.964844 27.148438 43.464844 C 27.699219 43.792969 28.386719 44.125 29.027344 44.484375 C 29.203125 44.589844 29.480469 44.753906 29.734375 44.871094 C 30.289062 45.007812 31.003906 45.332031 31.773438 45.558594 C 32.378906 45.734375 33 45.910156 33.621094 46.089844 C 34.253906 46.203125 34.886719 46.320312 35.507812 46.433594 C 36.507812 46.554688 37.574219 46.648438 38.207031 46.578125 C 38.300781 46.5625 38.414062 46.550781 38.578125 46.550781 C 39.441406 46.554688 40.050781 46.539062 40.757812 46.441406 C 40.765625 46.441406 40.769531 46.441406 40.773438 46.441406 C 41.371094 46.46875 41.972656 46.519531 42.570312 46.523438 C 43.171875 46.496094 43.769531 46.46875 44.367188 46.441406 C 44.421875 46.433594 44.476562 46.425781 44.53125 46.421875 C 44.046875 46.566406 43.46875 46.710938 42.652344 46.847656 C 42.019531 46.917969 41.519531 46.976562 41.042969 47.03125 C 40.765625 47.0625 40.476562 47.097656 40.179688 47.136719 C 39.878906 47.136719 39.566406 47.136719 39.238281 47.136719 C 38.585938 47.125 37.867188 47.132812 37.09375 46.984375 C 36.636719 46.914062 36.199219 46.859375 35.863281 46.835938 C 35.375 46.789062 35.050781 46.746094 34.300781 46.550781 C 34.128906 46.503906 33.992188 46.492188 33.9375 46.5 C 33.75 46.535156 33.371094 46.484375 32.878906 46.320312 C 32.5625 46.226562 32.222656 46.121094 32.027344 46.089844 C 31.453125 46.027344 30.566406 45.636719 29.683594 45.246094 C 28.921875 44.945312 28.21875 44.460938 27.472656 44.066406 C 26.746094 43.632812 26.085938 43.125 25.433594 42.703125 C 25.289062 42.609375 25.125 42.453125 24.972656 42.328125 C 24.296875 41.726562 23.566406 41.167969 22.960938 40.484375 C 22.691406 40.203125 22.433594 39.953125 22.140625 39.617188 C 21.503906 38.8125 21.011719 38.195312 20.511719 37.558594 C 19.90625 36.617188 19.21875 35.699219 18.734375 34.683594 C 18.617188 34.464844 18.503906 34.265625 18.40625 34.101562 C 18.0625 33.589844 17.796875 32.921875 17.5 32.207031 C 17.175781 31.496094 16.9375 30.703125 16.722656 29.910156 C 16.433594 29.03125 16.28125 28.050781 16.121094 27.203125 C 16 26.65625 15.914062 26.078125 15.886719 25.488281 C 15.839844 24.894531 15.785156 24.289062 15.757812 23.675781 C 15.796875 22.457031 15.769531 21.207031 15.953125 20.046875 C 15.972656 19.917969 15.992188 19.761719 16.011719 19.621094 C 16.117188 18.492188 16.457031 17.4375 16.707031 16.296875 C 16.925781 15.632812 17.046875 15.203125 17.054688 14.960938 C 17.070312 14.671875 17.085938 14.382812 17.074219 14.152344 C 17.066406 14.042969 16.9375 14.222656 16.75 14.574219 C 16.617188 14.828125 16.449219 15.15625 16.316406 15.464844 C 15.648438 17.082031 15.160156 18.769531 14.925781 20.414062 C 14.742188 21.234375 14.742188 22.136719 14.652344 23.011719 C 14.570312 23.71875 14.617188 24.410156 14.625 25.097656 C 14.648438 25.78125 14.648438 26.460938 14.757812 27.121094 C 14.957031 28.945312 15.332031 30.800781 15.929688 32.566406 C 16.0625 32.96875 16.203125 33.382812 16.34375 33.796875 C 16.394531 33.960938 16.445312 34.148438 16.523438 34.3125 C 16.65625 34.636719 16.738281 34.917969 16.714844 34.980469 C 16.667969 35.113281 16.722656 35.269531 17.023438 35.890625 C 17.128906 36.09375 17.21875 36.277344 17.324219 36.480469 C 17.4375 36.699219 17.582031 36.972656 17.613281 37.101562 C 17.644531 37.21875 17.644531 37.277344 17.691406 37.425781 C 17.71875 37.5 17.820312 37.71875 17.890625 37.847656 C 17.964844 37.984375 18.0625 38.136719 18.109375 38.195312 C 18.191406 38.292969 18.25 38.34375 18.296875 38.371094 C 18.554688 38.542969 19.054688 39.082031 19.917969 40.214844 C 20.230469 40.652344 20.542969 40.957031 20.890625 41.324219 C 21.082031 41.535156 21.308594 41.785156 21.523438 42.027344 C 21.742188 42.277344 22.097656 42.742188 22.277344 42.964844 C 22.328125 43.03125 22.292969 43.046875 22.230469 42.988281 C 22.003906 42.796875 21.773438 42.558594 21.558594 42.296875 C 21.253906 41.953125 21.023438 41.707031 20.871094 41.59375 C 20.785156 41.527344 20.714844 41.484375 20.648438 41.445312 C 20.511719 41.351562 20.226562 41.121094 19.890625 40.628906 C 19.734375 40.414062 19.585938 40.210938 19.445312 40.015625 C 19.210938 39.695312 19.1875 39.800781 19.40625 40.175781 C 19.578125 40.476562 19.773438 40.792969 19.988281 41.058594 C 20.203125 41.292969 20.390625 41.5 20.59375 41.714844 L 21.574219 42.757812 C 21.914062 43.097656 22.285156 43.402344 22.644531 43.726562 C 22.707031 43.78125 22.863281 43.964844 22.960938 44.078125 C 23 44.121094 23.023438 44.167969 23.003906 44.15625 C 22.929688 44.117188 22.867188 44.097656 22.734375 43.992188 C 22.175781 43.523438 21.542969 43.054688 21.039062 42.515625 C 20.824219 42.304688 20.632812 42.136719 20.464844 41.988281 C 20.40625 41.941406 20.398438 41.976562 20.449219 42.058594 C 20.539062 42.203125 20.6875 42.425781 20.824219 42.59375 C 21.453125 43.429688 22.242188 44.085938 22.910156 44.734375 C 24.636719 46.199219 26.589844 47.636719 28.695312 48.644531 C 31.871094 50.238281 35.25 51.113281 38.535156 51.324219 C 40.136719 51.449219 41.582031 51.339844 43.140625 51.199219 C 45.246094 50.9375 47.140625 50.496094 48.941406 49.804688 C 49.488281 49.589844 50.019531 49.386719 50.53125 49.167969 C 51.03125 48.910156 51.523438 48.660156 52.023438 48.402344 C 52.527344 48.160156 53.015625 47.875 53.5 47.550781 C 53.992188 47.238281 54.511719 46.933594 55.035156 46.578125 C 55.152344 46.488281 55.25 46.410156 55.351562 46.328125 C 57.265625 44.917969 58.890625 43.179688 60.335938 41.371094 C 61.4375 39.851562 62.414062 38.3125 63.183594 36.59375 C 63.867188 35.179688 64.226562 33.875 64.585938 32.570312 C 64.769531 31.675781 64.882812 30.945312 64.949219 30.296875 C 64.964844 29.722656 64.980469 29.113281 64.996094 28.539062 C 65 28.296875 64.988281 28.105469 64.980469 27.902344 " fill-opacity="1" fill-rule="nonzero"/></g><path fill="rgb(93.728638%, 17.248535%, 37.249756%)" d="M 29.75 44.882812 L 29.765625 44.886719 L 29.761719 44.886719 L 29.734375 44.871094 L 29.722656 44.867188 L 29.75 44.882812 " fill-opacity="1" fill-rule="nonzero"/><path fill="rgb(93.728638%, 17.248535%, 37.249756%)" d="M 29.542969 44.886719 C 29.636719 44.953125 29.761719 45.042969 29.867188 45.101562 C 30.179688 45.273438 30.453125 45.378906 30.394531 45.3125 C 30.332031 45.238281 30.125 45.113281 29.921875 44.988281 L 29.75 44.882812 C 29.675781 44.871094 29.597656 44.855469 29.527344 44.84375 C 29.507812 44.84375 29.507812 44.859375 29.542969 44.886719 " fill-opacity="1" fill-rule="nonzero"/><path fill="rgb(93.728638%, 17.248535%, 37.249756%)" d="M 16.84375 36.28125 C 16.832031 36.269531 16.851562 36.339844 16.859375 36.371094 C 16.890625 36.445312 16.9375 36.550781 16.957031 36.589844 C 17.035156 36.726562 17.023438 36.65625 16.925781 36.425781 C 16.902344 36.371094 16.859375 36.292969 16.84375 36.28125 " fill-opacity="1" fill-rule="nonzero"/><path fill="rgb(93.728638%, 17.248535%, 37.249756%)" d="M 24.058594 7.722656 L 24.140625 7.621094 L 24.003906 7.75 Z M 24.058594 7.722656 " fill-opacity="1" fill-rule="nonzero"/><path fill="rgb(93.728638%, 17.248535%, 37.249756%)" d="M 59.957031 12.355469 L 59.863281 12.214844 L 59.871094 12.257812 Z M 59.957031 12.355469 " fill-opacity="1" fill-rule="nonzero"/><path fill="rgb(93.728638%, 17.248535%, 37.249756%)" d="M 48.378906 4.769531 C 47.75 4.609375 47.128906 4.414062 46.492188 4.285156 C 45.851562 4.183594 45.203125 4.082031 44.558594 3.980469 C 43.902344 3.949219 43.246094 3.914062 42.585938 3.878906 C 42.496094 3.878906 42.402344 3.886719 42.308594 3.890625 C 42.871094 3.894531 43.425781 3.945312 43.96875 3.976562 C 45.4375 4.089844 46.925781 4.367188 48.378906 4.769531 " fill-opacity="1" fill-rule="nonzero"/><path fill="rgb(93.728638%, 17.248535%, 37.249756%)" d="M 42.25 3.890625 C 41.703125 3.90625 41.152344 3.945312 40.601562 3.972656 C 41.152344 3.945312 41.703125 3.917969 42.25 3.890625 " fill-opacity="1" fill-rule="nonzero"/><g fill="rgb(36.079407%, 88.238525%, 90.19928%)" fill-opacity="1"><g transform="translate(14.915026, 28.282643)"><g><path d="M 2.28125 -0.328125 C 2.269531 0.0234375 2.039062 0.28125 1.59375 0.4375 C 1.164062 0.582031 0.753906 0.601562 0.359375 0.5 C -0.109375 0.382812 -0.34375 0.15625 -0.34375 -0.1875 C -0.476562 -0.675781 -0.390625 -1.816406 -0.078125 -3.609375 C 0.367188 -6.296875 0.941406 -8.253906 1.640625 -9.484375 C 1.828125 -9.796875 1.992188 -10.003906 2.140625 -10.109375 C 2.285156 -10.222656 2.457031 -10.332031 2.65625 -10.4375 C 2.851562 -10.550781 3.0625 -10.648438 3.28125 -10.734375 C 3.707031 -10.921875 4.117188 -11.070312 4.515625 -11.1875 C 4.921875 -11.3125 5.296875 -11.328125 5.640625 -11.234375 C 5.984375 -11.148438 6.265625 -10.976562 6.484375 -10.71875 C 6.710938 -10.46875 6.878906 -10.15625 6.984375 -9.78125 C 7.097656 -9.414062 7.148438 -9.019531 7.140625 -8.59375 C 7.140625 -8.164062 7.082031 -7.722656 6.96875 -7.265625 C 6.851562 -6.816406 6.691406 -6.390625 6.484375 -5.984375 C 5.992188 -5.078125 5.363281 -4.441406 4.59375 -4.078125 L 4.75 -3.875 C 4.882812 -3.726562 5.050781 -3.5625 5.25 -3.375 C 5.445312 -3.1875 5.644531 -3 5.84375 -2.8125 C 6.050781 -2.625 6.234375 -2.425781 6.390625 -2.21875 C 6.546875 -2.019531 6.671875 -1.835938 6.765625 -1.671875 C 6.984375 -1.253906 6.925781 -0.921875 6.59375 -0.671875 C 6.34375 -0.460938 6.125 -0.378906 5.9375 -0.421875 C 5.863281 -0.453125 5.785156 -0.492188 5.703125 -0.546875 C 5.628906 -0.609375 5.523438 -0.648438 5.390625 -0.671875 C 4.898438 -0.441406 4.484375 -0.515625 4.140625 -0.890625 C 3.941406 -1.117188 3.78125 -1.332031 3.65625 -1.53125 C 3.53125 -1.738281 3.425781 -1.910156 3.34375 -2.046875 C 3.132812 -2.335938 2.910156 -2.585938 2.671875 -2.796875 C 2.617188 -2.535156 2.554688 -2.21875 2.484375 -1.84375 C 2.421875 -1.351562 2.332031 -0.84375 2.21875 -0.3125 Z M 3.703125 -8.390625 C 3.597656 -7.984375 3.523438 -7.695312 3.484375 -7.53125 C 3.410156 -7.21875 3.320312 -6.875 3.21875 -6.5 C 3.226562 -6.289062 3.238281 -6.144531 3.25 -6.0625 L 3.390625 -6.28125 L 3.578125 -6.421875 C 3.734375 -6.535156 3.867188 -6.640625 3.984375 -6.734375 C 4.109375 -6.828125 4.207031 -6.929688 4.28125 -7.046875 C 4.457031 -7.285156 4.582031 -7.644531 4.65625 -8.125 C 4.644531 -8.207031 4.644531 -8.296875 4.65625 -8.390625 C 4.675781 -8.484375 4.6875 -8.570312 4.6875 -8.65625 C 4.6875 -8.851562 4.582031 -8.976562 4.375 -9.03125 C 4.195312 -9.019531 4.003906 -8.835938 3.796875 -8.484375 C 3.753906 -8.421875 3.722656 -8.390625 3.703125 -8.390625 Z M 3.703125 -8.390625 "/></g></g></g><g fill="rgb(36.079407%, 88.238525%, 90.19928%)" fill-opacity="1"><g transform="translate(22.288312, 27.077404)"><g><path d="M 4.25 -2.6875 C 4.09375 -2.570312 3.9375 -2.476562 3.78125 -2.40625 C 3.632812 -2.34375 3.460938 -2.273438 3.265625 -2.203125 C 2.742188 -1.992188 2.359375 -1.863281 2.109375 -1.8125 C 2.140625 -1.726562 2.285156 -1.644531 2.546875 -1.5625 C 2.703125 -1.5625 2.867188 -1.613281 3.046875 -1.71875 C 3.222656 -1.820312 3.40625 -1.921875 3.59375 -2.015625 C 3.789062 -2.117188 3.988281 -2.191406 4.1875 -2.234375 C 4.382812 -2.273438 4.585938 -2.226562 4.796875 -2.09375 C 4.890625 -1.945312 4.957031 -1.863281 5 -1.84375 C 5.050781 -1.832031 5.09375 -1.828125 5.125 -1.828125 C 5.15625 -1.835938 5.191406 -1.832031 5.234375 -1.8125 C 5.285156 -1.789062 5.367188 -1.703125 5.484375 -1.546875 C 5.597656 -1.390625 5.601562 -1.21875 5.5 -1.03125 C 5.394531 -0.851562 5.222656 -0.6875 4.984375 -0.53125 C 4.742188 -0.375 4.453125 -0.234375 4.109375 -0.109375 C 3.773438 0.00390625 3.429688 0.109375 3.078125 0.203125 C 2.304688 0.390625 1.703125 0.429688 1.265625 0.328125 C 0.648438 0.222656 0.207031 -0.109375 -0.0625 -0.671875 C -0.425781 -1.421875 -0.453125 -2.359375 -0.140625 -3.484375 C -0.015625 -4.015625 0.242188 -4.597656 0.640625 -5.234375 C 0.960938 -5.785156 1.363281 -6.21875 1.84375 -6.53125 C 2.382812 -6.875 2.972656 -7.09375 3.609375 -7.1875 C 4.285156 -7.269531 4.800781 -7.039062 5.15625 -6.5 C 5.34375 -6.21875 5.445312 -5.796875 5.46875 -5.234375 C 5.4375 -4.492188 5.332031 -3.960938 5.15625 -3.640625 C 4.976562 -3.304688 4.675781 -2.988281 4.25 -2.6875 Z M 3.15625 -4.625 C 2.675781 -4.644531 2.351562 -4.320312 2.1875 -3.65625 C 2.144531 -3.46875 2.117188 -3.289062 2.109375 -3.125 C 2.390625 -3.125 2.675781 -3.332031 2.96875 -3.75 C 3.050781 -3.914062 3.113281 -4.082031 3.15625 -4.25 C 3.195312 -4.414062 3.195312 -4.539062 3.15625 -4.625 Z M 3.15625 -4.625 "/></g></g></g><g fill="rgb(36.079407%, 88.238525%, 90.19928%)" fill-opacity="1"><g transform="translate(28.354264, 26.085862)"><g><path d="M 2.265625 -5.859375 C 2.609375 -6.585938 3.15625 -7.078125 3.90625 -7.328125 C 4.144531 -7.410156 4.445312 -7.492188 4.8125 -7.578125 C 5.1875 -7.660156 5.519531 -7.628906 5.8125 -7.484375 C 6.113281 -7.347656 6.351562 -7.144531 6.53125 -6.875 C 6.832031 -6.394531 6.972656 -5.769531 6.953125 -5 C 6.929688 -4.570312 6.894531 -4.101562 6.84375 -3.59375 C 6.800781 -3.09375 6.695312 -2.578125 6.53125 -2.046875 C 6.375 -1.523438 6.132812 -1.023438 5.8125 -0.546875 C 5.488281 -0.0664062 5.03125 0.347656 4.4375 0.703125 C 4.09375 0.910156 3.773438 1.019531 3.484375 1.03125 C 3.191406 1.039062 2.96875 1.015625 2.8125 0.953125 C 2.65625 0.890625 2.539062 0.789062 2.46875 0.65625 C 2.375 1.175781 2.296875 1.703125 2.234375 2.234375 C 2.171875 2.773438 2.046875 3.296875 1.859375 3.796875 C 1.703125 3.941406 1.5 4.0625 1.25 4.15625 C 1.007812 4.257812 0.757812 4.289062 0.5 4.25 C 0.238281 4.207031 0.0390625 4.085938 -0.09375 3.890625 C -0.238281 3.691406 -0.332031 3.460938 -0.375 3.203125 C -0.425781 2.867188 -0.410156 2.445312 -0.328125 1.9375 C -0.203125 1.164062 -0.09375 0.570312 0 0.15625 C 0.0820312 -0.257812 0.132812 -0.523438 0.15625 -0.640625 C 0.1875 -0.765625 0.210938 -0.898438 0.234375 -1.046875 C 0.335938 -1.585938 0.410156 -2.023438 0.453125 -2.359375 C 0.492188 -2.691406 0.535156 -2.976562 0.578125 -3.21875 C 0.597656 -3.632812 0.664062 -4.070312 0.78125 -4.53125 C 0.894531 -4.988281 0.976562 -5.273438 1.03125 -5.390625 C 1.164062 -5.554688 1.304688 -5.664062 1.453125 -5.71875 C 1.609375 -5.78125 1.785156 -5.832031 1.984375 -5.875 L 2.015625 -5.875 Z M 3.625 -3.828125 C 3.5625 -3.640625 3.414062 -3.445312 3.1875 -3.25 L 3.109375 -2.953125 C 3.066406 -2.703125 3.023438 -2.453125 2.984375 -2.203125 C 2.941406 -1.960938 2.890625 -1.71875 2.828125 -1.46875 C 2.929688 -1.40625 3.007812 -1.332031 3.0625 -1.25 C 3.476562 -1.769531 3.832031 -2.410156 4.125 -3.171875 C 4.238281 -3.492188 4.296875 -3.800781 4.296875 -4.09375 C 4.296875 -4.382812 4.273438 -4.566406 4.234375 -4.640625 C 4.203125 -4.710938 4.15625 -4.742188 4.09375 -4.734375 C 4.039062 -4.734375 3.988281 -4.710938 3.9375 -4.671875 C 3.882812 -4.628906 3.84375 -4.585938 3.8125 -4.546875 C 3.78125 -4.515625 3.78125 -4.515625 3.8125 -4.546875 C 3.738281 -4.421875 3.6875 -4.3125 3.65625 -4.21875 C 3.632812 -4.125 3.625 -3.992188 3.625 -3.828125 Z M 3.625 -3.828125 "/></g></g></g><g fill="rgb(36.079407%, 88.238525%, 90.19928%)" fill-opacity="1"><g transform="translate(35.805997, 24.8678)"><g><path d="M 0.921875 -5.875 C 1.085938 -6.039062 1.3125 -6.109375 1.59375 -6.078125 C 1.644531 -6.078125 1.695312 -6.082031 1.75 -6.09375 C 1.875 -6.519531 2.164062 -6.78125 2.625 -6.875 C 2.75 -6.90625 2.914062 -6.957031 3.125 -7.03125 C 3.34375 -7.101562 3.609375 -7.132812 3.921875 -7.125 C 4.242188 -7.125 4.535156 -7.078125 4.796875 -6.984375 C 5.347656 -6.796875 5.71875 -6.445312 5.90625 -5.9375 C 6.238281 -5.195312 6.347656 -4.351562 6.234375 -3.40625 C 6.109375 -2.351562 5.753906 -1.472656 5.171875 -0.765625 C 4.898438 -0.429688 4.597656 -0.195312 4.265625 -0.0625 C 3.929688 0.0625 3.625 0.148438 3.34375 0.203125 C 3.0625 0.253906 2.804688 0.296875 2.578125 0.328125 C 2.347656 0.359375 2.113281 0.367188 1.875 0.359375 C 1.394531 0.359375 0.972656 0.207031 0.609375 -0.09375 C 0.191406 -0.4375 -0.0546875 -1.023438 -0.140625 -1.859375 C -0.222656 -2.597656 -0.160156 -3.367188 0.046875 -4.171875 C 0.265625 -4.972656 0.554688 -5.539062 0.921875 -5.875 Z M 3.640625 -3.625 C 3.441406 -3.53125 3.242188 -3.472656 3.046875 -3.453125 C 2.972656 -3.328125 2.90625 -3.203125 2.84375 -3.078125 C 2.78125 -2.960938 2.695312 -2.847656 2.59375 -2.734375 C 2.5 -2.617188 2.453125 -2.570312 2.453125 -2.59375 C 2.328125 -2.363281 2.234375 -2.128906 2.171875 -1.890625 C 2.117188 -1.648438 2.15625 -1.421875 2.28125 -1.203125 C 2.632812 -1.234375 2.890625 -1.285156 3.046875 -1.359375 C 3.203125 -1.441406 3.34375 -1.566406 3.46875 -1.734375 C 3.59375 -1.910156 3.675781 -2.113281 3.71875 -2.34375 C 3.8125 -2.726562 3.785156 -3.15625 3.640625 -3.625 Z M 3.640625 -3.625 "/></g></g></g><g fill="rgb(36.079407%, 88.238525%, 90.19928%)" fill-opacity="1"><g transform="translate(42.421031, 23.786506)"><g><path d="M 0.46875 -5.625 C 0.539062 -5.96875 0.671875 -6.238281 0.859375 -6.4375 C 1.054688 -6.632812 1.253906 -6.769531 1.453125 -6.84375 C 1.660156 -6.914062 1.835938 -6.921875 1.984375 -6.859375 C 2.128906 -6.796875 2.195312 -6.664062 2.1875 -6.46875 C 2.320312 -6.664062 2.535156 -6.851562 2.828125 -7.03125 C 3.117188 -7.21875 3.351562 -7.351562 3.53125 -7.4375 C 3.707031 -7.519531 3.863281 -7.570312 4 -7.59375 C 4.28125 -7.632812 4.382812 -7.5 4.3125 -7.1875 C 4.46875 -7.175781 4.59375 -7.09375 4.6875 -6.9375 C 4.789062 -6.78125 4.832031 -6.597656 4.8125 -6.390625 C 4.789062 -6.191406 4.703125 -5.976562 4.546875 -5.75 C 4.398438 -5.53125 4.175781 -5.359375 3.875 -5.234375 C 3.570312 -5.109375 3.335938 -4.90625 3.171875 -4.625 C 3.015625 -4.351562 2.890625 -4.019531 2.796875 -3.625 C 2.628906 -2.957031 2.535156 -2.046875 2.515625 -0.890625 C 2.515625 -0.460938 2.289062 -0.0664062 1.84375 0.296875 C 1.40625 0.640625 0.988281 0.785156 0.59375 0.734375 C 0.125 0.679688 -0.128906 0.382812 -0.171875 -0.15625 C -0.222656 -0.519531 -0.191406 -1.03125 -0.078125 -1.6875 C 0.0351562 -2.351562 0.117188 -2.851562 0.171875 -3.1875 C 0.234375 -3.53125 0.269531 -3.789062 0.28125 -3.96875 Z M 0.46875 -5.625 "/></g></g></g><g fill="rgb(36.079407%, 88.238525%, 90.19928%)" fill-opacity="1"><g transform="translate(47.375737, 22.976608)"><g><path d="M 1.953125 -10.359375 L 1.953125 -10.421875 L 2.046875 -10.546875 C 2.109375 -10.785156 2.195312 -10.941406 2.3125 -11.015625 C 2.363281 -11.035156 2.429688 -11.066406 2.515625 -11.109375 C 2.609375 -11.148438 2.722656 -11.238281 2.859375 -11.375 C 2.898438 -11.5 3.019531 -11.570312 3.21875 -11.59375 C 3.414062 -11.613281 3.613281 -11.582031 3.8125 -11.5 C 4.019531 -11.425781 4.195312 -11.300781 4.34375 -11.125 C 4.5 -10.957031 4.5625 -10.765625 4.53125 -10.546875 C 4.5 -10.335938 4.472656 -10.175781 4.453125 -10.0625 C 4.429688 -9.957031 4.40625 -9.859375 4.375 -9.765625 C 4.351562 -9.671875 4.320312 -9.566406 4.28125 -9.453125 C 4.25 -9.335938 4.195312 -9.175781 4.125 -8.96875 L 3.859375 -8.015625 C 3.835938 -7.890625 3.8125 -7.8125 3.78125 -7.78125 C 3.75 -7.757812 3.726562 -7.726562 3.71875 -7.6875 C 3.789062 -7.71875 3.851562 -7.738281 3.90625 -7.75 C 3.957031 -7.769531 4.007812 -7.785156 4.0625 -7.796875 C 4.175781 -7.835938 4.3125 -7.882812 4.46875 -7.9375 C 4.5625 -7.925781 4.644531 -7.925781 4.71875 -7.9375 L 4.90625 -7.96875 C 5.007812 -7.988281 5.140625 -7.984375 5.296875 -7.953125 C 5.453125 -7.921875 5.5625 -7.835938 5.625 -7.703125 C 5.6875 -7.578125 5.710938 -7.4375 5.703125 -7.28125 C 5.691406 -7.132812 5.644531 -6.988281 5.5625 -6.84375 C 5.476562 -6.695312 5.359375 -6.609375 5.203125 -6.578125 C 4.472656 -6.253906 3.945312 -6.054688 3.625 -5.984375 L 3.5625 -5.875 L 3.5625 -5.859375 C 3.507812 -5.640625 3.460938 -5.363281 3.421875 -5.03125 C 3.378906 -4.695312 3.328125 -4.332031 3.265625 -3.9375 C 3.203125 -3.550781 3.140625 -3.148438 3.078125 -2.734375 C 3.023438 -2.316406 2.957031 -1.910156 2.875 -1.515625 C 2.675781 -0.222656 2.484375 0.492188 2.296875 0.640625 C 2.234375 0.679688 2.164062 0.710938 2.09375 0.734375 C 2.019531 0.765625 1.976562 0.78125 1.96875 0.78125 C 1.664062 0.820312 1.40625 0.800781 1.1875 0.71875 C 0.96875 0.644531 0.816406 0.566406 0.734375 0.484375 C 0.660156 0.410156 0.628906 0.3125 0.640625 0.1875 C 0.546875 -1.363281 0.609375 -3.082031 0.828125 -4.96875 C 0.648438 -4.9375 0.523438 -4.898438 0.453125 -4.859375 C 0.328125 -4.765625 0.175781 -4.695312 0 -4.65625 L -0.015625 -4.65625 C -0.148438 -4.632812 -0.28125 -4.675781 -0.40625 -4.78125 C -0.539062 -4.894531 -0.632812 -5.023438 -0.6875 -5.171875 C -0.738281 -5.316406 -0.738281 -5.484375 -0.6875 -5.671875 C -0.644531 -5.859375 -0.515625 -6.015625 -0.296875 -6.140625 C -0.0234375 -6.273438 0.171875 -6.378906 0.296875 -6.453125 C 0.523438 -6.597656 0.71875 -6.703125 0.875 -6.765625 C 1.039062 -6.828125 1.132812 -6.867188 1.15625 -6.890625 C 1.175781 -6.910156 1.191406 -6.925781 1.203125 -6.9375 C 1.222656 -6.945312 1.285156 -6.960938 1.390625 -6.984375 C 1.398438 -7.253906 1.410156 -7.519531 1.421875 -7.78125 C 1.441406 -8.050781 1.46875 -8.332031 1.5 -8.625 C 1.5625 -9.269531 1.710938 -9.847656 1.953125 -10.359375 Z M 1.953125 -10.359375 "/></g></g></g><g fill="rgb(36.079407%, 88.238525%, 90.19928%)" fill-opacity="1"><g transform="translate(52.840308, 22.083368)"><g><path d="M 4.25 -2.6875 C 4.09375 -2.570312 3.9375 -2.476562 3.78125 -2.40625 C 3.632812 -2.34375 3.460938 -2.273438 3.265625 -2.203125 C 2.742188 -1.992188 2.359375 -1.863281 2.109375 -1.8125 C 2.140625 -1.726562 2.285156 -1.644531 2.546875 -1.5625 C 2.703125 -1.5625 2.867188 -1.613281 3.046875 -1.71875 C 3.222656 -1.820312 3.40625 -1.921875 3.59375 -2.015625 C 3.789062 -2.117188 3.988281 -2.191406 4.1875 -2.234375 C 4.382812 -2.273438 4.585938 -2.226562 4.796875 -2.09375 C 4.890625 -1.945312 4.957031 -1.863281 5 -1.84375 C 5.050781 -1.832031 5.09375 -1.828125 5.125 -1.828125 C 5.15625 -1.835938 5.191406 -1.832031 5.234375 -1.8125 C 5.285156 -1.789062 5.367188 -1.703125 5.484375 -1.546875 C 5.597656 -1.390625 5.601562 -1.21875 5.5 -1.03125 C 5.394531 -0.851562 5.222656 -0.6875 4.984375 -0.53125 C 4.742188 -0.375 4.453125 -0.234375 4.109375 -0.109375 C 3.773438 0.00390625 3.429688 0.109375 3.078125 0.203125 C 2.304688 0.390625 1.703125 0.429688 1.265625 0.328125 C 0.648438 0.222656 0.207031 -0.109375 -0.0625 -0.671875 C -0.425781 -1.421875 -0.453125 -2.359375 -0.140625 -3.484375 C -0.015625 -4.015625 0.242188 -4.597656 0.640625 -5.234375 C 0.960938 -5.785156 1.363281 -6.21875 1.84375 -6.53125 C 2.382812 -6.875 2.972656 -7.09375 3.609375 -7.1875 C 4.285156 -7.269531 4.800781 -7.039062 5.15625 -6.5 C 5.34375 -6.21875 5.445312 -5.796875 5.46875 -5.234375 C 5.4375 -4.492188 5.332031 -3.960938 5.15625 -3.640625 C 4.976562 -3.304688 4.675781 -2.988281 4.25 -2.6875 Z M 3.15625 -4.625 C 2.675781 -4.644531 2.351562 -4.320312 2.1875 -3.65625 C 2.144531 -3.46875 2.117188 -3.289062 2.109375 -3.125 C 2.390625 -3.125 2.675781 -3.332031 2.96875 -3.75 C 3.050781 -3.914062 3.113281 -4.082031 3.15625 -4.25 C 3.195312 -4.414062 3.195312 -4.539062 3.15625 -4.625 Z M 3.15625 -4.625 "/></g></g></g><g fill="rgb(36.079407%, 88.238525%, 90.19928%)" fill-opacity="1"><g transform="translate(58.906259, 21.091827)"><g><path d="M 0.46875 -5.625 C 0.539062 -5.96875 0.671875 -6.238281 0.859375 -6.4375 C 1.054688 -6.632812 1.253906 -6.769531 1.453125 -6.84375 C 1.660156 -6.914062 1.835938 -6.921875 1.984375 -6.859375 C 2.128906 -6.796875 2.195312 -6.664062 2.1875 -6.46875 C 2.320312 -6.664062 2.535156 -6.851562 2.828125 -7.03125 C 3.117188 -7.21875 3.351562 -7.351562 3.53125 -7.4375 C 3.707031 -7.519531 3.863281 -7.570312 4 -7.59375 C 4.28125 -7.632812 4.382812 -7.5 4.3125 -7.1875 C 4.46875 -7.175781 4.59375 -7.09375 4.6875 -6.9375 C 4.789062 -6.78125 4.832031 -6.597656 4.8125 -6.390625 C 4.789062 -6.191406 4.703125 -5.976562 4.546875 -5.75 C 4.398438 -5.53125 4.175781 -5.359375 3.875 -5.234375 C 3.570312 -5.109375 3.335938 -4.90625 3.171875 -4.625 C 3.015625 -4.351562 2.890625 -4.019531 2.796875 -3.625 C 2.628906 -2.957031 2.535156 -2.046875 2.515625 -0.890625 C 2.515625 -0.460938 2.289062 -0.0664062 1.84375 0.296875 C 1.40625 0.640625 0.988281 0.785156 0.59375 0.734375 C 0.125 0.679688 -0.128906 0.382812 -0.171875 -0.15625 C -0.222656 -0.519531 -0.191406 -1.03125 -0.078125 -1.6875 C 0.0351562 -2.351562 0.117188 -2.851562 0.171875 -3.1875 C 0.234375 -3.53125 0.269531 -3.789062 0.28125 -3.96875 Z M 0.46875 -5.625 "/></g></g></g><g fill="rgb(36.079407%, 88.238525%, 90.19928%)" fill-opacity="1"><g transform="translate(10.751518, 42.503491)"><g><path d="M 0.8125 -5.9375 C 0.863281 -6.25 1.101562 -6.492188 1.53125 -6.671875 C 1.90625 -6.847656 2.273438 -6.894531 2.640625 -6.8125 C 3.015625 -6.726562 3.210938 -6.523438 3.234375 -6.203125 C 3.191406 -5.890625 3.132812 -5.5 3.0625 -5.03125 C 3 -4.5625 2.9375 -4.082031 2.875 -3.59375 C 2.726562 -2.363281 2.664062 -1.503906 2.6875 -1.015625 C 2.6875 -0.203125 2.535156 0.257812 2.234375 0.375 C 2.148438 0.394531 2.066406 0.414062 1.984375 0.4375 C 1.804688 0.476562 1.695312 0.550781 1.65625 0.65625 C 1.613281 0.769531 1.535156 0.859375 1.421875 0.921875 C 1.316406 0.992188 1.1875 1.035156 1.03125 1.046875 C 0.882812 1.066406 0.734375 1.054688 0.578125 1.015625 C 0.421875 0.972656 0.285156 0.90625 0.171875 0.8125 C -0.128906 0.5625 -0.25 0.164062 -0.1875 -0.375 C -0.195312 -1.332031 -0.0390625 -2.59375 0.28125 -4.15625 C 0.4375 -4.925781 0.613281 -5.519531 0.8125 -5.9375 Z M 2.9375 -8.3125 C 2.539062 -8.15625 2.195312 -8.125 1.90625 -8.21875 C 1.613281 -8.3125 1.425781 -8.453125 1.34375 -8.640625 C 1.269531 -8.828125 1.304688 -9.046875 1.453125 -9.296875 C 1.585938 -9.578125 1.84375 -9.789062 2.21875 -9.9375 C 2.382812 -9.976562 2.503906 -10.003906 2.578125 -10.015625 C 2.660156 -10.023438 2.765625 -10.023438 2.890625 -10.015625 C 3.179688 -10.035156 3.390625 -9.9375 3.515625 -9.71875 C 3.671875 -9.5625 3.71875 -9.347656 3.65625 -9.078125 C 3.59375 -8.816406 3.351562 -8.5625 2.9375 -8.3125 Z M 2.9375 -8.3125 "/></g></g></g><g fill="rgb(36.079407%, 88.238525%, 90.19928%)" fill-opacity="1"><g transform="translate(14.712644, 41.856005)"><g><path d="M 1.265625 -6.015625 C 1.796875 -6.347656 2.1875 -6.414062 2.4375 -6.21875 C 2.5625 -6.113281 2.640625 -5.957031 2.671875 -5.75 L 2.6875 -5.6875 C 2.945312 -6.101562 3.460938 -6.507812 4.234375 -6.90625 C 5.023438 -7.300781 5.707031 -7.484375 6.28125 -7.453125 C 7.019531 -7.429688 7.492188 -7.03125 7.703125 -6.25 C 7.890625 -5.601562 7.875 -4.738281 7.65625 -3.65625 C 7.582031 -3.363281 7.523438 -3.132812 7.484375 -2.96875 C 7.441406 -2.800781 7.410156 -2.644531 7.390625 -2.5 C 7.304688 -2.25 7.171875 -1.929688 6.984375 -1.546875 C 6.890625 -1.265625 6.707031 -1.023438 6.4375 -0.828125 C 6.164062 -0.640625 5.890625 -0.515625 5.609375 -0.453125 C 5.335938 -0.390625 5.097656 -0.394531 4.890625 -0.46875 C 4.691406 -0.550781 4.613281 -0.71875 4.65625 -0.96875 C 4.769531 -1.53125 4.851562 -2.046875 4.90625 -2.515625 C 4.957031 -2.984375 5.03125 -3.382812 5.125 -3.71875 C 5.1875 -4.1875 5.15625 -4.472656 5.03125 -4.578125 C 4.9375 -4.648438 4.804688 -4.613281 4.640625 -4.46875 C 4.492188 -4.332031 4.394531 -4.1875 4.34375 -4.03125 C 4.207031 -3.894531 3.988281 -3.394531 3.6875 -2.53125 C 3.601562 -2.300781 3.515625 -2.066406 3.421875 -1.828125 C 3.335938 -1.585938 3.257812 -1.367188 3.1875 -1.171875 C 3.113281 -0.984375 3.050781 -0.820312 3 -0.6875 C 2.957031 -0.550781 2.910156 -0.457031 2.859375 -0.40625 C 2.804688 -0.351562 2.757812 -0.316406 2.71875 -0.296875 C 2.6875 -0.285156 2.65625 -0.265625 2.625 -0.234375 C 2.601562 -0.210938 2.597656 -0.15625 2.609375 -0.0625 C 2.597656 0.132812 2.40625 0.316406 2.03125 0.484375 C 1.445312 0.742188 0.890625 0.8125 0.359375 0.6875 C 0.171875 0.632812 0.0234375 0.5625 -0.078125 0.46875 C -0.359375 0.09375 -0.238281 -1.328125 0.28125 -3.796875 C 0.457031 -4.671875 0.582031 -5.195312 0.65625 -5.375 C 0.8125 -5.738281 0.921875 -5.945312 0.984375 -6 C 1.046875 -6.050781 1.140625 -6.054688 1.265625 -6.015625 Z M 1.265625 -6.015625 "/></g></g></g><g fill="rgb(36.079407%, 88.238525%, 90.19928%)" fill-opacity="1"><g transform="translate(23.001075, 40.501176)"><g><path d="M 4.78125 -0.46875 C 4.488281 -0.132812 4.117188 0.140625 3.671875 0.359375 C 3.234375 0.578125 2.78125 0.726562 2.3125 0.8125 C 1.84375 0.90625 1.394531 0.921875 0.96875 0.859375 C 0.539062 0.804688 0.1875 0.675781 -0.09375 0.46875 C -0.425781 0.207031 -0.578125 -0.078125 -0.546875 -0.390625 C -0.515625 -0.515625 -0.445312 -0.617188 -0.34375 -0.703125 C -0.25 -0.785156 -0.117188 -0.828125 0.046875 -0.828125 C 0.148438 -0.828125 0.222656 -0.863281 0.265625 -0.9375 C 0.304688 -1.019531 0.332031 -1.101562 0.34375 -1.1875 C 0.363281 -1.28125 0.390625 -1.363281 0.421875 -1.4375 C 0.453125 -1.519531 0.515625 -1.570312 0.609375 -1.59375 C 2.148438 -1.800781 2.925781 -2.0625 2.9375 -2.375 C 2.8125 -2.457031 2.671875 -2.519531 2.515625 -2.5625 C 2.359375 -2.613281 2.191406 -2.660156 2.015625 -2.703125 C 1.597656 -2.816406 1.3125 -2.96875 1.15625 -3.15625 C 0.96875 -3.207031 0.804688 -3.394531 0.671875 -3.71875 C 0.597656 -3.863281 0.546875 -4.007812 0.515625 -4.15625 C 0.492188 -4.3125 0.503906 -4.460938 0.546875 -4.609375 C 0.460938 -4.953125 0.601562 -5.363281 0.96875 -5.84375 C 1.070312 -5.976562 1.207031 -6.125 1.375 -6.28125 C 1.539062 -6.4375 1.796875 -6.609375 2.140625 -6.796875 C 2.484375 -6.984375 2.832031 -7.128906 3.1875 -7.234375 C 3.539062 -7.347656 3.863281 -7.421875 4.15625 -7.453125 C 4.445312 -7.484375 4.664062 -7.445312 4.8125 -7.34375 C 4.96875 -7.25 5.097656 -7.113281 5.203125 -6.9375 C 5.304688 -6.769531 5.363281 -6.59375 5.375 -6.40625 C 5.363281 -6.007812 5.082031 -5.691406 4.53125 -5.453125 C 3.820312 -5.222656 3.484375 -5.066406 3.515625 -4.984375 C 3.515625 -4.960938 3.488281 -4.9375 3.4375 -4.90625 C 4.1875 -4.5625 4.726562 -4.191406 5.0625 -3.796875 C 5.53125 -3.234375 5.691406 -2.554688 5.546875 -1.765625 C 5.628906 -1.535156 5.46875 -1.195312 5.0625 -0.75 C 4.957031 -0.632812 4.863281 -0.539062 4.78125 -0.46875 Z M 4.78125 -0.46875 "/></g></g></g><g fill="rgb(36.079407%, 88.238525%, 90.19928%)" fill-opacity="1"><g transform="translate(29.380792, 39.458346)"><g><path d="M 2.265625 -5.859375 C 2.609375 -6.585938 3.15625 -7.078125 3.90625 -7.328125 C 4.144531 -7.410156 4.445312 -7.492188 4.8125 -7.578125 C 5.1875 -7.660156 5.519531 -7.628906 5.8125 -7.484375 C 6.113281 -7.347656 6.351562 -7.144531 6.53125 -6.875 C 6.832031 -6.394531 6.972656 -5.769531 6.953125 -5 C 6.929688 -4.570312 6.894531 -4.101562 6.84375 -3.59375 C 6.800781 -3.09375 6.695312 -2.578125 6.53125 -2.046875 C 6.375 -1.523438 6.132812 -1.023438 5.8125 -0.546875 C 5.488281 -0.0664062 5.03125 0.347656 4.4375 0.703125 C 4.09375 0.910156 3.773438 1.019531 3.484375 1.03125 C 3.191406 1.039062 2.96875 1.015625 2.8125 0.953125 C 2.65625 0.890625 2.539062 0.789062 2.46875 0.65625 C 2.375 1.175781 2.296875 1.703125 2.234375 2.234375 C 2.171875 2.773438 2.046875 3.296875 1.859375 3.796875 C 1.703125 3.941406 1.5 4.0625 1.25 4.15625 C 1.007812 4.257812 0.757812 4.289062 0.5 4.25 C 0.238281 4.207031 0.0390625 4.085938 -0.09375 3.890625 C -0.238281 3.691406 -0.332031 3.460938 -0.375 3.203125 C -0.425781 2.867188 -0.410156 2.445312 -0.328125 1.9375 C -0.203125 1.164062 -0.09375 0.570312 0 0.15625 C 0.0820312 -0.257812 0.132812 -0.523438 0.15625 -0.640625 C 0.1875 -0.765625 0.210938 -0.898438 0.234375 -1.046875 C 0.335938 -1.585938 0.410156 -2.023438 0.453125 -2.359375 C 0.492188 -2.691406 0.535156 -2.976562 0.578125 -3.21875 C 0.597656 -3.632812 0.664062 -4.070312 0.78125 -4.53125 C 0.894531 -4.988281 0.976562 -5.273438 1.03125 -5.390625 C 1.164062 -5.554688 1.304688 -5.664062 1.453125 -5.71875 C 1.609375 -5.78125 1.785156 -5.832031 1.984375 -5.875 L 2.015625 -5.875 Z M 3.625 -3.828125 C 3.5625 -3.640625 3.414062 -3.445312 3.1875 -3.25 L 3.109375 -2.953125 C 3.066406 -2.703125 3.023438 -2.453125 2.984375 -2.203125 C 2.941406 -1.960938 2.890625 -1.71875 2.828125 -1.46875 C 2.929688 -1.40625 3.007812 -1.332031 3.0625 -1.25 C 3.476562 -1.769531 3.832031 -2.410156 4.125 -3.171875 C 4.238281 -3.492188 4.296875 -3.800781 4.296875 -4.09375 C 4.296875 -4.382812 4.273438 -4.566406 4.234375 -4.640625 C 4.203125 -4.710938 4.15625 -4.742188 4.09375 -4.734375 C 4.039062 -4.734375 3.988281 -4.710938 3.9375 -4.671875 C 3.882812 -4.628906 3.84375 -4.585938 3.8125 -4.546875 C 3.78125 -4.515625 3.78125 -4.515625 3.8125 -4.546875 C 3.738281 -4.421875 3.6875 -4.3125 3.65625 -4.21875 C 3.632812 -4.125 3.625 -3.992188 3.625 -3.828125 Z M 3.625 -3.828125 "/></g></g></g><g fill="rgb(36.079407%, 88.238525%, 90.19928%)" fill-opacity="1"><g transform="translate(36.832524, 38.240285)"><g><path d="M 0.8125 -5.9375 C 0.863281 -6.25 1.101562 -6.492188 1.53125 -6.671875 C 1.90625 -6.847656 2.273438 -6.894531 2.640625 -6.8125 C 3.015625 -6.726562 3.210938 -6.523438 3.234375 -6.203125 C 3.191406 -5.890625 3.132812 -5.5 3.0625 -5.03125 C 3 -4.5625 2.9375 -4.082031 2.875 -3.59375 C 2.726562 -2.363281 2.664062 -1.503906 2.6875 -1.015625 C 2.6875 -0.203125 2.535156 0.257812 2.234375 0.375 C 2.148438 0.394531 2.066406 0.414062 1.984375 0.4375 C 1.804688 0.476562 1.695312 0.550781 1.65625 0.65625 C 1.613281 0.769531 1.535156 0.859375 1.421875 0.921875 C 1.316406 0.992188 1.1875 1.035156 1.03125 1.046875 C 0.882812 1.066406 0.734375 1.054688 0.578125 1.015625 C 0.421875 0.972656 0.285156 0.90625 0.171875 0.8125 C -0.128906 0.5625 -0.25 0.164062 -0.1875 -0.375 C -0.195312 -1.332031 -0.0390625 -2.59375 0.28125 -4.15625 C 0.4375 -4.925781 0.613281 -5.519531 0.8125 -5.9375 Z M 2.9375 -8.3125 C 2.539062 -8.15625 2.195312 -8.125 1.90625 -8.21875 C 1.613281 -8.3125 1.425781 -8.453125 1.34375 -8.640625 C 1.269531 -8.828125 1.304688 -9.046875 1.453125 -9.296875 C 1.585938 -9.578125 1.84375 -9.789062 2.21875 -9.9375 C 2.382812 -9.976562 2.503906 -10.003906 2.578125 -10.015625 C 2.660156 -10.023438 2.765625 -10.023438 2.890625 -10.015625 C 3.179688 -10.035156 3.390625 -9.9375 3.515625 -9.71875 C 3.671875 -9.5625 3.71875 -9.347656 3.65625 -9.078125 C 3.59375 -8.816406 3.351562 -8.5625 2.9375 -8.3125 Z M 2.9375 -8.3125 "/></g></g></g><g fill="rgb(36.079407%, 88.238525%, 90.19928%)" fill-opacity="1"><g transform="translate(40.79365, 37.592798)"><g><path d="M 0.46875 -5.625 C 0.539062 -5.96875 0.671875 -6.238281 0.859375 -6.4375 C 1.054688 -6.632812 1.253906 -6.769531 1.453125 -6.84375 C 1.660156 -6.914062 1.835938 -6.921875 1.984375 -6.859375 C 2.128906 -6.796875 2.195312 -6.664062 2.1875 -6.46875 C 2.320312 -6.664062 2.535156 -6.851562 2.828125 -7.03125 C 3.117188 -7.21875 3.351562 -7.351562 3.53125 -7.4375 C 3.707031 -7.519531 3.863281 -7.570312 4 -7.59375 C 4.28125 -7.632812 4.382812 -7.5 4.3125 -7.1875 C 4.46875 -7.175781 4.59375 -7.09375 4.6875 -6.9375 C 4.789062 -6.78125 4.832031 -6.597656 4.8125 -6.390625 C 4.789062 -6.191406 4.703125 -5.976562 4.546875 -5.75 C 4.398438 -5.53125 4.175781 -5.359375 3.875 -5.234375 C 3.570312 -5.109375 3.335938 -4.90625 3.171875 -4.625 C 3.015625 -4.351562 2.890625 -4.019531 2.796875 -3.625 C 2.628906 -2.957031 2.535156 -2.046875 2.515625 -0.890625 C 2.515625 -0.460938 2.289062 -0.0664062 1.84375 0.296875 C 1.40625 0.640625 0.988281 0.785156 0.59375 0.734375 C 0.125 0.679688 -0.128906 0.382812 -0.171875 -0.15625 C -0.222656 -0.519531 -0.191406 -1.03125 -0.078125 -1.6875 C 0.0351562 -2.351562 0.117188 -2.851562 0.171875 -3.1875 C 0.234375 -3.53125 0.269531 -3.789062 0.28125 -3.96875 Z M 0.46875 -5.625 "/></g></g></g><g fill="rgb(36.079407%, 88.238525%, 90.19928%)" fill-opacity="1"><g transform="translate(45.748355, 36.782901)"><g><path d="M 5.0625 -6.59375 L 5.125 -6.578125 C 5.132812 -6.578125 5.144531 -6.570312 5.15625 -6.5625 C 5.375 -6.695312 5.570312 -6.660156 5.75 -6.453125 C 5.863281 -6.335938 5.972656 -6.128906 6.078125 -5.828125 C 6.160156 -5.421875 6.210938 -4.828125 6.234375 -4.046875 C 6.273438 -2.523438 6.316406 -1.625 6.359375 -1.34375 C 6.421875 -1.03125 6.265625 -0.785156 5.890625 -0.609375 C 5.554688 -0.453125 5.210938 -0.398438 4.859375 -0.453125 C 4.472656 -0.523438 4.296875 -0.691406 4.328125 -0.953125 C 4.273438 -0.816406 4.21875 -0.710938 4.15625 -0.640625 C 4.101562 -0.566406 3.984375 -0.460938 3.796875 -0.328125 C 3.609375 -0.191406 3.332031 -0.0625 2.96875 0.0625 C 2.601562 0.1875 2.226562 0.265625 1.84375 0.296875 C 1.46875 0.335938 1.113281 0.300781 0.78125 0.1875 C 0.445312 0.0820312 0.203125 -0.117188 0.046875 -0.421875 C -0.265625 -1.015625 -0.367188 -1.816406 -0.265625 -2.828125 C -0.191406 -3.492188 0.0234375 -4.109375 0.390625 -4.671875 C 0.816406 -5.304688 1.335938 -5.863281 1.953125 -6.34375 C 2.398438 -6.695312 2.851562 -6.9375 3.3125 -7.0625 C 3.457031 -7.113281 3.59375 -7.132812 3.71875 -7.125 C 3.84375 -7.125 3.972656 -7.117188 4.109375 -7.109375 C 4.242188 -7.109375 4.378906 -7.09375 4.515625 -7.0625 C 4.847656 -6.976562 5.03125 -6.820312 5.0625 -6.59375 Z M 3.234375 -2.71875 C 3.265625 -2.851562 3.285156 -3.019531 3.296875 -3.21875 C 3.304688 -3.414062 3.328125 -3.625 3.359375 -3.84375 C 2.703125 -3.445312 2.222656 -3.003906 1.921875 -2.515625 C 1.585938 -1.984375 1.664062 -1.671875 2.15625 -1.578125 C 2.5625 -1.535156 2.835938 -1.648438 2.984375 -1.921875 C 3.046875 -2.035156 3.09375 -2.175781 3.125 -2.34375 C 3.164062 -2.507812 3.21875 -2.679688 3.28125 -2.859375 C 3.257812 -2.804688 3.242188 -2.757812 3.234375 -2.71875 Z M 3.234375 -2.71875 "/></g></g></g><g fill="rgb(36.079407%, 88.238525%, 90.19928%)" fill-opacity="1"><g transform="translate(52.520272, 35.675962)"><g><path d="M 1.265625 -6.015625 C 1.796875 -6.347656 2.1875 -6.414062 2.4375 -6.21875 C 2.5625 -6.113281 2.640625 -5.957031 2.671875 -5.75 L 2.6875 -5.6875 C 2.945312 -6.101562 3.460938 -6.507812 4.234375 -6.90625 C 5.023438 -7.300781 5.707031 -7.484375 6.28125 -7.453125 C 7.019531 -7.429688 7.492188 -7.03125 7.703125 -6.25 C 7.890625 -5.601562 7.875 -4.738281 7.65625 -3.65625 C 7.582031 -3.363281 7.523438 -3.132812 7.484375 -2.96875 C 7.441406 -2.800781 7.410156 -2.644531 7.390625 -2.5 C 7.304688 -2.25 7.171875 -1.929688 6.984375 -1.546875 C 6.890625 -1.265625 6.707031 -1.023438 6.4375 -0.828125 C 6.164062 -0.640625 5.890625 -0.515625 5.609375 -0.453125 C 5.335938 -0.390625 5.097656 -0.394531 4.890625 -0.46875 C 4.691406 -0.550781 4.613281 -0.71875 4.65625 -0.96875 C 4.769531 -1.53125 4.851562 -2.046875 4.90625 -2.515625 C 4.957031 -2.984375 5.03125 -3.382812 5.125 -3.71875 C 5.1875 -4.1875 5.15625 -4.472656 5.03125 -4.578125 C 4.9375 -4.648438 4.804688 -4.613281 4.640625 -4.46875 C 4.492188 -4.332031 4.394531 -4.1875 4.34375 -4.03125 C 4.207031 -3.894531 3.988281 -3.394531 3.6875 -2.53125 C 3.601562 -2.300781 3.515625 -2.066406 3.421875 -1.828125 C 3.335938 -1.585938 3.257812 -1.367188 3.1875 -1.171875 C 3.113281 -0.984375 3.050781 -0.820312 3 -0.6875 C 2.957031 -0.550781 2.910156 -0.457031 2.859375 -0.40625 C 2.804688 -0.351562 2.757812 -0.316406 2.71875 -0.296875 C 2.6875 -0.285156 2.65625 -0.265625 2.625 -0.234375 C 2.601562 -0.210938 2.597656 -0.15625 2.609375 -0.0625 C 2.597656 0.132812 2.40625 0.316406 2.03125 0.484375 C 1.445312 0.742188 0.890625 0.8125 0.359375 0.6875 C 0.171875 0.632812 0.0234375 0.5625 -0.078125 0.46875 C -0.359375 0.09375 -0.238281 -1.328125 0.28125 -3.796875 C 0.457031 -4.671875 0.582031 -5.195312 0.65625 -5.375 C 0.8125 -5.738281 0.921875 -5.945312 0.984375 -6 C 1.046875 -6.050781 1.140625 -6.054688 1.265625 -6.015625 Z M 1.265625 -6.015625 "/></g></g></g><g fill="rgb(36.079407%, 88.238525%, 90.19928%)" fill-opacity="1"><g transform="translate(60.808705, 34.321133)"><g><path d="M 1.953125 -10.359375 L 1.953125 -10.421875 L 2.046875 -10.546875 C 2.109375 -10.785156 2.195312 -10.941406 2.3125 -11.015625 C 2.363281 -11.035156 2.429688 -11.066406 2.515625 -11.109375 C 2.609375 -11.148438 2.722656 -11.238281 2.859375 -11.375 C 2.898438 -11.5 3.019531 -11.570312 3.21875 -11.59375 C 3.414062 -11.613281 3.613281 -11.582031 3.8125 -11.5 C 4.019531 -11.425781 4.195312 -11.300781 4.34375 -11.125 C 4.5 -10.957031 4.5625 -10.765625 4.53125 -10.546875 C 4.5 -10.335938 4.472656 -10.175781 4.453125 -10.0625 C 4.429688 -9.957031 4.40625 -9.859375 4.375 -9.765625 C 4.351562 -9.671875 4.320312 -9.566406 4.28125 -9.453125 C 4.25 -9.335938 4.195312 -9.175781 4.125 -8.96875 L 3.859375 -8.015625 C 3.835938 -7.890625 3.8125 -7.8125 3.78125 -7.78125 C 3.75 -7.757812 3.726562 -7.726562 3.71875 -7.6875 C 3.789062 -7.71875 3.851562 -7.738281 3.90625 -7.75 C 3.957031 -7.769531 4.007812 -7.785156 4.0625 -7.796875 C 4.175781 -7.835938 4.3125 -7.882812 4.46875 -7.9375 C 4.5625 -7.925781 4.644531 -7.925781 4.71875 -7.9375 L 4.90625 -7.96875 C 5.007812 -7.988281 5.140625 -7.984375 5.296875 -7.953125 C 5.453125 -7.921875 5.5625 -7.835938 5.625 -7.703125 C 5.6875 -7.578125 5.710938 -7.4375 5.703125 -7.28125 C 5.691406 -7.132812 5.644531 -6.988281 5.5625 -6.84375 C 5.476562 -6.695312 5.359375 -6.609375 5.203125 -6.578125 C 4.472656 -6.253906 3.945312 -6.054688 3.625 -5.984375 L 3.5625 -5.875 L 3.5625 -5.859375 C 3.507812 -5.640625 3.460938 -5.363281 3.421875 -5.03125 C 3.378906 -4.695312 3.328125 -4.332031 3.265625 -3.9375 C 3.203125 -3.550781 3.140625 -3.148438 3.078125 -2.734375 C 3.023438 -2.316406 2.957031 -1.910156 2.875 -1.515625 C 2.675781 -0.222656 2.484375 0.492188 2.296875 0.640625 C 2.234375 0.679688 2.164062 0.710938 2.09375 0.734375 C 2.019531 0.765625 1.976562 0.78125 1.96875 0.78125 C 1.664062 0.820312 1.40625 0.800781 1.1875 0.71875 C 0.96875 0.644531 0.816406 0.566406 0.734375 0.484375 C 0.660156 0.410156 0.628906 0.3125 0.640625 0.1875 C 0.546875 -1.363281 0.609375 -3.082031 0.828125 -4.96875 C 0.648438 -4.9375 0.523438 -4.898438 0.453125 -4.859375 C 0.328125 -4.765625 0.175781 -4.695312 0 -4.65625 L -0.015625 -4.65625 C -0.148438 -4.632812 -0.28125 -4.675781 -0.40625 -4.78125 C -0.539062 -4.894531 -0.632812 -5.023438 -0.6875 -5.171875 C -0.738281 -5.316406 -0.738281 -5.484375 -0.6875 -5.671875 C -0.644531 -5.859375 -0.515625 -6.015625 -0.296875 -6.140625 C -0.0234375 -6.273438 0.171875 -6.378906 0.296875 -6.453125 C 0.523438 -6.597656 0.71875 -6.703125 0.875 -6.765625 C 1.039062 -6.828125 1.132812 -6.867188 1.15625 -6.890625 C 1.175781 -6.910156 1.191406 -6.925781 1.203125 -6.9375 C 1.222656 -6.945312 1.285156 -6.960938 1.390625 -6.984375 C 1.398438 -7.253906 1.410156 -7.519531 1.421875 -7.78125 C 1.441406 -8.050781 1.46875 -8.332031 1.5 -8.625 C 1.5625 -9.269531 1.710938 -9.847656 1.953125 -10.359375 Z M 1.953125 -10.359375 "/></g></g></g><g fill="rgb(36.079407%, 88.238525%, 90.19928%)" fill-opacity="1"><g transform="translate(66.273276, 33.427893)"><g><path d="M 4.25 -2.6875 C 4.09375 -2.570312 3.9375 -2.476562 3.78125 -2.40625 C 3.632812 -2.34375 3.460938 -2.273438 3.265625 -2.203125 C 2.742188 -1.992188 2.359375 -1.863281 2.109375 -1.8125 C 2.140625 -1.726562 2.285156 -1.644531 2.546875 -1.5625 C 2.703125 -1.5625 2.867188 -1.613281 3.046875 -1.71875 C 3.222656 -1.820312 3.40625 -1.921875 3.59375 -2.015625 C 3.789062 -2.117188 3.988281 -2.191406 4.1875 -2.234375 C 4.382812 -2.273438 4.585938 -2.226562 4.796875 -2.09375 C 4.890625 -1.945312 4.957031 -1.863281 5 -1.84375 C 5.050781 -1.832031 5.09375 -1.828125 5.125 -1.828125 C 5.15625 -1.835938 5.191406 -1.832031 5.234375 -1.8125 C 5.285156 -1.789062 5.367188 -1.703125 5.484375 -1.546875 C 5.597656 -1.390625 5.601562 -1.21875 5.5 -1.03125 C 5.394531 -0.851562 5.222656 -0.6875 4.984375 -0.53125 C 4.742188 -0.375 4.453125 -0.234375 4.109375 -0.109375 C 3.773438 0.00390625 3.429688 0.109375 3.078125 0.203125 C 2.304688 0.390625 1.703125 0.429688 1.265625 0.328125 C 0.648438 0.222656 0.207031 -0.109375 -0.0625 -0.671875 C -0.425781 -1.421875 -0.453125 -2.359375 -0.140625 -3.484375 C -0.015625 -4.015625 0.242188 -4.597656 0.640625 -5.234375 C 0.960938 -5.785156 1.363281 -6.21875 1.84375 -6.53125 C 2.382812 -6.875 2.972656 -7.09375 3.609375 -7.1875 C 4.285156 -7.269531 4.800781 -7.039062 5.15625 -6.5 C 5.34375 -6.21875 5.445312 -5.796875 5.46875 -5.234375 C 5.4375 -4.492188 5.332031 -3.960938 5.15625 -3.640625 C 4.976562 -3.304688 4.675781 -2.988281 4.25 -2.6875 Z M 3.15625 -4.625 C 2.675781 -4.644531 2.351562 -4.320312 2.1875 -3.65625 C 2.144531 -3.46875 2.117188 -3.289062 2.109375 -3.125 C 2.390625 -3.125 2.675781 -3.332031 2.96875 -3.75 C 3.050781 -3.914062 3.113281 -4.082031 3.15625 -4.25 C 3.195312 -4.414062 3.195312 -4.539062 3.15625 -4.625 Z M 3.15625 -4.625 "/></g></g></g></svg>