<svg xmlns="http://www.w3.org/2000/svg" xmlns:xlink="http://www.w3.org/1999/xlink" width="247.5" zoomAndPan="magnify" viewBox="0 0 247.5 60" height="60" preserveAspectRatio="xMidYMid meet" version="1.0"><defs><clipPath id="id1"><path d="M 0 0.0585938 L 246 0.0585938 L 246 58 L 0 58 Z M 0 0.0585938 " clip-rule="nonzero"/></clipPath><clipPath id="id2"><path d="M 0 11.335938 L 245.003906 0.347656 L 247.1875 49.046875 L 2.183594 60.039062 Z M 0 11.335938 " clip-rule="nonzero"/></clipPath><clipPath id="id3"><path d="M 0 11.335938 L 245.003906 0.347656 L 247.1875 49.046875 L 2.183594 60.039062 Z M 0 11.335938 " clip-rule="nonzero"/></clipPath><clipPath id="id4"><path d="M 0 1 L 246 1 L 246 57 L 0 57 Z M 0 1 " clip-rule="nonzero"/></clipPath><clipPath id="id5"><path d="M 0 11.335938 L 245.003906 0.347656 L 247.1875 49.046875 L 2.183594 60.039062 Z M 0 11.335938 " clip-rule="nonzero"/></clipPath><clipPath id="id6"><path d="M 0 11.335938 L 245.003906 0.347656 L 247.1875 49.046875 L 2.183594 60.039062 Z M 0 11.335938 " clip-rule="nonzero"/></clipPath><clipPath id="id7"><path d="M 0 7 L 245 7 L 245 51 L 0 51 Z M 0 7 " clip-rule="nonzero"/></clipPath><clipPath id="id8"><path d="M 0 11.335938 L 245.003906 0.347656 L 247.1875 49.046875 L 2.183594 60.039062 Z M 0 11.335938 " clip-rule="nonzero"/></clipPath><clipPath id="id9"><path d="M 0 11.335938 L 245.003906 0.347656 L 247.1875 49.046875 L 2.183594 60.039062 Z M 0 11.335938 " clip-rule="nonzero"/></clipPath></defs><g clip-path="url(#id1)"><g clip-path="url(#id2)"><g clip-path="url(#id3)"><path fill="rgb(93.728638%, 17.248535%, 37.249756%)" d="M 61.0625 57.394531 C 58.722656 57.5 56.421875 57.359375 54.152344 56.917969 C 43.558594 54.984375 36.25 47.835938 29.195312 40.917969 C 20.8125 32.6875 13.605469 25.632812 1.265625 26.183594 L 0.597656 11.308594 C 19.328125 10.46875 30.519531 21.429688 39.519531 30.273438 C 45.496094 36.105469 50.660156 41.1875 56.820312 42.335938 C 63.917969 43.640625 73.128906 39.785156 84.972656 30.449219 C 98.476562 19.90625 111.789062 14.882812 125.730469 15.191406 C 137.714844 15.441406 148.214844 19.59375 157.464844 23.210938 C 170.25 28.246094 178.539062 31.121094 186.855469 26.910156 C 194.117188 23.242188 200.25 19.375 206.144531 15.667969 C 218.644531 7.824219 229.433594 1.046875 244.453125 0.371094 L 245.121094 15.246094 C 234 15.746094 225.160156 21.308594 213.992188 28.351562 C 208.101562 32.058594 201.351562 36.296875 193.464844 40.289062 C 178.84375 47.6875 165.210938 42.296875 152.078125 37.128906 C 134.46875 30.195312 117.800781 23.613281 94.054688 42.242188 C 81.496094 52.003906 70.820312 56.957031 61.0625 57.394531 Z M 61.0625 57.394531 " fill-opacity="1" fill-rule="nonzero"/></g></g></g><g clip-path="url(#id4)"><g clip-path="url(#id5)"><g clip-path="url(#id6)"><path fill="rgb(93.728638%, 17.248535%, 37.249756%)" d="M 212.992188 26.722656 C 224.398438 19.523438 233.429688 13.851562 245.035156 13.332031 L 245.078125 14.3125 C 233.714844 14.824219 224.78125 20.4375 213.46875 27.539062 C 207.574219 31.246094 200.875 35.480469 193.035156 39.425781 C 178.796875 46.605469 165.410156 41.304688 152.425781 36.179688 C 134.515625 29.113281 117.652344 22.441406 93.433594 41.433594 C 81.015625 51.140625 70.53125 56.035156 60.972656 56.464844 C 58.679688 56.570312 56.476562 56.421875 54.257812 56.027344 C 43.960938 54.128906 36.753906 47.074219 29.800781 40.253906 C 21.625 32.257812 13.902344 24.683594 1.175781 25.253906 L 1.132812 24.273438 C 14.300781 23.679688 22.171875 31.394531 30.503906 39.582031 C 37.355469 46.308594 44.457031 53.222656 54.460938 55.085938 C 56.582031 55.480469 58.738281 55.632812 60.980469 55.53125 C 70.34375 55.109375 80.632812 50.269531 92.863281 40.71875 C 117.457031 21.414062 135.417969 28.53125 152.78125 35.328125 C 165.566406 40.363281 178.75 45.574219 192.605469 38.558594 C 200.445312 34.617188 207.097656 30.382812 212.992188 26.722656 Z M 206.671875 16.527344 C 200.730469 20.289062 194.597656 24.105469 187.285156 27.828125 C 178.589844 32.203125 170.152344 29.285156 157.117188 24.164062 C 147.914062 20.542969 137.515625 16.433594 125.679688 16.175781 C 111.980469 15.90625 98.8125 20.824219 85.546875 31.210938 C 73.460938 40.703125 64.011719 44.621094 56.621094 43.28125 C 50.164062 42.09375 44.898438 36.917969 38.816406 30.992188 C 34.214844 26.476562 29.460938 21.820312 23.484375 18.203125 C 16.398438 13.847656 8.882812 11.921875 0.640625 12.292969 L 0.6875 13.273438 C 8.734375 12.910156 16.050781 14.796875 23.03125 19.011719 C 28.910156 22.535156 33.609375 27.144531 38.164062 31.664062 C 44.347656 37.730469 49.714844 42.949219 56.417969 44.222656 C 64.054688 45.652344 73.796875 41.625 86.117188 31.972656 C 115.671875 8.804688 138.457031 17.816406 156.765625 25.015625 C 168.753906 29.742188 178.207031 33.449219 187.714844 28.644531 C 195.074219 24.921875 201.203125 21.054688 207.144531 17.292969 C 219.457031 9.609375 230.054688 2.9375 244.539062 2.285156 L 244.5 1.355469 C 229.722656 2.015625 219.027344 8.742188 206.671875 16.527344 Z M 206.671875 16.527344 " fill-opacity="1" fill-rule="nonzero"/></g></g></g><g clip-path="url(#id7)"><g clip-path="url(#id8)"><g clip-path="url(#id9)"><path fill="rgb(95.689392%, 96.469116%, 98.81897%)" d="M 243.152344 8.398438 C 242.910156 8.410156 242.65625 8.226562 242.644531 7.980469 C 242.632812 7.734375 242.820312 7.480469 243.0625 7.46875 C 243.597656 7.445312 244.765625 7.34375 244.765625 7.34375 L 244.8125 8.324219 C 244.808594 8.277344 243.6875 8.324219 243.152344 8.398438 Z M 62.117188 50.363281 C 62.359375 50.351562 62.59375 50.097656 62.535156 49.851562 C 62.523438 49.609375 62.269531 49.421875 62.027344 49.433594 C 60.90625 49.53125 59.785156 49.582031 58.757812 49.53125 C 58.511719 49.542969 58.277344 49.75 58.238281 49.996094 C 58.25 50.242188 58.457031 50.480469 58.703125 50.515625 C 59.386719 50.535156 60.023438 50.554688 60.707031 50.523438 C 61.191406 50.453125 61.679688 50.382812 62.117188 50.363281 Z M 66.429688 49.578125 C 67.496094 49.335938 68.605469 48.992188 69.710938 48.597656 C 69.949219 48.488281 70.085938 48.234375 70.027344 47.992188 C 69.917969 47.75 69.667969 47.613281 69.425781 47.675781 C 68.367188 48.066406 67.257812 48.363281 66.242188 48.652344 C 66 48.714844 65.816406 48.96875 65.878906 49.261719 C 65.9375 49.503906 66.140625 49.640625 66.386719 49.632812 C 66.382812 49.582031 66.429688 49.578125 66.429688 49.578125 Z M 54.894531 49.507812 C 54.933594 49.257812 54.773438 48.972656 54.527344 48.933594 C 53.488281 48.683594 52.398438 48.339844 51.402344 47.941406 C 51.15625 47.855469 50.867188 47.964844 50.78125 48.214844 C 50.695312 48.464844 50.804688 48.753906 51.054688 48.84375 C 52.148438 49.285156 53.238281 49.628906 54.324219 49.875 C 54.375 49.875 54.421875 49.871094 54.472656 49.871094 C 54.667969 49.863281 54.855469 49.753906 54.894531 49.507812 Z M 73.742188 46.941406 C 74.746094 46.5 75.75 45.964844 76.800781 45.425781 C 77.039062 45.316406 77.125 45.015625 77.015625 44.777344 C 76.90625 44.535156 76.609375 44.449219 76.371094 44.558594 C 75.367188 45.097656 74.363281 45.582031 73.410156 46.070312 C 73.167969 46.179688 73.085938 46.476562 73.195312 46.71875 C 73.300781 46.910156 73.449219 47.003906 73.644531 46.992188 C 73.644531 46.945312 73.691406 46.941406 73.742188 46.941406 Z M 47.785156 46.777344 C 47.917969 46.523438 47.859375 46.230469 47.609375 46.144531 C 46.703125 45.59375 45.75 44.996094 44.839844 44.300781 C 44.636719 44.164062 44.34375 44.175781 44.160156 44.429688 C 44.023438 44.632812 44.035156 44.925781 44.289062 45.113281 C 45.25 45.808594 46.207031 46.453125 47.160156 47 C 47.257812 47.046875 47.308594 47.09375 47.40625 47.089844 C 47.550781 46.984375 47.691406 46.878906 47.785156 46.777344 Z M 80.5625 43.191406 C 81.511719 42.605469 82.460938 41.972656 83.410156 41.339844 C 83.648438 41.183594 83.683594 40.886719 83.527344 40.695312 C 83.371094 40.457031 83.074219 40.421875 82.886719 40.578125 C 81.9375 41.210938 80.988281 41.84375 80.085938 42.425781 C 79.851562 42.582031 79.8125 42.878906 79.921875 43.070312 C 80.023438 43.214844 80.175781 43.304688 80.371094 43.296875 C 80.417969 43.296875 80.515625 43.242188 80.5625 43.191406 Z M 180.699219 36.78125 C 181.867188 36.679688 182.984375 36.53125 184.097656 36.285156 C 184.339844 36.222656 184.523438 35.96875 184.464844 35.726562 C 184.40625 35.484375 184.152344 35.296875 183.910156 35.359375 C 182.847656 35.601562 181.730469 35.75 180.660156 35.847656 C 180.414062 35.859375 180.183594 36.113281 180.242188 36.359375 C 180.203125 36.605469 180.40625 36.792969 180.699219 36.78125 Z M 176.820312 36.363281 C 176.859375 36.117188 176.652344 35.878906 176.359375 35.84375 C 175.28125 35.792969 174.199219 35.644531 173.066406 35.449219 C 172.820312 35.414062 172.582031 35.570312 172.5 35.871094 C 172.460938 36.117188 172.617188 36.355469 172.914062 36.441406 C 174.046875 36.636719 175.226562 36.78125 176.304688 36.832031 C 176.304688 36.832031 176.351562 36.828125 176.351562 36.828125 C 176.597656 36.816406 176.785156 36.613281 176.820312 36.363281 Z M 41.523438 42.285156 C 41.710938 42.078125 41.648438 41.789062 41.492188 41.597656 C 40.730469 40.941406 39.914062 40.191406 38.996094 39.347656 C 38.792969 39.160156 38.5 39.175781 38.3125 39.378906 C 38.128906 39.585938 38.140625 39.878906 38.34375 40.066406 C 39.261719 40.910156 40.078125 41.660156 40.890625 42.3125 C 40.992188 42.40625 41.089844 42.453125 41.238281 42.445312 C 41.285156 42.441406 41.429688 42.386719 41.523438 42.285156 Z M 188.292969 34.964844 C 189.011719 34.6875 189.679688 34.359375 190.398438 34.035156 C 190.734375 33.871094 191.070312 33.707031 191.402344 33.546875 C 191.644531 33.4375 191.726562 33.136719 191.621094 32.894531 C 191.511719 32.65625 191.214844 32.570312 190.972656 32.679688 C 190.640625 32.84375 190.304688 33.003906 189.96875 33.167969 C 189.300781 33.492188 188.632812 33.816406 187.960938 34.09375 C 187.71875 34.203125 187.585938 34.453125 187.691406 34.695312 C 187.75 34.890625 187.953125 35.027344 188.148438 35.019531 C 188.195312 35.019531 188.246094 35.015625 188.292969 34.964844 Z M 169.242188 35.179688 C 169.328125 34.929688 169.167969 34.640625 168.921875 34.601562 C 167.886719 34.355469 166.84375 34.007812 165.703125 33.664062 C 165.457031 33.578125 165.171875 33.738281 165.082031 33.988281 C 164.996094 34.238281 165.15625 34.527344 165.40625 34.613281 C 166.542969 34.957031 167.632812 35.300781 168.671875 35.550781 C 168.722656 35.546875 168.769531 35.542969 168.820312 35.542969 C 168.964844 35.535156 169.152344 35.378906 169.242188 35.179688 Z M 86.960938 38.820312 C 87.863281 38.191406 88.757812 37.460938 89.65625 36.78125 C 89.84375 36.625 89.878906 36.328125 89.722656 36.089844 C 89.566406 35.898438 89.273438 35.863281 89.035156 36.023438 C 88.136719 36.703125 87.242188 37.429688 86.34375 38.0625 C 86.152344 38.21875 86.070312 38.515625 86.226562 38.753906 C 86.332031 38.898438 86.480469 38.941406 86.625 38.933594 C 86.820312 38.925781 86.871094 38.921875 86.960938 38.820312 Z M 161.859375 32.902344 C 161.945312 32.652344 161.835938 32.363281 161.585938 32.277344 C 160.640625 31.925781 159.597656 31.527344 158.453125 31.089844 C 158.207031 31 157.917969 31.113281 157.832031 31.363281 C 157.746094 31.613281 157.855469 31.902344 158.101562 31.988281 C 159.296875 32.429688 160.292969 32.824219 161.285156 33.175781 C 161.335938 33.222656 161.382812 33.21875 161.480469 33.214844 C 161.628906 33.207031 161.816406 33.050781 161.859375 32.902344 Z M 195.222656 31.503906 C 196.175781 30.96875 197.179688 30.433594 198.179688 29.847656 C 198.417969 29.738281 198.5 29.441406 198.34375 29.199219 C 198.234375 28.960938 197.9375 28.875 197.703125 29.03125 C 196.703125 29.617188 195.699219 30.15625 194.746094 30.691406 C 194.507812 30.800781 194.421875 31.097656 194.578125 31.335938 C 194.683594 31.480469 194.835938 31.570312 195.03125 31.5625 C 195.078125 31.5625 195.171875 31.507812 195.222656 31.503906 Z M 35.8125 37.03125 C 36 36.828125 35.988281 36.53125 35.78125 36.34375 C 35.425781 35.96875 35.015625 35.589844 34.65625 35.214844 C 34.246094 34.789062 33.789062 34.367188 33.378906 33.941406 C 33.175781 33.753906 32.882812 33.769531 32.695312 33.972656 C 32.507812 34.179688 32.523438 34.472656 32.726562 34.660156 C 33.136719 35.085938 33.59375 35.507812 34.003906 35.933594 C 34.363281 36.308594 34.773438 36.683594 35.132812 37.0625 C 35.234375 37.15625 35.382812 37.199219 35.480469 37.195312 C 35.625 37.1875 35.769531 37.132812 35.8125 37.03125 Z M 93.109375 34.214844 C 94.007812 33.585938 94.957031 32.953125 95.859375 32.320312 C 96.097656 32.164062 96.132812 31.867188 96.023438 31.675781 C 95.867188 31.4375 95.574219 31.398438 95.382812 31.507812 C 94.429688 32.089844 93.484375 32.773438 92.585938 33.402344 C 92.347656 33.5625 92.3125 33.859375 92.464844 34.046875 C 92.570312 34.191406 92.71875 34.234375 92.867188 34.226562 C 92.964844 34.269531 93.0625 34.265625 93.109375 34.214844 Z M 154.695312 30.125 C 154.78125 29.875 154.671875 29.585938 154.425781 29.496094 C 153.378906 29.101562 152.332031 28.65625 151.289062 28.261719 C 151.042969 28.175781 150.753906 28.285156 150.667969 28.535156 C 150.582031 28.785156 150.691406 29.074219 150.9375 29.164062 C 151.984375 29.558594 153.03125 30.003906 154.074219 30.398438 C 154.125 30.445312 154.222656 30.441406 154.269531 30.441406 C 154.464844 30.429688 154.605469 30.277344 154.695312 30.125 Z M 201.890625 27.613281 C 202.792969 27.082031 203.746094 26.5 204.792969 25.863281 C 205.027344 25.703125 205.066406 25.40625 204.957031 25.214844 C 204.800781 24.976562 204.507812 24.941406 204.316406 25.046875 C 203.316406 25.679688 202.367188 26.265625 201.460938 26.796875 C 201.226562 26.957031 201.136719 27.207031 201.296875 27.445312 C 201.398438 27.585938 201.550781 27.679688 201.746094 27.671875 C 201.746094 27.71875 201.84375 27.667969 201.890625 27.613281 Z M 99.570312 30.089844 C 100.574219 29.550781 101.527344 29.015625 102.53125 28.53125 C 102.769531 28.421875 102.855469 28.121094 102.746094 27.878906 C 102.636719 27.640625 102.339844 27.554688 102.101562 27.664062 C 101.097656 28.152344 100.09375 28.6875 99.09375 29.273438 C 98.855469 29.382812 98.769531 29.683594 98.925781 29.921875 C 99.03125 30.0625 99.183594 30.15625 99.378906 30.148438 C 99.425781 30.144531 99.523438 30.140625 99.570312 30.089844 Z M 147.484375 27.347656 C 147.574219 27.101562 147.460938 26.808594 147.214844 26.722656 C 146.070312 26.332031 145.027344 25.933594 144.039062 25.636719 C 143.789062 25.546875 143.503906 25.707031 143.417969 25.957031 C 143.328125 26.207031 143.488281 26.496094 143.738281 26.582031 C 144.730469 26.933594 145.773438 27.277344 146.914062 27.671875 C 146.964844 27.71875 147.015625 27.714844 147.109375 27.710938 C 147.253906 27.65625 147.445312 27.546875 147.484375 27.347656 Z M 30.296875 31.671875 C 30.480469 31.464844 30.46875 31.171875 30.265625 30.984375 C 29.347656 30.140625 28.53125 29.390625 27.71875 28.738281 C 27.515625 28.550781 27.222656 28.5625 27.039062 28.765625 C 26.851562 28.972656 26.863281 29.265625 27.070312 29.453125 C 27.882812 30.15625 28.695312 30.859375 29.5625 31.703125 C 29.667969 31.796875 29.765625 31.84375 29.910156 31.835938 C 30.058594 31.828125 30.203125 31.773438 30.296875 31.671875 Z M 208.5 23.578125 L 211.351562 21.78125 C 211.589844 21.621094 211.625 21.324219 211.519531 21.132812 C 211.363281 20.894531 211.066406 20.859375 210.875 20.964844 L 208.023438 22.765625 C 207.789062 22.921875 207.753906 23.21875 207.859375 23.410156 C 207.960938 23.554688 208.113281 23.644531 208.308594 23.636719 C 208.308594 23.636719 208.40625 23.632812 208.5 23.578125 Z M 140.195312 24.972656 C 140.28125 24.722656 140.121094 24.433594 139.875 24.394531 C 138.789062 24.097656 137.652344 23.804688 136.566406 23.558594 C 136.320312 23.519531 136.03125 23.683594 135.996094 23.929688 C 135.957031 24.175781 136.117188 24.464844 136.363281 24.503906 C 137.398438 24.753906 138.484375 25 139.625 25.339844 C 139.675781 25.339844 139.722656 25.335938 139.773438 25.335938 C 139.917969 25.277344 140.105469 25.171875 140.195312 24.972656 Z M 106.457031 26.730469 C 107.511719 26.289062 108.570312 25.898438 109.582031 25.558594 C 109.824219 25.496094 109.957031 25.195312 109.894531 24.953125 C 109.835938 24.710938 109.535156 24.574219 109.296875 24.636719 C 108.234375 24.976562 107.175781 25.371094 106.121094 25.808594 C 105.882812 25.917969 105.746094 26.171875 105.855469 26.414062 C 105.914062 26.605469 106.117188 26.746094 106.308594 26.738281 C 106.3125 26.785156 106.410156 26.78125 106.457031 26.730469 Z M 132.644531 23.292969 C 132.679688 23.046875 132.523438 22.804688 132.230469 22.769531 C 131.097656 22.574219 129.96875 22.476562 128.839844 22.382812 C 128.59375 22.34375 128.359375 22.550781 128.320312 22.796875 C 128.28125 23.046875 128.488281 23.28125 128.734375 23.320312 C 129.816406 23.417969 130.945312 23.566406 132.027344 23.714844 C 132.074219 23.710938 132.074219 23.710938 132.125 23.710938 C 132.417969 23.695312 132.652344 23.488281 132.644531 23.292969 Z M 113.683594 24.390625 C 114.746094 24.144531 115.859375 23.898438 116.925781 23.703125 C 117.167969 23.640625 117.351562 23.386719 117.339844 23.144531 C 117.28125 22.898438 117.078125 22.710938 116.785156 22.726562 C 115.667969 22.921875 114.554688 23.121094 113.441406 23.417969 C 113.203125 23.476562 113.015625 23.730469 113.078125 23.972656 C 113.136719 24.21875 113.339844 24.355469 113.582031 24.34375 C 113.632812 24.390625 113.632812 24.390625 113.683594 24.390625 Z M 215.011719 19.5 C 216.058594 18.863281 217.011719 18.277344 217.867188 17.75 C 218.105469 17.589844 218.191406 17.339844 218.035156 17.101562 C 217.875 16.863281 217.628906 16.777344 217.390625 16.933594 C 216.484375 17.464844 215.535156 18.050781 214.488281 18.6875 C 214.25 18.84375 214.214844 19.140625 214.320312 19.335938 C 214.425781 19.476562 214.578125 19.570312 214.773438 19.558594 C 214.871094 19.554688 214.917969 19.554688 215.011719 19.5 Z M 124.988281 22.601562 C 124.976562 22.359375 124.773438 22.121094 124.527344 22.132812 C 123.402344 22.132812 122.28125 22.183594 121.113281 22.234375 C 120.867188 22.246094 120.636719 22.503906 120.695312 22.746094 C 120.707031 22.992188 120.960938 23.226562 121.203125 23.167969 C 122.320312 23.066406 123.445312 23.066406 124.519531 23.066406 C 124.8125 23.054688 125 22.847656 124.988281 22.601562 Z M 24.449219 26.621094 C 24.585938 26.417969 24.574219 26.125 24.371094 25.933594 C 23.457031 25.238281 22.5 24.59375 21.59375 23.992188 C 21.394531 23.855469 21.101562 23.917969 20.917969 24.121094 C 20.777344 24.324219 20.839844 24.617188 21.042969 24.804688 C 21.949219 25.40625 22.859375 26.050781 23.769531 26.699219 C 23.867188 26.746094 23.96875 26.789062 24.066406 26.785156 C 24.214844 26.828125 24.355469 26.722656 24.449219 26.621094 Z M 221.632812 15.613281 C 222.679688 15.023438 223.636719 14.539062 224.59375 14.050781 C 224.832031 13.945312 224.914062 13.644531 224.808594 13.402344 C 224.699219 13.164062 224.402344 13.078125 224.160156 13.1875 C 223.207031 13.671875 222.203125 14.207031 221.15625 14.796875 C 220.917969 14.90625 220.832031 15.207031 220.988281 15.445312 C 221.09375 15.585938 221.242188 15.679688 221.4375 15.667969 C 221.488281 15.667969 221.535156 15.617188 221.632812 15.613281 Z M 17.957031 22.433594 C 18.09375 22.183594 17.980469 21.894531 17.734375 21.804688 C 16.683594 21.3125 15.636719 20.816406 14.59375 20.421875 C 14.34375 20.335938 14.054688 20.445312 13.96875 20.695312 C 13.882812 20.945312 13.992188 21.234375 14.242188 21.324219 C 15.238281 21.722656 16.285156 22.164062 17.285156 22.664062 C 17.335938 22.710938 17.433594 22.703125 17.53125 22.699219 C 17.722656 22.691406 17.917969 22.632812 17.957031 22.433594 Z M 228.46875 12.207031 C 229.523438 11.765625 230.578125 11.324219 231.589844 10.984375 C 231.828125 10.875 231.964844 10.621094 231.855469 10.382812 C 231.746094 10.140625 231.496094 10.003906 231.257812 10.113281 C 230.25 10.503906 229.140625 10.898438 228.089844 11.386719 C 227.847656 11.496094 227.714844 11.796875 227.824219 12.039062 C 227.882812 12.234375 228.082031 12.320312 228.277344 12.3125 C 228.371094 12.210938 228.417969 12.207031 228.46875 12.207031 Z M 10.796875 19.707031 C 10.835938 19.457031 10.675781 19.171875 10.429688 19.132812 C 9.34375 18.886719 8.207031 18.640625 7.078125 18.496094 C 6.832031 18.457031 6.597656 18.664062 6.558594 18.914062 C 6.523438 19.160156 6.726562 19.398438 6.972656 19.433594 C 8.054688 19.582031 9.1875 19.777344 10.226562 20.027344 C 10.273438 20.023438 10.324219 20.023438 10.371094 20.019531 C 10.570312 20.0625 10.757812 19.90625 10.796875 19.707031 Z M 235.683594 9.667969 C 236.746094 9.375 237.859375 9.128906 238.925781 8.933594 C 239.167969 8.875 239.351562 8.617188 239.292969 8.375 C 239.230469 8.132812 238.980469 7.945312 238.738281 8.007812 C 237.621094 8.203125 236.507812 8.453125 235.398438 8.746094 C 235.15625 8.808594 234.972656 9.0625 235.082031 9.351562 C 235.144531 9.59375 235.34375 9.734375 235.589844 9.722656 C 235.585938 9.671875 235.636719 9.671875 235.683594 9.667969 Z M 3.082031 18.722656 C 3.070312 18.480469 2.863281 18.242188 2.621094 18.253906 C 2.03125 18.230469 0.910156 18.28125 0.910156 18.28125 L 0.953125 19.261719 C 0.953125 19.261719 2.078125 19.210938 2.617188 19.238281 C 2.855469 19.175781 3.09375 18.96875 3.082031 18.722656 Z M 3.082031 18.722656 " fill-opacity="1" fill-rule="nonzero"/></g></g></g></svg>