<svg xmlns="http://www.w3.org/2000/svg" xmlns:xlink="http://www.w3.org/1999/xlink" width="124" zoomAndPan="magnify" viewBox="0 0 93 206.249992" height="275" preserveAspectRatio="xMidYMid meet" version="1.0"><defs><clipPath id="id1"><path d="M 52 0 L 84 0 L 84 68 L 52 68 Z M 52 0 " clip-rule="nonzero"/></clipPath><clipPath id="id2"><path d="M 51.949219 65.613281 L 79.648438 -0.5625 L 92.746094 4.917969 L 65.046875 71.09375 Z M 51.949219 65.613281 " clip-rule="nonzero"/></clipPath><clipPath id="id3"><path d="M 51.949219 65.613281 L 79.648438 -0.5625 L 92.746094 4.917969 L 65.046875 71.09375 Z M 51.949219 65.613281 " clip-rule="nonzero"/></clipPath><clipPath id="id4"><path d="M 53 0 L 82 0 L 82 67 L 53 67 Z M 53 0 " clip-rule="nonzero"/></clipPath><clipPath id="id5"><path d="M 51.949219 65.613281 L 79.648438 -0.5625 L 92.746094 4.917969 L 65.046875 71.09375 Z M 51.949219 65.613281 " clip-rule="nonzero"/></clipPath><clipPath id="id6"><path d="M 51.949219 65.613281 L 79.648438 -0.5625 L 92.746094 4.917969 L 65.046875 71.09375 Z M 51.949219 65.613281 " clip-rule="nonzero"/></clipPath><clipPath id="id7"><path d="M 0.167969 132 L 31 132 L 31 203 L 0.167969 203 Z M 0.167969 132 " clip-rule="nonzero"/></clipPath><clipPath id="id8"><path d="M 0.167969 201.0625 L 26.417969 132.695312 L 39.671875 137.785156 L 13.421875 206.152344 Z M 0.167969 201.0625 " clip-rule="nonzero"/></clipPath><clipPath id="id9"><path d="M 0.167969 201.0625 L 26.417969 132.695312 L 39.671875 137.785156 L 13.421875 206.152344 Z M 0.167969 201.0625 " clip-rule="nonzero"/></clipPath><clipPath id="id10"><path d="M 2 133 L 29 133 L 29 202 L 2 202 Z M 2 133 " clip-rule="nonzero"/></clipPath><clipPath id="id11"><path d="M 0.167969 201.0625 L 26.417969 132.695312 L 39.671875 137.785156 L 13.421875 206.152344 Z M 0.167969 201.0625 " clip-rule="nonzero"/></clipPath><clipPath id="id12"><path d="M 0.167969 201.0625 L 26.417969 132.695312 L 39.671875 137.785156 L 13.421875 206.152344 Z M 0.167969 201.0625 " clip-rule="nonzero"/></clipPath><clipPath id="id13"><path d="M 26 65 L 57 65 L 57 135 L 26 135 Z M 26 65 " clip-rule="nonzero"/></clipPath><clipPath id="id14"><path d="M 26.027344 133.539062 L 52.277344 65.171875 L 65.53125 70.261719 L 39.28125 138.628906 Z M 26.027344 133.539062 " clip-rule="nonzero"/></clipPath><clipPath id="id15"><path d="M 26.027344 133.539062 L 52.277344 65.171875 L 65.53125 70.261719 L 39.28125 138.628906 Z M 26.027344 133.539062 " clip-rule="nonzero"/></clipPath><clipPath id="id16"><path d="M 27 66 L 55 66 L 55 135 L 27 135 Z M 27 66 " clip-rule="nonzero"/></clipPath><clipPath id="id17"><path d="M 26.027344 133.539062 L 52.277344 65.171875 L 65.53125 70.261719 L 39.28125 138.628906 Z M 26.027344 133.539062 " clip-rule="nonzero"/></clipPath><clipPath id="id18"><path d="M 26.027344 133.539062 L 52.277344 65.171875 L 65.53125 70.261719 L 39.28125 138.628906 Z M 26.027344 133.539062 " clip-rule="nonzero"/></clipPath></defs><g clip-path="url(#id1)"><g clip-path="url(#id2)"><g clip-path="url(#id3)"><path fill="rgb(93.728638%, 17.248535%, 37.249756%)" d="M 71.707031 55.183594 C 71.441406 55.8125 71.117188 56.40625 70.71875 56.949219 C 68.886719 59.511719 66.089844 60.554688 63.390625 61.558594 C 60.175781 62.75 57.417969 63.777344 56.023438 67.109375 L 52.023438 65.433594 C 54.140625 60.378906 58.421875 58.78125 61.875 57.503906 C 64.15625 56.648438 66.140625 55.914062 67.210938 54.429688 C 68.441406 52.714844 68.574219 49.800781 67.59375 45.507812 C 66.503906 40.625 66.839844 36.480469 68.664062 32.832031 C 70.222656 29.695312 72.628906 27.4375 74.734375 25.441406 C 77.65625 22.6875 79.449219 20.855469 79.378906 18.132812 C 79.316406 15.753906 79.066406 13.652344 78.824219 11.632812 C 78.320312 7.351562 77.878906 3.65625 79.578125 -0.398438 L 83.578125 1.277344 C 82.320312 4.277344 82.683594 7.308594 83.144531 11.136719 C 83.386719 13.15625 83.660156 15.46875 83.726562 18.046875 C 83.847656 22.835938 80.726562 25.769531 77.726562 28.597656 C 73.703125 32.390625 69.890625 35.976562 71.832031 44.574219 C 72.835938 49.109375 72.808594 52.546875 71.707031 55.183594 Z M 71.707031 55.183594 " fill-opacity="1" fill-rule="nonzero"/><path fill="rgb(93.728638%, 17.248535%, 37.249756%)" d="M 82.589844 11.199219 C 82.117188 7.285156 81.75 4.195312 83.0625 1.058594 L 83.328125 1.171875 C 82.042969 4.238281 82.40625 7.300781 82.863281 11.171875 C 83.105469 13.191406 83.382812 15.492188 83.445312 18.054688 C 83.558594 22.714844 80.492188 25.59375 77.523438 28.386719 C 73.425781 32.242188 69.5625 35.871094 71.542969 44.636719 C 72.546875 49.128906 72.53125 52.507812 71.449219 55.089844 C 71.191406 55.710938 70.875 56.273438 70.496094 56.8125 C 68.710938 59.296875 65.953125 60.324219 63.289062 61.316406 C 60.164062 62.480469 57.207031 63.582031 55.765625 67.015625 L 55.503906 66.90625 C 56.992188 63.351562 60.003906 62.230469 63.199219 61.046875 C 65.828125 60.070312 68.535156 59.054688 70.273438 56.640625 C 70.640625 56.128906 70.949219 55.578125 71.203125 54.972656 C 72.261719 52.445312 72.273438 49.121094 71.285156 44.699219 C 69.269531 35.796875 73.382812 31.933594 77.339844 28.1875 C 80.261719 25.433594 83.28125 22.597656 83.164062 18.058594 C 83.101562 15.496094 82.816406 13.210938 82.589844 11.199219 Z M 79.117188 11.601562 C 79.367188 13.640625 79.605469 15.734375 79.671875 18.132812 C 79.738281 20.976562 77.917969 22.84375 74.941406 25.652344 C 72.839844 27.636719 70.460938 29.871094 68.914062 32.96875 C 67.136719 36.558594 66.785156 40.652344 67.867188 45.453125 C 68.859375 49.828125 68.710938 52.8125 67.433594 54.601562 C 66.316406 56.160156 64.296875 56.910156 61.976562 57.777344 C 60.214844 58.433594 58.394531 59.109375 56.695312 60.242188 C 54.664062 61.574219 53.21875 63.320312 52.289062 65.542969 L 52.550781 65.65625 C 53.460938 63.484375 54.871094 61.78125 56.851562 60.460938 C 58.511719 59.347656 60.3125 58.675781 62.070312 58.035156 C 64.441406 57.15625 66.484375 56.386719 67.65625 54.773438 C 68.988281 52.929688 69.140625 49.855469 68.136719 45.394531 C 65.726562 34.699219 70.941406 29.796875 75.121094 25.851562 C 77.863281 23.269531 80.019531 21.230469 79.941406 18.121094 C 79.878906 15.710938 79.625 13.609375 79.378906 11.570312 C 78.890625 7.359375 78.457031 3.726562 80.09375 -0.183594 L 79.84375 -0.289062 C 78.171875 3.703125 78.609375 7.367188 79.117188 11.601562 Z M 79.117188 11.601562 " fill-opacity="1" fill-rule="nonzero"/></g></g></g><g clip-path="url(#id4)"><g clip-path="url(#id5)"><g clip-path="url(#id6)"><path fill="rgb(93.728638%, 93.728638%, 93.728638%)" d="M 81.53125 0.945312 C 81.5 1.011719 81.421875 1.054688 81.355469 1.027344 C 81.289062 1 81.246094 0.917969 81.273438 0.851562 C 81.332031 0.707031 81.453125 0.386719 81.453125 0.386719 L 81.714844 0.496094 C 81.703125 0.492188 81.578125 0.792969 81.53125 0.945312 Z M 69.984375 54.027344 C 70.011719 53.960938 69.976562 53.871094 69.902344 53.855469 C 69.835938 53.828125 69.757812 53.871094 69.730469 53.9375 C 69.617188 54.246094 69.488281 54.546875 69.347656 54.8125 C 69.320312 54.878906 69.34375 54.96875 69.40625 55.007812 C 69.472656 55.035156 69.558594 55.011719 69.601562 54.949219 C 69.691406 54.773438 69.773438 54.605469 69.851562 54.421875 C 69.894531 54.285156 69.9375 54.148438 69.984375 54.027344 Z M 70.316406 52.789062 C 70.386719 52.480469 70.433594 52.144531 70.46875 51.800781 C 70.46875 51.722656 70.417969 51.65625 70.347656 51.644531 C 70.269531 51.640625 70.203125 51.691406 70.191406 51.761719 C 70.160156 52.089844 70.101562 52.421875 70.050781 52.726562 C 70.035156 52.796875 70.078125 52.875 70.164062 52.898438 C 70.234375 52.910156 70.296875 52.875 70.324219 52.808594 C 70.3125 52.804688 70.316406 52.789062 70.316406 52.789062 Z M 68.859375 55.832031 C 68.796875 55.789062 68.703125 55.796875 68.660156 55.859375 C 68.464844 56.101562 68.238281 56.347656 68.011719 56.558594 C 67.957031 56.613281 67.949219 56.703125 68.003906 56.757812 C 68.058594 56.8125 68.152344 56.820312 68.203125 56.765625 C 68.457031 56.53125 68.683594 56.285156 68.886719 56.027344 C 68.890625 56.015625 68.894531 56 68.902344 55.988281 C 68.921875 55.9375 68.917969 55.871094 68.859375 55.832031 Z M 70.535156 50.53125 C 70.546875 50.207031 70.527344 49.878906 70.519531 49.53125 C 70.519531 49.457031 70.449219 49.394531 70.375 49.394531 C 70.296875 49.394531 70.238281 49.460938 70.234375 49.539062 C 70.253906 49.871094 70.253906 50.195312 70.265625 50.507812 C 70.261719 50.585938 70.332031 50.644531 70.410156 50.648438 C 70.472656 50.640625 70.515625 50.613281 70.535156 50.5625 C 70.523438 50.554688 70.53125 50.542969 70.535156 50.53125 Z M 67.253906 57.371094 C 67.203125 57.304688 67.117188 57.285156 67.0625 57.339844 C 66.804688 57.511719 66.53125 57.6875 66.234375 57.84375 C 66.171875 57.878906 66.136719 57.957031 66.183594 58.039062 C 66.21875 58.097656 66.296875 58.132812 66.378906 58.089844 C 66.679688 57.921875 66.96875 57.75 67.234375 57.566406 C 67.257812 57.542969 67.277344 57.535156 67.289062 57.511719 C 67.277344 57.460938 67.265625 57.410156 67.253906 57.371094 Z M 70.398438 48.261719 C 70.363281 47.9375 70.316406 47.605469 70.265625 47.277344 C 70.253906 47.195312 70.179688 47.148438 70.113281 47.164062 C 70.03125 47.175781 69.984375 47.25 70 47.320312 C 70.050781 47.648438 70.097656 47.980469 70.136719 48.289062 C 70.148438 48.371094 70.222656 48.417969 70.289062 48.414062 C 70.339844 48.40625 70.382812 48.375 70.402344 48.324219 C 70.410156 48.308594 70.40625 48.277344 70.398438 48.261719 Z M 81.207031 20.988281 C 81.328125 20.664062 81.429688 20.351562 81.503906 20.027344 C 81.515625 19.957031 81.472656 19.875 81.402344 19.859375 C 81.328125 19.847656 81.25 19.890625 81.234375 19.960938 C 81.167969 20.273438 81.066406 20.585938 80.957031 20.882812 C 80.929688 20.949219 80.96875 21.042969 81.039062 21.054688 C 81.101562 21.097656 81.175781 21.066406 81.207031 20.988281 Z M 80.613281 21.960938 C 80.554688 21.921875 80.464844 21.945312 80.421875 22.019531 C 80.273438 22.296875 80.097656 22.566406 79.90625 22.839844 C 79.863281 22.898438 79.875 22.984375 79.945312 23.042969 C 80.003906 23.082031 80.089844 23.070312 80.148438 23.003906 C 80.339844 22.726562 80.527344 22.433594 80.671875 22.15625 C 80.671875 22.15625 80.679688 22.140625 80.679688 22.140625 C 80.707031 22.078125 80.675781 22 80.613281 21.960938 Z M 65.289062 58.46875 C 65.257812 58.394531 65.171875 58.375 65.101562 58.390625 C 64.835938 58.511719 64.535156 58.632812 64.199219 58.769531 C 64.125 58.800781 64.089844 58.878906 64.121094 58.957031 C 64.152344 59.03125 64.230469 59.0625 64.308594 59.03125 C 64.644531 58.894531 64.945312 58.773438 65.214844 58.640625 C 65.253906 58.625 65.277344 58.601562 65.292969 58.5625 C 65.300781 58.550781 65.304688 58.503906 65.289062 58.46875 Z M 81.679688 18.753906 C 81.695312 18.527344 81.691406 18.3125 81.695312 18.082031 C 81.695312 17.972656 81.695312 17.863281 81.691406 17.753906 C 81.695312 17.675781 81.625 17.617188 81.546875 17.617188 C 81.472656 17.617188 81.414062 17.683594 81.410156 17.761719 C 81.410156 17.871094 81.414062 17.976562 81.414062 18.085938 C 81.417969 18.304688 81.417969 18.523438 81.40625 18.734375 C 81.40625 18.808594 81.457031 18.878906 81.53125 18.878906 C 81.589844 18.886719 81.652344 18.851562 81.675781 18.800781 C 81.679688 18.785156 81.683594 18.773438 81.679688 18.753906 Z M 79.355469 23.816406 C 79.300781 23.761719 79.207031 23.769531 79.164062 23.828125 C 78.96875 24.074219 78.75 24.304688 78.515625 24.5625 C 78.460938 24.617188 78.46875 24.714844 78.523438 24.769531 C 78.578125 24.824219 78.675781 24.816406 78.730469 24.761719 C 78.960938 24.503906 79.1875 24.257812 79.382812 24.015625 C 79.390625 24 79.394531 23.988281 79.398438 23.972656 C 79.417969 23.933594 79.398438 23.867188 79.355469 23.816406 Z M 70.046875 46.023438 C 69.992188 45.707031 69.914062 45.378906 69.847656 45.058594 C 69.828125 44.988281 69.753906 44.941406 69.671875 44.953125 C 69.601562 44.972656 69.554688 45.042969 69.570312 45.128906 C 69.636719 45.449219 69.714844 45.777344 69.769531 46.09375 C 69.785156 46.164062 69.855469 46.222656 69.9375 46.210938 C 69.988281 46.199219 70.019531 46.167969 70.035156 46.125 C 70.058594 46.074219 70.0625 46.0625 70.046875 46.023438 Z M 77.835938 25.484375 C 77.78125 25.433594 77.691406 25.425781 77.636719 25.480469 C 77.425781 25.6875 77.191406 25.914062 76.933594 26.160156 C 76.878906 26.214844 76.871094 26.304688 76.925781 26.359375 C 76.984375 26.414062 77.074219 26.421875 77.125 26.363281 C 77.390625 26.105469 77.621094 25.890625 77.835938 25.671875 C 77.855469 25.664062 77.859375 25.652344 77.871094 25.625 C 77.886719 25.585938 77.871094 25.515625 77.835938 25.484375 Z M 81.632812 16.492188 C 81.609375 16.171875 81.59375 15.839844 81.5625 15.503906 C 81.566406 15.425781 81.496094 15.367188 81.414062 15.378906 C 81.335938 15.378906 81.277344 15.445312 81.289062 15.527344 C 81.320312 15.867188 81.335938 16.195312 81.359375 16.515625 C 81.355469 16.59375 81.425781 16.652344 81.507812 16.640625 C 81.558594 16.628906 81.601562 16.601562 81.625 16.550781 C 81.628906 16.535156 81.625 16.503906 81.632812 16.492188 Z M 63.191406 59.324219 C 63.160156 59.25 63.082031 59.214844 63.007812 59.246094 C 62.863281 59.292969 62.714844 59.355469 62.570312 59.402344 C 62.40625 59.460938 62.238281 59.527344 62.074219 59.582031 C 62 59.613281 61.96875 59.691406 61.996094 59.769531 C 62.027344 59.84375 62.109375 59.875 62.183594 59.84375 C 62.34375 59.789062 62.515625 59.722656 62.675781 59.664062 C 62.820312 59.617188 62.972656 59.554688 63.113281 59.507812 C 63.152344 59.492188 63.183594 59.460938 63.191406 59.433594 C 63.210938 59.394531 63.214844 59.347656 63.191406 59.324219 Z M 69.601562 43.824219 C 69.546875 43.507812 69.5 43.179688 69.445312 42.863281 C 69.433594 42.78125 69.359375 42.734375 69.296875 42.738281 C 69.214844 42.75 69.167969 42.824219 69.171875 42.886719 C 69.207031 43.210938 69.269531 43.546875 69.320312 43.863281 C 69.332031 43.945312 69.40625 43.992188 69.476562 43.976562 C 69.527344 43.964844 69.558594 43.929688 69.574219 43.890625 C 69.597656 43.871094 69.609375 43.84375 69.601562 43.824219 Z M 76.210938 27.035156 C 76.15625 26.980469 76.066406 26.972656 76.011719 27.027344 C 75.777344 27.253906 75.527344 27.476562 75.292969 27.703125 C 75.242188 27.757812 75.234375 27.847656 75.289062 27.902344 C 75.34375 27.957031 75.433594 27.960938 75.488281 27.90625 C 75.722656 27.679688 75.96875 27.460938 76.203125 27.234375 C 76.222656 27.226562 76.234375 27.199219 76.242188 27.1875 C 76.261719 27.132812 76.238281 27.078125 76.210938 27.035156 Z M 81.441406 14.246094 C 81.414062 13.9375 81.378906 13.613281 81.339844 13.257812 C 81.328125 13.175781 81.253906 13.128906 81.191406 13.132812 C 81.109375 13.144531 81.0625 13.21875 81.066406 13.285156 C 81.109375 13.625 81.144531 13.949219 81.171875 14.257812 C 81.183594 14.339844 81.238281 14.390625 81.320312 14.378906 C 81.371094 14.371094 81.414062 14.34375 81.4375 14.289062 C 81.449219 14.296875 81.449219 14.261719 81.441406 14.246094 Z M 69.320312 41.605469 C 69.304688 41.273438 69.28125 40.953125 69.28125 40.628906 C 69.28125 40.550781 69.210938 40.492188 69.136719 40.488281 C 69.058594 40.488281 69 40.554688 69 40.632812 C 69 40.960938 69.015625 41.292969 69.046875 41.628906 C 69.046875 41.707031 69.113281 41.765625 69.195312 41.753906 C 69.246094 41.742188 69.289062 41.714844 69.3125 41.664062 C 69.316406 41.648438 69.328125 41.621094 69.320312 41.605469 Z M 74.578125 28.59375 C 74.523438 28.539062 74.433594 28.535156 74.378906 28.589844 C 74.136719 28.84375 73.902344 29.070312 73.699219 29.292969 C 73.644531 29.347656 73.652344 29.445312 73.707031 29.496094 C 73.761719 29.550781 73.855469 29.546875 73.910156 29.492188 C 74.125 29.273438 74.347656 29.039062 74.59375 28.785156 C 74.613281 28.777344 74.617188 28.765625 74.628906 28.738281 C 74.632812 28.695312 74.628906 28.628906 74.578125 28.59375 Z M 61.089844 60.117188 C 61.0625 60.042969 60.980469 60.007812 60.90625 60.039062 C 60.570312 60.175781 60.269531 60.296875 59.996094 60.433594 C 59.921875 60.460938 59.890625 60.542969 59.921875 60.617188 C 59.953125 60.691406 60.03125 60.722656 60.105469 60.695312 C 60.390625 60.566406 60.679688 60.4375 61.007812 60.3125 C 61.046875 60.296875 61.070312 60.277344 61.085938 60.238281 C 61.105469 60.199219 61.105469 60.152344 61.089844 60.117188 Z M 81.203125 11.996094 L 81.082031 11.015625 C 81.070312 10.933594 81 10.886719 80.933594 10.890625 C 80.851562 10.902344 80.804688 10.976562 80.808594 11.042969 L 80.929688 12.019531 C 80.941406 12.101562 81.015625 12.148438 81.078125 12.144531 C 81.128906 12.132812 81.171875 12.105469 81.191406 12.050781 C 81.191406 12.050781 81.203125 12.027344 81.203125 11.996094 Z M 73.042969 30.226562 C 72.988281 30.171875 72.894531 30.179688 72.851562 30.238281 C 72.636719 30.488281 72.417969 30.753906 72.21875 31.011719 C 72.179688 31.070312 72.183594 31.167969 72.246094 31.207031 C 72.304688 31.25 72.402344 31.242188 72.441406 31.183594 C 72.636719 30.9375 72.835938 30.683594 73.070312 30.421875 C 73.074219 30.410156 73.082031 30.398438 73.085938 30.382812 C 73.089844 30.339844 73.085938 30.273438 73.042969 30.226562 Z M 69.296875 39.367188 C 69.3125 39.03125 69.339844 38.703125 69.375 38.394531 C 69.390625 38.320312 69.328125 38.25 69.257812 38.234375 C 69.1875 38.21875 69.113281 38.28125 69.097656 38.355469 C 69.054688 38.675781 69.027344 39.003906 69.011719 39.339844 C 69.011719 39.417969 69.058594 39.484375 69.136719 39.484375 C 69.195312 39.492188 69.257812 39.457031 69.28125 39.40625 C 69.292969 39.410156 69.304688 39.382812 69.296875 39.367188 Z M 71.660156 32.015625 C 71.597656 31.972656 71.515625 31.984375 71.46875 32.058594 C 71.277344 32.335938 71.109375 32.621094 70.945312 32.90625 C 70.902344 32.96875 70.929688 33.054688 70.988281 33.097656 C 71.050781 33.136719 71.136719 33.113281 71.179688 33.050781 C 71.339844 32.777344 71.519531 32.496094 71.691406 32.230469 C 71.699219 32.214844 71.699219 32.214844 71.703125 32.203125 C 71.738281 32.125 71.710938 32.035156 71.660156 32.015625 Z M 69.582031 37.164062 C 69.648438 36.851562 69.722656 36.527344 69.804688 36.222656 C 69.820312 36.148438 69.777344 36.070312 69.710938 36.042969 C 69.636719 36.027344 69.5625 36.058594 69.53125 36.136719 C 69.441406 36.457031 69.355469 36.777344 69.296875 37.105469 C 69.28125 37.175781 69.324219 37.257812 69.394531 37.273438 C 69.46875 37.285156 69.53125 37.25 69.558594 37.183594 C 69.574219 37.175781 69.574219 37.175781 69.582031 37.164062 Z M 80.941406 9.765625 C 80.902344 9.410156 80.867188 9.085938 80.835938 8.792969 C 80.824219 8.710938 80.769531 8.65625 80.6875 8.667969 C 80.601562 8.679688 80.550781 8.734375 80.5625 8.816406 C 80.589844 9.121094 80.625 9.445312 80.660156 9.800781 C 80.671875 9.886719 80.746094 9.929688 80.8125 9.925781 C 80.859375 9.917969 80.902344 9.890625 80.925781 9.835938 C 80.9375 9.808594 80.941406 9.796875 80.941406 9.765625 Z M 70.523438 33.953125 C 70.457031 33.925781 70.367188 33.949219 70.339844 34.015625 C 70.199219 34.3125 70.074219 34.617188 69.941406 34.933594 C 69.914062 34.996094 69.953125 35.089844 70.023438 35.105469 C 70.089844 35.132812 70.183594 35.09375 70.199219 35.023438 C 70.3125 34.714844 70.453125 34.417969 70.585938 34.132812 C 70.617188 34.054688 70.589844 33.980469 70.523438 33.953125 Z M 59.03125 61.035156 C 58.996094 60.972656 58.917969 60.9375 58.839844 60.96875 C 58.542969 61.125 58.253906 61.296875 57.984375 61.460938 C 57.921875 61.496094 57.902344 61.582031 57.933594 61.65625 C 57.96875 61.71875 58.054688 61.738281 58.128906 61.707031 C 58.398438 61.542969 58.683594 61.382812 58.96875 61.222656 C 58.992188 61.203125 59.015625 61.183594 59.027344 61.15625 C 59.058594 61.121094 59.046875 61.070312 59.03125 61.035156 Z M 80.742188 7.53125 C 80.71875 7.179688 80.710938 6.867188 80.703125 6.554688 C 80.703125 6.476562 80.632812 6.417969 80.558594 6.417969 C 80.480469 6.414062 80.421875 6.484375 80.417969 6.5625 C 80.429688 6.875 80.445312 7.207031 80.46875 7.554688 C 80.46875 7.632812 80.535156 7.691406 80.617188 7.679688 C 80.667969 7.671875 80.710938 7.640625 80.734375 7.589844 C 80.738281 7.578125 80.730469 7.558594 80.742188 7.53125 Z M 57.121094 62.230469 C 57.070312 62.160156 56.980469 62.15625 56.925781 62.210938 C 56.664062 62.425781 56.402344 62.640625 56.167969 62.867188 C 56.117188 62.921875 56.109375 63.011719 56.164062 63.066406 C 56.21875 63.121094 56.308594 63.128906 56.363281 63.074219 C 56.59375 62.859375 56.839844 62.636719 57.09375 62.433594 C 57.113281 62.429688 57.125 62.402344 57.136719 62.375 C 57.15625 62.324219 57.167969 62.265625 57.121094 62.230469 Z M 80.699219 5.300781 C 80.714844 4.964844 80.730469 4.632812 80.765625 4.324219 C 80.769531 4.246094 80.71875 4.179688 80.640625 4.179688 C 80.5625 4.175781 80.496094 4.226562 80.496094 4.300781 C 80.472656 4.617188 80.4375 4.960938 80.4375 5.296875 C 80.433594 5.375 80.496094 5.449219 80.574219 5.449219 C 80.632812 5.457031 80.679688 5.417969 80.703125 5.363281 C 80.6875 5.328125 80.695312 5.3125 80.699219 5.300781 Z M 55.507812 63.78125 C 55.445312 63.742188 55.351562 63.746094 55.308594 63.808594 C 55.109375 64.066406 54.902344 64.335938 54.722656 64.613281 C 54.683594 64.675781 54.710938 64.761719 54.769531 64.804688 C 54.828125 64.84375 54.917969 64.820312 54.957031 64.757812 C 55.132812 64.492188 55.324219 64.21875 55.519531 63.972656 C 55.527344 63.960938 55.53125 63.949219 55.539062 63.933594 C 55.574219 63.886719 55.554688 63.816406 55.507812 63.78125 Z M 80.929688 3.078125 C 80.988281 2.757812 81.0625 2.433594 81.140625 2.128906 C 81.15625 2.058594 81.113281 1.976562 81.042969 1.960938 C 80.96875 1.949219 80.890625 1.992188 80.875 2.0625 C 80.789062 2.382812 80.714844 2.707031 80.652344 3.039062 C 80.640625 3.109375 80.683594 3.1875 80.773438 3.195312 C 80.84375 3.210938 80.90625 3.175781 80.933594 3.109375 C 80.921875 3.101562 80.925781 3.089844 80.929688 3.078125 Z M 54.285156 65.699219 C 54.21875 65.671875 54.132812 65.699219 54.105469 65.761719 C 54.023438 65.917969 53.898438 66.21875 53.898438 66.21875 L 54.164062 66.328125 C 54.164062 66.328125 54.289062 66.027344 54.363281 65.886719 C 54.378906 65.816406 54.351562 65.726562 54.285156 65.699219 Z M 54.285156 65.699219 " fill-opacity="1" fill-rule="nonzero"/></g></g></g><g clip-path="url(#id7)"><g clip-path="url(#id8)"><g clip-path="url(#id9)"><path fill="rgb(93.728638%, 17.248535%, 37.249756%)" d="M 19.730469 189.722656 C 19.480469 190.375 19.167969 190.988281 18.78125 191.558594 C 17.003906 194.230469 14.226562 195.398438 11.539062 196.519531 C 8.34375 197.855469 5.605469 199.003906 4.28125 202.449219 L 0.234375 200.894531 C 2.238281 195.667969 6.496094 193.882812 9.929688 192.453125 C 12.195312 191.496094 14.167969 190.675781 15.207031 189.125 C 16.402344 187.332031 16.46875 184.363281 15.390625 180.027344 C 14.183594 175.101562 14.429688 170.867188 16.171875 167.085938 C 17.664062 163.835938 20.023438 161.445312 22.089844 159.335938 C 24.957031 156.425781 26.710938 154.492188 26.578125 151.722656 C 26.464844 149.304688 26.164062 147.175781 25.875 145.128906 C 25.273438 140.789062 24.746094 137.046875 26.355469 132.855469 L 30.40625 134.410156 C 29.214844 137.511719 29.644531 140.582031 30.195312 144.460938 C 30.480469 146.507812 30.808594 148.851562 30.9375 151.476562 C 31.167969 156.339844 28.105469 159.445312 25.164062 162.4375 C 21.214844 166.449219 17.476562 170.242188 19.617188 178.917969 C 20.726562 183.496094 20.777344 187 19.730469 189.722656 Z M 19.730469 189.722656 " fill-opacity="1" fill-rule="nonzero"/><path fill="rgb(93.728638%, 17.248535%, 37.249756%)" d="M 29.640625 144.542969 C 29.078125 140.582031 28.640625 137.445312 29.882812 134.207031 L 30.152344 134.3125 C 28.933594 137.480469 29.367188 140.582031 29.914062 144.507812 C 30.203125 146.554688 30.535156 148.886719 30.652344 151.492188 C 30.875 156.230469 27.863281 159.273438 24.953125 162.230469 C 20.933594 166.308594 17.144531 170.148438 19.328125 178.996094 C 20.4375 183.527344 20.496094 186.96875 19.472656 189.636719 C 19.226562 190.277344 18.925781 190.863281 18.558594 191.425781 C 16.824219 194.023438 14.082031 195.171875 11.433594 196.277344 C 8.328125 197.582031 5.386719 198.8125 4.023438 202.363281 L 3.757812 202.261719 C 5.167969 198.585938 8.164062 197.332031 11.339844 196.007812 C 13.949219 194.917969 16.640625 193.78125 18.328125 191.257812 C 18.6875 190.726562 18.984375 190.152344 19.222656 189.527344 C 20.226562 186.914062 20.160156 183.53125 19.070312 179.066406 C 16.847656 170.078125 20.886719 165.992188 24.765625 162.035156 C 27.632812 159.121094 30.59375 156.121094 30.371094 151.507812 C 30.253906 148.902344 29.914062 146.585938 29.640625 144.542969 Z M 26.167969 145.085938 C 26.464844 147.148438 26.753906 149.273438 26.875 151.710938 C 27.007812 154.601562 25.222656 156.574219 22.304688 159.542969 C 20.242188 161.640625 17.90625 164.007812 16.429688 167.21875 C 14.726562 170.933594 14.46875 175.117188 15.660156 179.960938 C 16.753906 184.378906 16.675781 187.421875 15.4375 189.289062 C 14.351562 190.917969 12.34375 191.753906 10.039062 192.726562 C 8.285156 193.460938 6.476562 194.21875 4.796875 195.433594 C 2.792969 196.863281 1.382812 198.695312 0.5 200.996094 L 0.769531 201.097656 C 1.628906 198.851562 3.003906 197.070312 4.960938 195.648438 C 6.601562 194.453125 8.390625 193.703125 10.136719 192.984375 C 12.492188 192 14.527344 191.140625 15.664062 189.453125 C 16.953125 187.53125 17.039062 184.394531 15.933594 179.894531 C 13.269531 169.097656 18.386719 163.910156 22.488281 159.738281 C 25.179688 157.007812 27.292969 154.855469 27.144531 151.6875 C 27.027344 149.238281 26.726562 147.109375 26.429688 145.042969 C 25.84375 140.777344 25.328125 137.09375 26.878906 133.054688 L 26.625 132.957031 C 25.042969 137.078125 25.5625 140.792969 26.167969 145.085938 Z M 26.167969 145.085938 " fill-opacity="1" fill-rule="nonzero"/></g></g></g><g clip-path="url(#id10)"><g clip-path="url(#id11)"><g clip-path="url(#id12)"><path fill="rgb(93.728638%, 93.728638%, 93.728638%)" d="M 28.34375 134.148438 C 28.316406 134.214844 28.238281 134.261719 28.171875 134.238281 C 28.105469 134.210938 28.058594 134.132812 28.085938 134.0625 C 28.140625 133.914062 28.253906 133.582031 28.253906 133.582031 L 28.523438 133.683594 C 28.507812 133.679688 28.386719 133.992188 28.34375 134.148438 Z M 17.980469 188.609375 C 18.007812 188.542969 17.964844 188.449219 17.894531 188.4375 C 17.828125 188.410156 17.746094 188.460938 17.722656 188.527344 C 17.613281 188.84375 17.496094 189.160156 17.359375 189.433594 C 17.332031 189.503906 17.359375 189.589844 17.421875 189.628906 C 17.488281 189.65625 17.574219 189.625 17.617188 189.5625 C 17.703125 189.378906 17.78125 189.207031 17.855469 189.015625 C 17.894531 188.875 17.933594 188.734375 17.980469 188.609375 Z M 18.285156 187.339844 C 18.347656 187.019531 18.386719 186.675781 18.414062 186.324219 C 18.414062 186.246094 18.363281 186.179688 18.289062 186.167969 C 18.210938 186.171875 18.148438 186.222656 18.132812 186.296875 C 18.113281 186.632812 18.058594 186.96875 18.015625 187.28125 C 18.003906 187.355469 18.050781 187.433594 18.132812 187.453125 C 18.207031 187.464844 18.269531 187.425781 18.292969 187.355469 C 18.28125 187.351562 18.285156 187.339844 18.285156 187.339844 Z M 16.890625 190.488281 C 16.832031 190.449219 16.734375 190.460938 16.695312 190.523438 C 16.503906 190.777344 16.285156 191.035156 16.058594 191.261719 C 16.007812 191.320312 16 191.410156 16.058594 191.464844 C 16.113281 191.515625 16.203125 191.519531 16.257812 191.460938 C 16.507812 191.214844 16.726562 190.957031 16.921875 190.6875 C 16.929688 190.675781 16.933594 190.660156 16.9375 190.648438 C 16.960938 190.59375 16.953125 190.527344 16.890625 190.488281 Z M 18.453125 185.027344 C 18.453125 184.703125 18.429688 184.363281 18.410156 184.015625 C 18.410156 183.9375 18.339844 183.878906 18.265625 183.878906 C 18.1875 183.882812 18.128906 183.953125 18.128906 184.03125 C 18.152344 184.367188 18.164062 184.699219 18.179688 185.019531 C 18.179688 185.097656 18.25 185.15625 18.328125 185.152344 C 18.390625 185.144531 18.433594 185.117188 18.453125 185.0625 C 18.441406 185.054688 18.445312 185.042969 18.453125 185.027344 Z M 15.316406 192.117188 C 15.265625 192.050781 15.179688 192.03125 15.128906 192.089844 C 14.871094 192.273438 14.601562 192.464844 14.304688 192.632812 C 14.246094 192.671875 14.214844 192.753906 14.257812 192.835938 C 14.296875 192.894531 14.378906 192.925781 14.457031 192.878906 C 14.757812 192.699219 15.042969 192.511719 15.300781 192.3125 C 15.324219 192.292969 15.34375 192.28125 15.355469 192.257812 C 15.34375 192.203125 15.332031 192.152344 15.316406 192.117188 Z M 18.261719 182.722656 C 18.222656 182.394531 18.164062 182.0625 18.109375 181.726562 C 18.09375 181.644531 18.019531 181.601562 17.953125 181.621094 C 17.867188 181.636719 17.824219 181.710938 17.84375 181.78125 C 17.898438 182.117188 17.953125 182.449219 18.003906 182.765625 C 18.015625 182.847656 18.089844 182.890625 18.15625 182.886719 C 18.207031 182.875 18.25 182.84375 18.269531 182.789062 C 18.273438 182.773438 18.273438 182.742188 18.261719 182.722656 Z M 28.480469 154.558594 C 28.589844 154.226562 28.683594 153.90625 28.75 153.570312 C 28.765625 153.5 28.71875 153.417969 28.644531 153.40625 C 28.574219 153.394531 28.496094 153.441406 28.480469 153.515625 C 28.421875 153.835938 28.328125 154.15625 28.226562 154.460938 C 28.199219 154.53125 28.238281 154.625 28.3125 154.636719 C 28.375 154.675781 28.449219 154.640625 28.480469 154.558594 Z M 27.90625 155.574219 C 27.84375 155.535156 27.757812 155.5625 27.710938 155.640625 C 27.570312 155.929688 27.402344 156.207031 27.214844 156.496094 C 27.175781 156.558594 27.191406 156.640625 27.257812 156.699219 C 27.320312 156.738281 27.402344 156.722656 27.460938 156.652344 C 27.648438 156.363281 27.828125 156.058594 27.96875 155.769531 C 27.96875 155.769531 27.972656 155.753906 27.972656 155.753906 C 28 155.6875 27.96875 155.613281 27.90625 155.574219 Z M 13.371094 193.304688 C 13.339844 193.230469 13.253906 193.214844 13.1875 193.234375 C 12.921875 193.367188 12.621094 193.503906 12.289062 193.65625 C 12.214844 193.6875 12.183594 193.769531 12.214844 193.84375 C 12.246094 193.921875 12.328125 193.949219 12.402344 193.917969 C 12.738281 193.765625 13.035156 193.628906 13.304688 193.484375 C 13.34375 193.464844 13.367188 193.445312 13.382812 193.402344 C 13.386719 193.390625 13.390625 193.34375 13.371094 193.304688 Z M 28.898438 152.269531 C 28.910156 152.039062 28.902344 151.820312 28.902344 151.582031 C 28.898438 151.472656 28.894531 151.363281 28.890625 151.25 C 28.890625 151.171875 28.820312 151.117188 28.742188 151.117188 C 28.664062 151.117188 28.609375 151.191406 28.609375 151.269531 C 28.613281 151.378906 28.617188 151.488281 28.617188 151.601562 C 28.625 151.820312 28.632812 152.042969 28.625 152.257812 C 28.628906 152.335938 28.679688 152.402344 28.753906 152.402344 C 28.8125 152.410156 28.875 152.371094 28.894531 152.316406 C 28.902344 152.300781 28.90625 152.289062 28.898438 152.269531 Z M 26.6875 157.511719 C 26.632812 157.457031 26.535156 157.46875 26.496094 157.53125 C 26.304688 157.785156 26.089844 158.03125 25.863281 158.300781 C 25.808594 158.359375 25.816406 158.457031 25.875 158.507812 C 25.929688 158.5625 26.027344 158.550781 26.078125 158.496094 C 26.304688 158.222656 26.527344 157.964844 26.71875 157.710938 C 26.722656 157.695312 26.730469 157.683594 26.734375 157.667969 C 26.75 157.628906 26.730469 157.558594 26.6875 157.511719 Z M 17.859375 180.460938 C 17.796875 180.140625 17.710938 179.8125 17.636719 179.484375 C 17.617188 179.414062 17.542969 179.371094 17.460938 179.386719 C 17.390625 179.40625 17.347656 179.484375 17.359375 179.566406 C 17.433594 179.890625 17.523438 180.222656 17.582031 180.542969 C 17.601562 180.613281 17.671875 180.671875 17.753906 180.65625 C 17.804688 180.644531 17.835938 180.609375 17.851562 180.566406 C 17.871094 180.511719 17.875 180.5 17.859375 180.460938 Z M 25.199219 159.265625 C 25.144531 159.210938 25.054688 159.210938 25 159.265625 C 24.792969 159.484375 24.566406 159.722656 24.3125 159.984375 C 24.257812 160.042969 24.253906 160.136719 24.308594 160.1875 C 24.367188 160.242188 24.457031 160.246094 24.507812 160.1875 C 24.769531 159.910156 24.992188 159.6875 25.203125 159.453125 C 25.222656 159.445312 25.226562 159.433594 25.238281 159.40625 C 25.253906 159.363281 25.234375 159.292969 25.199219 159.265625 Z M 28.800781 149.96875 C 28.773438 149.644531 28.746094 149.308594 28.710938 148.964844 C 28.710938 148.886719 28.640625 148.828125 28.558594 148.84375 C 28.480469 148.847656 28.421875 148.917969 28.4375 149 C 28.472656 149.34375 28.496094 149.679688 28.527344 150.003906 C 28.527344 150.082031 28.597656 150.140625 28.679688 150.125 C 28.730469 150.113281 28.773438 150.082031 28.792969 150.027344 C 28.796875 150.015625 28.796875 149.980469 28.800781 149.96875 Z M 11.292969 194.253906 C 11.257812 194.179688 11.179688 194.148438 11.105469 194.183594 C 10.960938 194.238281 10.8125 194.304688 10.667969 194.359375 C 10.507812 194.421875 10.339844 194.5 10.175781 194.5625 C 10.101562 194.59375 10.070312 194.675781 10.105469 194.753906 C 10.136719 194.828125 10.214844 194.859375 10.289062 194.824219 C 10.453125 194.761719 10.621094 194.683594 10.78125 194.621094 C 10.925781 194.566406 11.074219 194.5 11.21875 194.445312 C 11.253906 194.429688 11.285156 194.394531 11.292969 194.367188 C 11.308594 194.324219 11.3125 194.28125 11.292969 194.253906 Z M 17.363281 178.242188 C 17.300781 177.921875 17.246094 177.585938 17.183594 177.265625 C 17.171875 177.183594 17.097656 177.140625 17.03125 177.144531 C 16.949219 177.160156 16.90625 177.238281 16.910156 177.300781 C 16.953125 177.628906 17.023438 177.96875 17.082031 178.289062 C 17.097656 178.371094 17.171875 178.417969 17.242188 178.398438 C 17.292969 178.386719 17.320312 178.347656 17.335938 178.308594 C 17.359375 178.285156 17.371094 178.257812 17.363281 178.242188 Z M 23.605469 160.902344 C 23.550781 160.847656 23.460938 160.84375 23.40625 160.902344 C 23.175781 161.144531 22.933594 161.378906 22.703125 161.617188 C 22.652344 161.675781 22.644531 161.765625 22.703125 161.820312 C 22.757812 161.871094 22.847656 161.875 22.902344 161.816406 C 23.132812 161.578125 23.375 161.34375 23.605469 161.105469 C 23.625 161.097656 23.632812 161.070312 23.640625 161.054688 C 23.660156 161 23.636719 160.945312 23.605469 160.902344 Z M 28.558594 147.6875 C 28.523438 147.378906 28.480469 147.050781 28.433594 146.6875 C 28.421875 146.605469 28.347656 146.5625 28.28125 146.566406 C 28.199219 146.582031 28.15625 146.660156 28.160156 146.722656 C 28.210938 147.070312 28.253906 147.398438 28.289062 147.710938 C 28.300781 147.792969 28.359375 147.847656 28.441406 147.832031 C 28.492188 147.820312 28.535156 147.789062 28.554688 147.734375 C 28.566406 147.738281 28.566406 147.707031 28.558594 147.6875 Z M 17.03125 175.988281 C 17.007812 175.652344 16.980469 175.328125 16.96875 174.996094 C 16.96875 174.917969 16.898438 174.859375 16.820312 174.863281 C 16.742188 174.863281 16.683594 174.9375 16.6875 175.015625 C 16.695312 175.347656 16.71875 175.683594 16.757812 176.023438 C 16.757812 176.101562 16.828125 176.160156 16.910156 176.144531 C 16.960938 176.132812 17.003906 176.105469 17.023438 176.050781 C 17.027344 176.035156 17.039062 176.007812 17.03125 175.988281 Z M 22.007812 162.550781 C 21.949219 162.5 21.859375 162.496094 21.808594 162.554688 C 21.566406 162.820312 21.335938 163.058594 21.140625 163.296875 C 21.085938 163.355469 21.09375 163.449219 21.152344 163.503906 C 21.207031 163.554688 21.304688 163.546875 21.355469 163.488281 C 21.566406 163.257812 21.785156 163.011719 22.023438 162.746094 C 22.042969 162.738281 22.046875 162.722656 22.058594 162.695312 C 22.0625 162.652344 22.054688 162.585938 22.007812 162.550781 Z M 9.203125 195.140625 C 9.171875 195.066406 9.089844 195.035156 9.015625 195.070312 C 8.683594 195.222656 8.382812 195.355469 8.113281 195.503906 C 8.039062 195.535156 8.007812 195.617188 8.039062 195.691406 C 8.074219 195.769531 8.152344 195.800781 8.226562 195.765625 C 8.511719 195.625 8.796875 195.484375 9.125 195.34375 C 9.164062 195.328125 9.1875 195.304688 9.203125 195.265625 C 9.21875 195.222656 9.21875 195.179688 9.203125 195.140625 Z M 28.269531 145.40625 L 28.125 144.417969 C 28.113281 144.332031 28.039062 144.289062 27.972656 144.296875 C 27.890625 144.308594 27.847656 144.386719 27.851562 144.453125 L 27.992188 145.441406 C 28.007812 145.527344 28.082031 145.570312 28.144531 145.5625 C 28.195312 145.550781 28.238281 145.519531 28.261719 145.464844 C 28.261719 145.464844 28.269531 145.441406 28.269531 145.40625 Z M 20.503906 164.269531 C 20.449219 164.21875 20.351562 164.226562 20.3125 164.289062 C 20.105469 164.554688 19.890625 164.832031 19.695312 165.097656 C 19.65625 165.164062 19.664062 165.257812 19.726562 165.296875 C 19.789062 165.335938 19.882812 165.328125 19.921875 165.265625 C 20.113281 165.007812 20.308594 164.742188 20.535156 164.46875 C 20.539062 164.457031 20.546875 164.441406 20.550781 164.429688 C 20.554688 164.382812 20.546875 164.316406 20.503906 164.269531 Z M 16.957031 173.710938 C 16.964844 173.371094 16.984375 173.035156 17.015625 172.71875 C 17.027344 172.648438 16.960938 172.574219 16.890625 172.5625 C 16.820312 172.550781 16.746094 172.617188 16.734375 172.691406 C 16.699219 173.019531 16.679688 173.355469 16.671875 173.695312 C 16.671875 173.773438 16.722656 173.839844 16.800781 173.839844 C 16.859375 173.847656 16.917969 173.808594 16.941406 173.753906 C 16.953125 173.757812 16.964844 173.730469 16.957031 173.710938 Z M 19.15625 166.140625 C 19.09375 166.101562 19.011719 166.117188 18.96875 166.195312 C 18.78125 166.480469 18.621094 166.777344 18.460938 167.078125 C 18.421875 167.140625 18.449219 167.226562 18.511719 167.265625 C 18.570312 167.304688 18.660156 167.277344 18.699219 167.214844 C 18.855469 166.929688 19.027344 166.636719 19.195312 166.359375 C 19.199219 166.347656 19.199219 166.347656 19.207031 166.332031 C 19.238281 166.25 19.210938 166.164062 19.15625 166.140625 Z M 17.191406 171.460938 C 17.253906 171.140625 17.320312 170.808594 17.394531 170.492188 C 17.40625 170.417969 17.359375 170.339844 17.292969 170.3125 C 17.222656 170.300781 17.148438 170.335938 17.117188 170.417969 C 17.035156 170.746094 16.957031 171.074219 16.902344 171.414062 C 16.890625 171.484375 16.9375 171.566406 17.007812 171.578125 C 17.082031 171.589844 17.140625 171.550781 17.167969 171.484375 C 17.1875 171.472656 17.1875 171.472656 17.191406 171.460938 Z M 27.953125 143.148438 C 27.910156 142.785156 27.867188 142.457031 27.828125 142.160156 C 27.8125 142.078125 27.757812 142.027344 27.675781 142.039062 C 27.59375 142.054688 27.539062 142.113281 27.554688 142.199219 C 27.585938 142.507812 27.628906 142.835938 27.675781 143.195312 C 27.6875 143.28125 27.765625 143.324219 27.828125 143.316406 C 27.878906 143.304688 27.921875 143.277344 27.941406 143.222656 C 27.953125 143.195312 27.957031 143.179688 27.953125 143.148438 Z M 18.0625 168.15625 C 17.996094 168.132812 17.90625 168.160156 17.878906 168.226562 C 17.746094 168.535156 17.625 168.847656 17.5 169.175781 C 17.476562 169.242188 17.515625 169.335938 17.589844 169.347656 C 17.65625 169.375 17.746094 169.332031 17.761719 169.257812 C 17.867188 168.941406 18 168.632812 18.128906 168.339844 C 18.160156 168.257812 18.128906 168.183594 18.0625 168.15625 Z M 7.160156 196.152344 C 7.121094 196.089844 7.042969 196.058594 6.96875 196.09375 C 6.671875 196.261719 6.386719 196.449219 6.117188 196.625 C 6.058594 196.664062 6.039062 196.75 6.074219 196.828125 C 6.109375 196.886719 6.195312 196.90625 6.269531 196.871094 C 6.539062 196.691406 6.820312 196.519531 7.101562 196.347656 C 7.125 196.324219 7.148438 196.300781 7.15625 196.273438 C 7.1875 196.238281 7.175781 196.1875 7.160156 196.152344 Z M 27.707031 140.882812 C 27.671875 140.527344 27.65625 140.207031 27.640625 139.890625 C 27.640625 139.8125 27.570312 139.753906 27.496094 139.753906 C 27.417969 139.757812 27.359375 139.828125 27.359375 139.90625 C 27.375 140.222656 27.398438 140.5625 27.429688 140.917969 C 27.433594 140.996094 27.5 141.054688 27.585938 141.039062 C 27.632812 141.027344 27.675781 140.996094 27.699219 140.941406 C 27.703125 140.929688 27.695312 140.910156 27.707031 140.882812 Z M 5.269531 197.441406 C 5.21875 197.375 5.128906 197.371094 5.074219 197.425781 C 4.820312 197.65625 4.5625 197.886719 4.332031 198.125 C 4.277344 198.183594 4.273438 198.273438 4.332031 198.328125 C 4.386719 198.382812 4.476562 198.382812 4.53125 198.328125 C 4.753906 198.101562 5 197.867188 5.25 197.652344 C 5.269531 197.640625 5.277344 197.613281 5.289062 197.585938 C 5.308594 197.535156 5.316406 197.472656 5.269531 197.441406 Z M 27.609375 138.613281 C 27.617188 138.273438 27.625 137.933594 27.65625 137.617188 C 27.65625 137.535156 27.605469 137.46875 27.527344 137.472656 C 27.449219 137.472656 27.382812 137.527344 27.382812 137.605469 C 27.367188 137.925781 27.339844 138.273438 27.347656 138.621094 C 27.347656 138.699219 27.414062 138.769531 27.488281 138.769531 C 27.546875 138.777344 27.597656 138.730469 27.617188 138.675781 C 27.601562 138.640625 27.605469 138.625 27.609375 138.613281 Z M 3.6875 199.082031 C 3.628906 199.042969 3.53125 199.050781 3.492188 199.113281 C 3.296875 199.382812 3.097656 199.664062 2.921875 199.957031 C 2.882812 200.019531 2.910156 200.109375 2.972656 200.148438 C 3.035156 200.1875 3.121094 200.160156 3.160156 200.097656 C 3.328125 199.816406 3.515625 199.53125 3.707031 199.273438 C 3.710938 199.261719 3.71875 199.246094 3.722656 199.234375 C 3.757812 199.183594 3.738281 199.113281 3.6875 199.082031 Z M 27.792969 136.339844 C 27.839844 136.015625 27.90625 135.683594 27.984375 135.367188 C 27.996094 135.292969 27.949219 135.214844 27.878906 135.203125 C 27.804688 135.191406 27.726562 135.238281 27.714844 135.3125 C 27.632812 135.640625 27.566406 135.972656 27.511719 136.3125 C 27.5 136.382812 27.546875 136.464844 27.636719 136.46875 C 27.710938 136.480469 27.769531 136.441406 27.796875 136.375 C 27.78125 136.367188 27.789062 136.355469 27.792969 136.339844 Z M 2.507812 201.078125 C 2.441406 201.054688 2.351562 201.082031 2.328125 201.148438 C 2.25 201.308594 2.132812 201.621094 2.132812 201.621094 L 2.398438 201.722656 C 2.398438 201.722656 2.519531 201.410156 2.589844 201.265625 C 2.601562 201.191406 2.574219 201.105469 2.507812 201.078125 Z M 2.507812 201.078125 " fill-opacity="1" fill-rule="nonzero"/></g></g></g><g clip-path="url(#id13)"><g clip-path="url(#id14)"><g clip-path="url(#id15)"><path fill="rgb(93.728638%, 17.248535%, 37.249756%)" d="M 45.59375 122.195312 C 45.339844 122.847656 45.027344 123.460938 44.640625 124.03125 C 42.863281 126.707031 40.085938 127.871094 37.398438 128.996094 C 34.203125 130.332031 31.464844 131.480469 30.140625 134.921875 L 26.09375 133.367188 C 28.101562 128.140625 32.355469 126.359375 35.789062 124.925781 C 38.058594 123.972656 40.027344 123.152344 41.070312 121.597656 C 42.261719 119.808594 42.328125 116.835938 41.25 112.503906 C 40.042969 107.574219 40.289062 103.34375 42.03125 99.5625 C 43.527344 96.3125 45.882812 93.921875 47.953125 91.8125 C 50.816406 88.898438 52.570312 86.964844 52.4375 84.199219 C 52.324219 81.78125 52.023438 79.648438 51.734375 77.605469 C 51.132812 73.265625 50.609375 69.519531 52.21875 65.328125 L 56.265625 66.882812 C 55.074219 69.984375 55.503906 73.054688 56.054688 76.9375 C 56.34375 78.980469 56.667969 81.324219 56.796875 83.949219 C 57.027344 88.816406 53.964844 91.917969 51.023438 94.910156 C 47.078125 98.921875 43.335938 102.71875 45.476562 111.394531 C 46.585938 115.972656 46.636719 119.472656 45.59375 122.195312 Z M 45.59375 122.195312 " fill-opacity="1" fill-rule="nonzero"/><path fill="rgb(93.728638%, 17.248535%, 37.249756%)" d="M 55.5 77.019531 C 54.9375 73.054688 54.5 69.921875 55.746094 66.683594 L 56.011719 66.785156 C 54.792969 69.957031 55.226562 73.058594 55.777344 76.984375 C 56.0625 79.03125 56.394531 81.359375 56.515625 83.964844 C 56.734375 88.703125 53.726562 91.75 50.8125 94.707031 C 46.792969 98.78125 43.003906 102.621094 45.1875 111.46875 C 46.296875 116.003906 46.355469 119.445312 45.332031 122.113281 C 45.085938 122.75 44.785156 123.339844 44.417969 123.898438 C 42.683594 126.496094 39.941406 127.644531 37.292969 128.753906 C 34.1875 130.058594 31.246094 131.285156 29.882812 134.839844 L 29.617188 134.734375 C 31.027344 131.0625 34.023438 129.808594 37.199219 128.480469 C 39.808594 127.390625 42.5 126.253906 44.1875 123.734375 C 44.546875 123.199219 44.84375 122.625 45.085938 122 C 46.085938 119.386719 46.023438 116.003906 44.929688 111.542969 C 42.707031 102.554688 46.746094 98.46875 50.625 94.507812 C 53.492188 91.597656 56.453125 88.597656 56.230469 83.984375 C 56.113281 81.375 55.773438 79.0625 55.5 77.019531 Z M 52.027344 77.558594 C 52.324219 79.625 52.613281 81.75 52.734375 84.1875 C 52.867188 87.078125 51.082031 89.046875 48.164062 92.019531 C 46.101562 94.113281 43.765625 96.480469 42.289062 99.691406 C 40.585938 103.410156 40.328125 107.589844 41.519531 112.433594 C 42.613281 116.851562 42.535156 119.898438 41.296875 121.765625 C 40.210938 123.394531 38.203125 124.230469 35.898438 125.203125 C 34.144531 125.933594 32.335938 126.691406 30.660156 127.90625 C 28.652344 129.339844 27.242188 131.171875 26.359375 133.46875 L 26.628906 133.574219 C 27.488281 131.328125 28.863281 129.542969 30.820312 128.125 C 32.460938 126.929688 34.25 126.179688 36 125.460938 C 38.355469 124.476562 40.386719 123.617188 41.523438 121.929688 C 42.816406 120.003906 42.898438 116.867188 41.792969 112.367188 C 39.128906 101.570312 44.25 96.386719 48.347656 92.214844 C 51.039062 89.484375 53.152344 87.328125 53.003906 84.164062 C 52.886719 81.714844 52.585938 79.585938 52.289062 77.519531 C 51.703125 73.25 51.1875 69.570312 52.738281 65.527344 L 52.484375 65.429688 C 50.902344 69.554688 51.421875 73.269531 52.027344 77.558594 Z M 52.027344 77.558594 " fill-opacity="1" fill-rule="nonzero"/></g></g></g><g clip-path="url(#id16)"><g clip-path="url(#id17)"><g clip-path="url(#id18)"><path fill="rgb(93.728638%, 93.728638%, 93.728638%)" d="M 54.203125 66.621094 C 54.179688 66.691406 54.097656 66.738281 54.03125 66.710938 C 53.964844 66.6875 53.917969 66.605469 53.945312 66.539062 C 54.003906 66.390625 54.113281 66.058594 54.113281 66.058594 L 54.382812 66.160156 C 54.367188 66.15625 54.246094 66.46875 54.203125 66.621094 Z M 43.839844 121.085938 C 43.867188 121.019531 43.828125 120.925781 43.753906 120.914062 C 43.6875 120.886719 43.609375 120.933594 43.582031 121.003906 C 43.476562 121.320312 43.355469 121.632812 43.21875 121.910156 C 43.191406 121.976562 43.21875 122.066406 43.28125 122.105469 C 43.347656 122.128906 43.4375 122.101562 43.476562 122.039062 C 43.5625 121.851562 43.644531 121.679688 43.714844 121.492188 C 43.753906 121.351562 43.792969 121.207031 43.839844 121.085938 Z M 44.144531 119.8125 C 44.207031 119.492188 44.246094 119.148438 44.273438 118.800781 C 44.273438 118.722656 44.222656 118.65625 44.148438 118.644531 C 44.074219 118.644531 44.007812 118.699219 43.992188 118.769531 C 43.972656 119.105469 43.917969 119.445312 43.875 119.757812 C 43.863281 119.828125 43.910156 119.910156 43.996094 119.925781 C 44.066406 119.9375 44.128906 119.898438 44.152344 119.832031 C 44.140625 119.828125 44.144531 119.8125 44.144531 119.8125 Z M 42.753906 122.964844 C 42.691406 122.925781 42.59375 122.933594 42.554688 122.996094 C 42.367188 123.25 42.144531 123.511719 41.917969 123.734375 C 41.867188 123.792969 41.863281 123.886719 41.917969 123.9375 C 41.972656 123.992188 42.066406 123.996094 42.117188 123.9375 C 42.367188 123.6875 42.589844 123.429688 42.78125 123.164062 C 42.789062 123.148438 42.792969 123.136719 42.796875 123.121094 C 42.820312 123.066406 42.8125 123.003906 42.753906 122.964844 Z M 44.3125 117.503906 C 44.316406 117.175781 44.289062 116.839844 44.273438 116.488281 C 44.269531 116.410156 44.203125 116.351562 44.125 116.355469 C 44.046875 116.355469 43.988281 116.425781 43.988281 116.503906 C 44.011719 116.84375 44.023438 117.175781 44.039062 117.492188 C 44.039062 117.570312 44.109375 117.628906 44.1875 117.628906 C 44.25 117.621094 44.292969 117.589844 44.316406 117.535156 C 44.300781 117.53125 44.304688 117.515625 44.3125 117.503906 Z M 41.175781 124.589844 C 41.125 124.523438 41.039062 124.507812 40.988281 124.566406 C 40.734375 124.75 40.460938 124.941406 40.164062 125.109375 C 40.105469 125.148438 40.074219 125.230469 40.117188 125.308594 C 40.15625 125.371094 40.238281 125.402344 40.316406 125.355469 C 40.617188 125.171875 40.902344 124.984375 41.164062 124.789062 C 41.1875 124.765625 41.203125 124.757812 41.214844 124.730469 C 41.203125 124.679688 41.191406 124.628906 41.175781 124.589844 Z M 44.125 115.199219 C 44.082031 114.871094 44.023438 114.535156 43.96875 114.203125 C 43.957031 114.121094 43.878906 114.074219 43.8125 114.09375 C 43.730469 114.109375 43.683594 114.1875 43.703125 114.257812 C 43.757812 114.589844 43.816406 114.925781 43.863281 115.238281 C 43.875 115.324219 43.953125 115.367188 44.015625 115.359375 C 44.066406 115.347656 44.109375 115.316406 44.128906 115.261719 C 44.132812 115.25 44.132812 115.21875 44.125 115.199219 Z M 54.339844 87.035156 C 54.449219 86.703125 54.542969 86.378906 54.609375 86.046875 C 54.625 85.972656 54.578125 85.894531 54.507812 85.882812 C 54.433594 85.867188 54.355469 85.917969 54.339844 85.988281 C 54.28125 86.308594 54.1875 86.632812 54.085938 86.9375 C 54.058594 87.003906 54.101562 87.097656 54.171875 87.109375 C 54.234375 87.148438 54.308594 87.117188 54.339844 87.035156 Z M 53.765625 88.046875 C 53.703125 88.007812 53.617188 88.039062 53.570312 88.113281 C 53.429688 88.402344 53.261719 88.683594 53.074219 88.96875 C 53.035156 89.03125 53.050781 89.117188 53.121094 89.175781 C 53.179688 89.214844 53.261719 89.199219 53.320312 89.125 C 53.507812 88.839844 53.6875 88.53125 53.828125 88.242188 C 53.828125 88.242188 53.835938 88.230469 53.835938 88.230469 C 53.859375 88.164062 53.828125 88.085938 53.765625 88.046875 Z M 39.234375 125.78125 C 39.199219 125.707031 39.113281 125.6875 39.046875 125.710938 C 38.78125 125.839844 38.484375 125.976562 38.148438 126.128906 C 38.074219 126.164062 38.042969 126.246094 38.074219 126.320312 C 38.109375 126.394531 38.1875 126.425781 38.261719 126.390625 C 38.597656 126.238281 38.894531 126.105469 39.164062 125.957031 C 39.203125 125.941406 39.226562 125.917969 39.242188 125.878906 C 39.246094 125.863281 39.25 125.816406 39.234375 125.78125 Z M 54.757812 84.746094 C 54.769531 84.515625 54.761719 84.292969 54.761719 84.058594 C 54.757812 83.949219 54.753906 83.835938 54.75 83.726562 C 54.75 83.648438 54.679688 83.589844 54.601562 83.589844 C 54.527344 83.59375 54.46875 83.664062 54.46875 83.742188 C 54.472656 83.855469 54.476562 83.964844 54.480469 84.074219 C 54.484375 84.296875 54.492188 84.515625 54.488281 84.734375 C 54.488281 84.8125 54.539062 84.878906 54.617188 84.875 C 54.675781 84.882812 54.734375 84.84375 54.757812 84.789062 C 54.761719 84.777344 54.765625 84.761719 54.757812 84.746094 Z M 52.546875 89.984375 C 52.492188 89.933594 52.394531 89.941406 52.355469 90.003906 C 52.164062 90.261719 51.949219 90.503906 51.722656 90.777344 C 51.667969 90.835938 51.679688 90.929688 51.734375 90.984375 C 51.789062 91.035156 51.886719 91.027344 51.9375 90.96875 C 52.167969 90.695312 52.386719 90.4375 52.578125 90.183594 C 52.582031 90.171875 52.589844 90.15625 52.59375 90.144531 C 52.609375 90.101562 52.589844 90.03125 52.546875 89.984375 Z M 43.71875 112.9375 C 43.660156 112.617188 43.570312 112.285156 43.496094 111.960938 C 43.476562 111.890625 43.402344 111.847656 43.320312 111.859375 C 43.25 111.882812 43.207031 111.957031 43.21875 112.042969 C 43.292969 112.367188 43.382812 112.695312 43.441406 113.015625 C 43.460938 113.085938 43.53125 113.144531 43.613281 113.128906 C 43.664062 113.117188 43.695312 113.082031 43.710938 113.042969 C 43.730469 112.988281 43.734375 112.972656 43.71875 112.9375 Z M 51.058594 91.742188 C 51.003906 91.6875 50.914062 91.683594 50.859375 91.742188 C 50.65625 91.960938 50.425781 92.199219 50.171875 92.460938 C 50.117188 92.519531 50.113281 92.609375 50.167969 92.664062 C 50.226562 92.714844 50.316406 92.71875 50.371094 92.660156 C 50.628906 92.386719 50.851562 92.160156 51.066406 91.929688 C 51.082031 91.921875 51.089844 91.90625 51.097656 91.878906 C 51.113281 91.839844 51.09375 91.769531 51.058594 91.742188 Z M 54.660156 82.441406 C 54.632812 82.121094 54.609375 81.78125 54.570312 81.441406 C 54.570312 81.363281 54.5 81.304688 54.417969 81.320312 C 54.339844 81.320312 54.28125 81.390625 54.296875 81.476562 C 54.332031 81.816406 54.359375 82.15625 54.386719 82.476562 C 54.386719 82.554688 54.457031 82.613281 54.539062 82.597656 C 54.589844 82.585938 54.632812 82.558594 54.652344 82.503906 C 54.660156 82.488281 54.65625 82.457031 54.660156 82.441406 Z M 37.152344 126.730469 C 37.117188 126.65625 37.039062 126.625 36.964844 126.660156 C 36.820312 126.710938 36.671875 126.78125 36.527344 126.835938 C 36.367188 126.898438 36.199219 126.972656 36.035156 127.035156 C 35.960938 127.070312 35.929688 127.152344 35.964844 127.226562 C 35.996094 127.300781 36.078125 127.332031 36.152344 127.296875 C 36.3125 127.234375 36.480469 127.160156 36.640625 127.097656 C 36.785156 127.042969 36.933594 126.976562 37.078125 126.921875 C 37.113281 126.902344 37.144531 126.867188 37.15625 126.839844 C 37.171875 126.800781 37.171875 126.753906 37.152344 126.730469 Z M 43.222656 110.714844 C 43.160156 110.394531 43.105469 110.0625 43.046875 109.742188 C 43.03125 109.65625 42.957031 109.613281 42.890625 109.621094 C 42.808594 109.636719 42.765625 109.710938 42.769531 109.777344 C 42.8125 110.105469 42.882812 110.445312 42.945312 110.765625 C 42.957031 110.847656 43.03125 110.890625 43.101562 110.871094 C 43.152344 110.859375 43.179688 110.824219 43.195312 110.785156 C 43.222656 110.761719 43.230469 110.734375 43.222656 110.714844 Z M 49.464844 93.375 C 49.410156 93.324219 49.320312 93.320312 49.265625 93.378906 C 49.035156 93.617188 48.792969 93.851562 48.5625 94.089844 C 48.511719 94.148438 48.503906 94.242188 48.5625 94.292969 C 48.617188 94.347656 48.710938 94.351562 48.761719 94.292969 C 48.992188 94.054688 49.234375 93.820312 49.464844 93.578125 C 49.484375 93.570312 49.496094 93.542969 49.5 93.53125 C 49.519531 93.476562 49.496094 93.417969 49.464844 93.375 Z M 54.417969 80.164062 C 54.382812 79.851562 54.339844 79.523438 54.292969 79.164062 C 54.28125 79.082031 54.207031 79.035156 54.140625 79.042969 C 54.058594 79.058594 54.015625 79.132812 54.019531 79.199219 C 54.070312 79.546875 54.113281 79.875 54.148438 80.183594 C 54.160156 80.269531 54.21875 80.320312 54.300781 80.304688 C 54.351562 80.292969 54.394531 80.265625 54.414062 80.210938 C 54.429688 80.214844 54.425781 80.183594 54.417969 80.164062 Z M 42.890625 108.464844 C 42.867188 108.128906 42.839844 107.804688 42.828125 107.472656 C 42.828125 107.394531 42.757812 107.335938 42.679688 107.335938 C 42.601562 107.339844 42.546875 107.410156 42.546875 107.488281 C 42.554688 107.820312 42.578125 108.15625 42.617188 108.5 C 42.617188 108.578125 42.6875 108.636719 42.769531 108.621094 C 42.820312 108.609375 42.863281 108.578125 42.882812 108.523438 C 42.890625 108.511719 42.898438 108.484375 42.890625 108.464844 Z M 47.867188 95.027344 C 47.8125 94.972656 47.71875 94.96875 47.667969 95.027344 C 47.425781 95.292969 47.195312 95.535156 47 95.769531 C 46.945312 95.828125 46.953125 95.925781 47.011719 95.976562 C 47.066406 96.03125 47.164062 96.019531 47.214844 95.964844 C 47.425781 95.730469 47.644531 95.488281 47.882812 95.222656 C 47.902344 95.210938 47.910156 95.199219 47.917969 95.171875 C 47.921875 95.125 47.914062 95.0625 47.867188 95.027344 Z M 35.0625 127.613281 C 35.03125 127.539062 34.949219 127.507812 34.875 127.542969 C 34.542969 127.695312 34.246094 127.832031 33.972656 127.976562 C 33.898438 128.011719 33.867188 128.09375 33.902344 128.167969 C 33.933594 128.242188 34.011719 128.273438 34.085938 128.238281 C 34.371094 128.097656 34.65625 127.957031 34.984375 127.820312 C 35.023438 127.800781 35.046875 127.78125 35.0625 127.738281 C 35.078125 127.699219 35.078125 127.652344 35.0625 127.613281 Z M 54.128906 77.882812 L 53.988281 76.890625 C 53.972656 76.808594 53.898438 76.761719 53.835938 76.769531 C 53.75 76.785156 53.707031 76.863281 53.710938 76.925781 L 53.851562 77.917969 C 53.867188 78 53.941406 78.046875 54.007812 78.039062 C 54.058594 78.027344 54.097656 77.996094 54.121094 77.941406 C 54.121094 77.941406 54.128906 77.914062 54.128906 77.882812 Z M 46.363281 96.746094 C 46.308594 96.691406 46.210938 96.703125 46.171875 96.765625 C 45.964844 97.027344 45.75 97.304688 45.554688 97.574219 C 45.515625 97.636719 45.523438 97.734375 45.585938 97.773438 C 45.648438 97.8125 45.742188 97.800781 45.78125 97.738281 C 45.972656 97.484375 46.167969 97.214844 46.394531 96.945312 C 46.398438 96.929688 46.40625 96.917969 46.410156 96.902344 C 46.414062 96.855469 46.40625 96.792969 46.363281 96.746094 Z M 42.816406 106.1875 C 42.824219 105.847656 42.84375 105.511719 42.875 105.195312 C 42.886719 105.121094 42.824219 105.050781 42.75 105.039062 C 42.679688 105.027344 42.605469 105.09375 42.59375 105.164062 C 42.558594 105.496094 42.539062 105.832031 42.53125 106.171875 C 42.53125 106.25 42.582031 106.316406 42.660156 106.316406 C 42.71875 106.320312 42.777344 106.28125 42.800781 106.226562 C 42.8125 106.234375 42.824219 106.207031 42.816406 106.1875 Z M 45.015625 98.617188 C 44.957031 98.578125 44.871094 98.59375 44.828125 98.667969 C 44.640625 98.957031 44.480469 99.253906 44.320312 99.550781 C 44.28125 99.613281 44.308594 99.703125 44.371094 99.742188 C 44.429688 99.78125 44.519531 99.753906 44.558594 99.691406 C 44.714844 99.40625 44.886719 99.113281 45.054688 98.835938 C 45.0625 98.820312 45.0625 98.820312 45.066406 98.808594 C 45.097656 98.726562 45.070312 98.636719 45.015625 98.617188 Z M 43.050781 103.9375 C 43.113281 103.617188 43.179688 103.28125 43.253906 102.96875 C 43.265625 102.894531 43.222656 102.8125 43.15625 102.789062 C 43.082031 102.777344 43.007812 102.808594 42.976562 102.890625 C 42.898438 103.21875 42.816406 103.546875 42.761719 103.886719 C 42.75 103.960938 42.796875 104.039062 42.867188 104.050781 C 42.941406 104.066406 43 104.027344 43.027344 103.957031 C 43.046875 103.949219 43.046875 103.949219 43.050781 103.9375 Z M 53.816406 75.621094 C 53.769531 75.261719 53.726562 74.933594 53.6875 74.636719 C 53.671875 74.554688 53.617188 74.5 53.535156 74.515625 C 53.453125 74.53125 53.398438 74.589844 53.414062 74.671875 C 53.449219 74.980469 53.488281 75.3125 53.535156 75.671875 C 53.550781 75.753906 53.625 75.800781 53.6875 75.792969 C 53.738281 75.78125 53.78125 75.75 53.800781 75.695312 C 53.8125 75.667969 53.816406 75.65625 53.816406 75.621094 Z M 43.921875 100.632812 C 43.855469 100.605469 43.765625 100.632812 43.742188 100.703125 C 43.605469 101.011719 43.488281 101.324219 43.363281 101.648438 C 43.335938 101.71875 43.375 101.8125 43.449219 101.824219 C 43.515625 101.847656 43.609375 101.808594 43.621094 101.734375 C 43.726562 101.414062 43.859375 101.109375 43.988281 100.8125 C 44.019531 100.730469 43.988281 100.65625 43.921875 100.632812 Z M 33.019531 128.625 C 32.980469 128.566406 32.902344 128.535156 32.828125 128.566406 C 32.53125 128.734375 32.246094 128.921875 31.980469 129.101562 C 31.917969 129.140625 31.898438 129.226562 31.933594 129.300781 C 31.96875 129.363281 32.054688 129.378906 32.128906 129.347656 C 32.398438 129.167969 32.679688 128.996094 32.960938 128.820312 C 32.984375 128.800781 33.007812 128.777344 33.019531 128.75 C 33.046875 128.714844 33.035156 128.664062 33.019531 128.625 Z M 53.566406 73.355469 C 53.535156 73 53.519531 72.683594 53.5 72.363281 C 53.5 72.285156 53.429688 72.226562 53.355469 72.230469 C 53.277344 72.230469 53.21875 72.300781 53.21875 72.378906 C 53.234375 72.699219 53.257812 73.035156 53.292969 73.390625 C 53.292969 73.46875 53.363281 73.527344 53.445312 73.511719 C 53.496094 73.5 53.535156 73.46875 53.558594 73.417969 C 53.5625 73.402344 53.554688 73.382812 53.566406 73.355469 Z M 31.128906 129.914062 C 31.078125 129.847656 30.988281 129.84375 30.933594 129.902344 C 30.679688 130.132812 30.421875 130.359375 30.191406 130.601562 C 30.140625 130.660156 30.132812 130.75 30.191406 130.804688 C 30.246094 130.855469 30.335938 130.859375 30.390625 130.800781 C 30.613281 130.574219 30.859375 130.339844 31.109375 130.125 C 31.128906 130.117188 31.140625 130.089844 31.148438 130.0625 C 31.171875 130.007812 31.179688 129.949219 31.128906 129.914062 Z M 53.472656 71.085938 C 53.480469 70.746094 53.488281 70.40625 53.515625 70.089844 C 53.515625 70.011719 53.464844 69.945312 53.386719 69.945312 C 53.308594 69.949219 53.242188 70 53.246094 70.078125 C 53.226562 70.402344 53.203125 70.75 53.207031 71.09375 C 53.207031 71.175781 53.273438 71.246094 53.347656 71.242188 C 53.40625 71.25 53.457031 71.207031 53.476562 71.152344 C 53.460938 71.113281 53.464844 71.101562 53.472656 71.085938 Z M 29.550781 131.554688 C 29.488281 131.515625 29.390625 131.527344 29.351562 131.589844 C 29.15625 131.859375 28.957031 132.140625 28.78125 132.433594 C 28.742188 132.496094 28.769531 132.585938 28.832031 132.625 C 28.894531 132.664062 28.980469 132.632812 29.019531 132.570312 C 29.191406 132.292969 29.375 132.003906 29.566406 131.75 C 29.570312 131.738281 29.578125 131.722656 29.582031 131.710938 C 29.617188 131.660156 29.597656 131.589844 29.550781 131.554688 Z M 53.652344 68.816406 C 53.703125 68.492188 53.769531 68.15625 53.84375 67.84375 C 53.855469 67.769531 53.808594 67.6875 53.738281 67.675781 C 53.664062 67.664062 53.585938 67.710938 53.574219 67.785156 C 53.492188 68.113281 53.425781 68.449219 53.375 68.785156 C 53.359375 68.859375 53.40625 68.9375 53.496094 68.941406 C 53.570312 68.953125 53.628906 68.914062 53.65625 68.847656 C 53.644531 68.84375 53.648438 68.828125 53.652344 68.816406 Z M 28.367188 133.554688 C 28.300781 133.527344 28.214844 133.558594 28.1875 133.625 C 28.109375 133.78125 27.992188 134.097656 27.992188 134.097656 L 28.257812 134.199219 C 28.257812 134.199219 28.378906 133.886719 28.449219 133.742188 C 28.460938 133.667969 28.433594 133.578125 28.367188 133.554688 Z M 28.367188 133.554688 " fill-opacity="1" fill-rule="nonzero"/></g></g></g></svg>