<svg xmlns="http://www.w3.org/2000/svg" xmlns:xlink="http://www.w3.org/1999/xlink" width="40" zoomAndPan="magnify" viewBox="0 0 30 30.000001" height="40" preserveAspectRatio="xMidYMid meet" version="1.0"><defs><clipPath id="id1"><path d="M 0.488281 0.00390625 L 29.515625 0.00390625 L 29.515625 29.03125 L 0.488281 29.03125 Z M 0.488281 0.00390625 " clip-rule="nonzero"/></clipPath></defs><g clip-path="url(#id1)"><path fill="rgb(0%, 0%, 0%)" d="M 29.519531 14.519531 C 29.511719 22.507812 23.0625 29.035156 14.996094 29.03125 C 6.984375 29.027344 0.492188 22.558594 0.492188 14.511719 C 0.496094 6.457031 7.015625 0.0078125 15.007812 0.0078125 C 23.019531 0.00390625 29.519531 6.507812 29.519531 14.519531 Z M 17.511719 17.699219 C 17.511719 15.910156 17.511719 14.125 17.515625 12.335938 C 17.519531 11.660156 17.277344 11.085938 16.777344 10.640625 C 15.988281 9.9375 15.074219 9.789062 14.09375 10.136719 C 13.15625 10.46875 12.527344 11.367188 12.535156 12.386719 C 12.554688 15.949219 12.542969 19.511719 12.539062 23.074219 C 12.539062 25.085938 14.261719 25.425781 15.085938 25.421875 C 16.328125 25.417969 17.542969 24.417969 17.519531 22.984375 C 17.488281 21.222656 17.511719 19.460938 17.511719 17.699219 Z M 17.683594 6.269531 C 17.679688 4.78125 16.496094 3.597656 15.007812 3.597656 C 13.515625 3.597656 12.324219 4.792969 12.328125 6.28125 C 12.328125 7.757812 13.53125 8.957031 15.007812 8.957031 C 16.496094 8.957031 17.683594 7.761719 17.683594 6.269531 Z M 17.683594 6.269531 " fill-opacity="1" fill-rule="nonzero"/></g></svg>