<svg xmlns="http://www.w3.org/2000/svg" xmlns:xlink="http://www.w3.org/1999/xlink" width="243" zoomAndPan="magnify" viewBox="0 0 182.25 30.000001" height="40" preserveAspectRatio="xMidYMid meet" version="1.0"><defs><g><g id="id1"/></g></defs><g fill="rgb(36.079407%, 88.238525%, 90.19928%)" fill-opacity="1"><g transform="translate(5.009823, 18.663266)"><g><path d="M 3.71875 0.515625 C 3.570312 0.554688 3.429688 0.578125 3.296875 0.578125 C 3.160156 0.585938 3.019531 0.59375 2.875 0.59375 C 2.738281 0.601562 2.546875 0.609375 2.296875 0.609375 C 2.054688 0.609375 1.695312 0.601562 1.21875 0.59375 C 1.101562 0.59375 0.988281 0.59375 0.875 0.59375 C 0.757812 0.59375 0.648438 0.570312 0.546875 0.53125 C 0.328125 0.4375 0.175781 0.222656 0.09375 -0.109375 C 0.0625 -0.265625 0.0234375 -0.375 -0.015625 -0.4375 C -0.0664062 -0.5 -0.109375 -0.5625 -0.140625 -0.625 C -0.203125 -0.738281 -0.191406 -0.925781 -0.109375 -1.1875 C -0.0351562 -1.445312 0.0625 -1.769531 0.1875 -2.15625 C 0.320312 -2.550781 0.472656 -2.96875 0.640625 -3.40625 C 1.023438 -4.4375 1.367188 -5.253906 1.671875 -5.859375 C 1.796875 -6.128906 1.898438 -6.363281 1.984375 -6.5625 C 2.078125 -6.769531 2.160156 -6.945312 2.234375 -7.09375 C 2.304688 -7.238281 2.34375 -7.316406 2.34375 -7.328125 C 2.40625 -7.597656 2.675781 -7.820312 3.15625 -8 C 3.625 -8.195312 4.046875 -8.25 4.421875 -8.15625 C 4.847656 -8.050781 5.035156 -7.773438 4.984375 -7.328125 C 4.878906 -6.878906 4.726562 -6.429688 4.53125 -5.984375 C 4.34375 -5.546875 4.125 -5.082031 3.875 -4.59375 C 3.625 -4.113281 3.347656 -3.601562 3.046875 -3.0625 C 2.753906 -2.519531 2.46875 -1.929688 2.1875 -1.296875 C 2.175781 -1.265625 2.191406 -1.238281 2.234375 -1.21875 C 2.328125 -1.226562 2.457031 -1.253906 2.625 -1.296875 C 2.789062 -1.347656 2.960938 -1.394531 3.140625 -1.4375 C 3.328125 -1.476562 3.507812 -1.5 3.6875 -1.5 C 3.863281 -1.5 4.015625 -1.453125 4.140625 -1.359375 C 4.128906 -1.234375 4.160156 -1.128906 4.234375 -1.046875 C 4.304688 -0.972656 4.378906 -0.898438 4.453125 -0.828125 C 4.628906 -0.648438 4.640625 -0.40625 4.484375 -0.09375 C 4.347656 0.207031 4.09375 0.410156 3.71875 0.515625 Z M 3.71875 0.515625 "/></g></g></g><g fill="rgb(36.079407%, 88.238525%, 90.19928%)" fill-opacity="1"><g transform="translate(9.815145, 18.663266)"><g><path d="M 3.734375 -1.578125 C 3.597656 -1.515625 3.460938 -1.460938 3.328125 -1.421875 C 3.203125 -1.390625 3.054688 -1.359375 2.890625 -1.328125 C 2.441406 -1.234375 2.117188 -1.179688 1.921875 -1.171875 C 1.941406 -1.097656 2.046875 -1.007812 2.234375 -0.90625 C 2.359375 -0.882812 2.5 -0.90625 2.65625 -0.96875 C 2.8125 -1.03125 2.972656 -1.085938 3.140625 -1.140625 C 3.304688 -1.191406 3.46875 -1.21875 3.625 -1.21875 C 3.789062 -1.226562 3.945312 -1.171875 4.09375 -1.046875 C 4.144531 -0.921875 4.1875 -0.847656 4.21875 -0.828125 C 4.257812 -0.804688 4.289062 -0.796875 4.3125 -0.796875 C 4.34375 -0.796875 4.375 -0.785156 4.40625 -0.765625 C 4.445312 -0.742188 4.5 -0.660156 4.5625 -0.515625 C 4.632812 -0.367188 4.617188 -0.234375 4.515625 -0.109375 C 4.410156 0.015625 4.25 0.125 4.03125 0.21875 C 3.820312 0.3125 3.578125 0.382812 3.296875 0.4375 C 3.015625 0.5 2.726562 0.539062 2.4375 0.5625 C 1.800781 0.613281 1.3125 0.566406 0.96875 0.421875 C 0.488281 0.253906 0.175781 -0.0703125 0.03125 -0.5625 C -0.15625 -1.195312 -0.0507812 -1.941406 0.34375 -2.796875 C 0.519531 -3.203125 0.800781 -3.632812 1.1875 -4.09375 C 1.519531 -4.488281 1.894531 -4.773438 2.3125 -4.953125 C 2.789062 -5.160156 3.289062 -5.257812 3.8125 -5.25 C 4.363281 -5.226562 4.75 -4.984375 4.96875 -4.515625 C 5.070312 -4.265625 5.09375 -3.914062 5.03125 -3.46875 C 4.914062 -2.882812 4.765625 -2.46875 4.578125 -2.21875 C 4.390625 -1.988281 4.109375 -1.773438 3.734375 -1.578125 Z M 3.109375 -3.28125 C 2.734375 -3.351562 2.4375 -3.140625 2.21875 -2.640625 C 2.15625 -2.492188 2.109375 -2.347656 2.078125 -2.203125 C 2.316406 -2.171875 2.570312 -2.304688 2.84375 -2.609375 C 2.945312 -2.734375 3.019531 -2.859375 3.0625 -2.984375 C 3.113281 -3.109375 3.128906 -3.207031 3.109375 -3.28125 Z M 3.109375 -3.28125 "/></g></g></g><g fill="rgb(36.079407%, 88.238525%, 90.19928%)" fill-opacity="1"><g transform="translate(14.781002, 18.663266)"><g><path d="M 3.734375 -1.578125 C 3.597656 -1.515625 3.460938 -1.460938 3.328125 -1.421875 C 3.203125 -1.390625 3.054688 -1.359375 2.890625 -1.328125 C 2.441406 -1.234375 2.117188 -1.179688 1.921875 -1.171875 C 1.941406 -1.097656 2.046875 -1.007812 2.234375 -0.90625 C 2.359375 -0.882812 2.5 -0.90625 2.65625 -0.96875 C 2.8125 -1.03125 2.972656 -1.085938 3.140625 -1.140625 C 3.304688 -1.191406 3.46875 -1.21875 3.625 -1.21875 C 3.789062 -1.226562 3.945312 -1.171875 4.09375 -1.046875 C 4.144531 -0.921875 4.1875 -0.847656 4.21875 -0.828125 C 4.257812 -0.804688 4.289062 -0.796875 4.3125 -0.796875 C 4.34375 -0.796875 4.375 -0.785156 4.40625 -0.765625 C 4.445312 -0.742188 4.5 -0.660156 4.5625 -0.515625 C 4.632812 -0.367188 4.617188 -0.234375 4.515625 -0.109375 C 4.410156 0.015625 4.25 0.125 4.03125 0.21875 C 3.820312 0.3125 3.578125 0.382812 3.296875 0.4375 C 3.015625 0.5 2.726562 0.539062 2.4375 0.5625 C 1.800781 0.613281 1.3125 0.566406 0.96875 0.421875 C 0.488281 0.253906 0.175781 -0.0703125 0.03125 -0.5625 C -0.15625 -1.195312 -0.0507812 -1.941406 0.34375 -2.796875 C 0.519531 -3.203125 0.800781 -3.632812 1.1875 -4.09375 C 1.519531 -4.488281 1.894531 -4.773438 2.3125 -4.953125 C 2.789062 -5.160156 3.289062 -5.257812 3.8125 -5.25 C 4.363281 -5.226562 4.75 -4.984375 4.96875 -4.515625 C 5.070312 -4.265625 5.09375 -3.914062 5.03125 -3.46875 C 4.914062 -2.882812 4.765625 -2.46875 4.578125 -2.21875 C 4.390625 -1.988281 4.109375 -1.773438 3.734375 -1.578125 Z M 3.109375 -3.28125 C 2.734375 -3.351562 2.4375 -3.140625 2.21875 -2.640625 C 2.15625 -2.492188 2.109375 -2.347656 2.078125 -2.203125 C 2.316406 -2.171875 2.570312 -2.304688 2.84375 -2.609375 C 2.945312 -2.734375 3.019531 -2.859375 3.0625 -2.984375 C 3.113281 -3.109375 3.128906 -3.207031 3.109375 -3.28125 Z M 3.109375 -3.28125 "/></g></g></g><g fill="rgb(36.079407%, 88.238525%, 90.19928%)" fill-opacity="1"><g transform="translate(19.746859, 18.663266)"><g/></g></g><g fill="rgb(36.079407%, 88.238525%, 90.19928%)" fill-opacity="1"><g transform="translate(22.893327, 18.663266)"><g><path d="M 2.171875 -4.375 C 2.429688 -4.550781 2.734375 -4.601562 3.078125 -4.53125 C 3.421875 -4.457031 3.613281 -4.3125 3.65625 -4.09375 C 3.71875 -4.226562 3.757812 -4.363281 3.78125 -4.5 C 4.101562 -5.945312 4.457031 -7.050781 4.84375 -7.8125 C 4.96875 -8.050781 5.09375 -8.21875 5.21875 -8.3125 C 5.550781 -8.519531 5.90625 -8.546875 6.28125 -8.390625 C 6.425781 -8.328125 6.539062 -8.238281 6.625 -8.125 C 6.71875 -8.019531 6.753906 -7.921875 6.734375 -7.828125 C 6.710938 -7.734375 6.71875 -7.65625 6.75 -7.59375 C 6.789062 -7.539062 6.832031 -7.484375 6.875 -7.421875 C 6.988281 -7.285156 7.035156 -7.171875 7.015625 -7.078125 C 6.867188 -6.515625 6.675781 -5.929688 6.4375 -5.328125 C 6.195312 -4.722656 5.953125 -4.117188 5.703125 -3.515625 C 5.453125 -2.921875 5.222656 -2.332031 5.015625 -1.75 C 4.816406 -1.164062 4.6875 -0.613281 4.625 -0.09375 C 4.625 0.0390625 4.566406 0.160156 4.453125 0.265625 C 4.335938 0.378906 4.195312 0.46875 4.03125 0.53125 C 3.625 0.675781 3.242188 0.648438 2.890625 0.453125 L 2.890625 0.390625 C 2.816406 0.367188 2.765625 0.351562 2.734375 0.34375 C 2.703125 0.332031 2.679688 0.316406 2.671875 0.296875 C 2.648438 0.265625 2.628906 0.15625 2.609375 -0.03125 C 2.460938 0.1875 2.320312 0.320312 2.1875 0.375 C 2.050781 0.425781 1.914062 0.453125 1.78125 0.453125 C 1.082031 0.453125 0.585938 0.328125 0.296875 0.078125 C 0.046875 -0.140625 -0.0703125 -0.488281 -0.0625 -0.96875 C -0.0507812 -1.507812 0.144531 -2.117188 0.53125 -2.796875 C 0.976562 -3.554688 1.523438 -4.082031 2.171875 -4.375 Z M 2.15625 -0.859375 C 2.382812 -0.785156 2.546875 -0.84375 2.640625 -1.03125 C 2.679688 -1.125 2.722656 -1.242188 2.765625 -1.390625 C 2.816406 -1.535156 2.878906 -1.710938 2.953125 -1.921875 L 3 -2.125 C 2.820312 -2.226562 2.664062 -2.242188 2.53125 -2.171875 C 2.394531 -2.097656 2.28125 -1.984375 2.1875 -1.828125 C 2.101562 -1.679688 2.050781 -1.515625 2.03125 -1.328125 C 2.019531 -1.148438 2.0625 -0.992188 2.15625 -0.859375 Z M 2.15625 -0.859375 "/></g></g></g><g fill="rgb(36.079407%, 88.238525%, 90.19928%)" fill-opacity="1"><g transform="translate(28.501319, 18.663266)"><g><path d="M 4.90625 -4.59375 L 4.9375 -4.578125 C 4.957031 -4.578125 4.96875 -4.570312 4.96875 -4.5625 C 5.15625 -4.632812 5.304688 -4.582031 5.421875 -4.40625 C 5.503906 -4.289062 5.566406 -4.109375 5.609375 -3.859375 C 5.617188 -3.515625 5.582031 -3.035156 5.5 -2.421875 C 5.332031 -1.203125 5.242188 -0.472656 5.234375 -0.234375 C 5.242188 0.015625 5.09375 0.1875 4.78125 0.28125 C 4.5 0.363281 4.21875 0.359375 3.9375 0.265625 C 3.644531 0.171875 3.523438 0.0195312 3.578125 -0.1875 C 3.515625 -0.0820312 3.453125 -0.0078125 3.390625 0.03125 C 3.335938 0.0820312 3.226562 0.148438 3.0625 0.234375 C 2.894531 0.316406 2.65625 0.382812 2.34375 0.4375 C 2.039062 0.488281 1.734375 0.5 1.421875 0.46875 C 1.117188 0.445312 0.84375 0.375 0.59375 0.25 C 0.34375 0.125 0.171875 -0.0664062 0.078125 -0.328125 C -0.078125 -0.847656 -0.0507812 -1.503906 0.15625 -2.296875 C 0.289062 -2.816406 0.546875 -3.273438 0.921875 -3.671875 C 1.347656 -4.128906 1.832031 -4.507812 2.375 -4.8125 C 2.78125 -5.03125 3.171875 -5.160156 3.546875 -5.203125 C 3.679688 -5.210938 3.796875 -5.207031 3.890625 -5.1875 C 3.984375 -5.164062 4.082031 -5.144531 4.1875 -5.125 C 4.300781 -5.101562 4.410156 -5.070312 4.515625 -5.03125 C 4.773438 -4.925781 4.90625 -4.78125 4.90625 -4.59375 Z M 2.921875 -1.75 C 2.972656 -1.851562 3.015625 -1.976562 3.046875 -2.125 C 3.078125 -2.28125 3.117188 -2.445312 3.171875 -2.625 C 2.597656 -2.382812 2.160156 -2.09375 1.859375 -1.75 C 1.515625 -1.375 1.535156 -1.113281 1.921875 -0.96875 C 2.242188 -0.882812 2.484375 -0.941406 2.640625 -1.140625 C 2.703125 -1.222656 2.753906 -1.328125 2.796875 -1.453125 C 2.847656 -1.578125 2.910156 -1.710938 2.984375 -1.859375 C 2.960938 -1.816406 2.941406 -1.78125 2.921875 -1.75 Z M 2.921875 -1.75 "/></g></g></g><g fill="rgb(36.079407%, 88.238525%, 90.19928%)" fill-opacity="1"><g transform="translate(34.045097, 18.663266)"><g><path d="M 1.78125 -4.640625 C 2.257812 -4.828125 2.582031 -4.828125 2.75 -4.640625 C 2.832031 -4.546875 2.875 -4.410156 2.875 -4.234375 L 2.875 -4.171875 C 3.144531 -4.484375 3.609375 -4.738281 4.265625 -4.9375 C 4.953125 -5.15625 5.519531 -5.21875 5.96875 -5.125 C 6.550781 -5 6.878906 -4.617188 6.953125 -3.984375 C 7.015625 -3.441406 6.890625 -2.753906 6.578125 -1.921875 C 6.484375 -1.703125 6.40625 -1.523438 6.34375 -1.390625 C 6.289062 -1.265625 6.242188 -1.144531 6.203125 -1.03125 C 6.109375 -0.832031 5.960938 -0.597656 5.765625 -0.328125 C 5.648438 -0.109375 5.472656 0.0546875 5.234375 0.171875 C 4.992188 0.285156 4.757812 0.347656 4.53125 0.359375 C 4.300781 0.378906 4.109375 0.34375 3.953125 0.25 C 3.804688 0.164062 3.765625 0.03125 3.828125 -0.15625 C 3.992188 -0.601562 4.128906 -1.007812 4.234375 -1.375 C 4.347656 -1.738281 4.457031 -2.046875 4.5625 -2.296875 C 4.675781 -2.660156 4.691406 -2.890625 4.609375 -2.984375 C 4.546875 -3.054688 4.4375 -3.046875 4.28125 -2.953125 C 4.144531 -2.867188 4.050781 -2.769531 4 -2.65625 C 3.863281 -2.5625 3.617188 -2.191406 3.265625 -1.546875 C 3.160156 -1.367188 3.0625 -1.191406 2.96875 -1.015625 C 2.875 -0.835938 2.785156 -0.671875 2.703125 -0.515625 C 2.617188 -0.367188 2.546875 -0.242188 2.484375 -0.140625 C 2.421875 -0.046875 2.367188 0.015625 2.328125 0.046875 C 2.285156 0.078125 2.242188 0.0976562 2.203125 0.109375 C 2.171875 0.117188 2.144531 0.128906 2.125 0.140625 C 2.101562 0.160156 2.085938 0.207031 2.078125 0.28125 C 2.046875 0.445312 1.875 0.570312 1.5625 0.65625 C 1.050781 0.78125 0.59375 0.757812 0.1875 0.59375 C 0.0507812 0.53125 -0.0507812 0.453125 -0.125 0.359375 C -0.289062 0.0234375 -0.0078125 -1.09375 0.71875 -3 C 0.976562 -3.664062 1.144531 -4.066406 1.21875 -4.203125 C 1.394531 -4.472656 1.507812 -4.625 1.5625 -4.65625 C 1.613281 -4.6875 1.6875 -4.679688 1.78125 -4.640625 Z M 1.78125 -4.640625 "/></g></g></g><g fill="rgb(36.079407%, 88.238525%, 90.19928%)" fill-opacity="1"><g transform="translate(40.830343, 18.663266)"><g><path d="M 3.875 0.25 C 3.601562 0.476562 3.273438 0.648438 2.890625 0.765625 C 2.503906 0.890625 2.117188 0.953125 1.734375 0.953125 C 1.347656 0.960938 0.988281 0.914062 0.65625 0.8125 C 0.320312 0.71875 0.0546875 0.566406 -0.140625 0.359375 C -0.367188 0.109375 -0.445312 -0.132812 -0.375 -0.375 C -0.332031 -0.476562 -0.265625 -0.554688 -0.171875 -0.609375 C -0.0859375 -0.671875 0.015625 -0.6875 0.140625 -0.65625 C 0.222656 -0.644531 0.285156 -0.664062 0.328125 -0.71875 C 0.367188 -0.769531 0.398438 -0.828125 0.421875 -0.890625 C 0.453125 -0.960938 0.484375 -1.03125 0.515625 -1.09375 C 0.554688 -1.15625 0.617188 -1.1875 0.703125 -1.1875 C 1.953125 -1.15625 2.601562 -1.265625 2.65625 -1.515625 C 2.570312 -1.597656 2.46875 -1.664062 2.34375 -1.71875 C 2.21875 -1.78125 2.09375 -1.835938 1.96875 -1.890625 C 1.65625 -2.035156 1.441406 -2.191406 1.328125 -2.359375 C 1.191406 -2.429688 1.085938 -2.601562 1.015625 -2.875 C 0.984375 -3 0.96875 -3.125 0.96875 -3.25 C 0.96875 -3.382812 0.988281 -3.503906 1.03125 -3.609375 C 1.007812 -3.890625 1.179688 -4.195312 1.546875 -4.53125 C 1.648438 -4.625 1.773438 -4.722656 1.921875 -4.828125 C 2.066406 -4.929688 2.289062 -5.03125 2.59375 -5.125 C 2.894531 -5.226562 3.191406 -5.300781 3.484375 -5.34375 C 3.785156 -5.394531 4.054688 -5.414062 4.296875 -5.40625 C 4.535156 -5.394531 4.703125 -5.335938 4.796875 -5.234375 C 4.898438 -5.128906 4.984375 -5.003906 5.046875 -4.859375 C 5.109375 -4.710938 5.128906 -4.566406 5.109375 -4.421875 C 5.054688 -4.097656 4.789062 -3.875 4.3125 -3.75 C 3.726562 -3.664062 3.445312 -3.585938 3.46875 -3.515625 C 3.46875 -3.503906 3.441406 -3.488281 3.390625 -3.46875 C 3.941406 -3.09375 4.320312 -2.722656 4.53125 -2.359375 C 4.820312 -1.859375 4.863281 -1.300781 4.65625 -0.6875 C 4.695312 -0.488281 4.519531 -0.238281 4.125 0.0625 C 4.03125 0.132812 3.945312 0.195312 3.875 0.25 Z M 3.875 0.25 "/></g></g></g><g fill="rgb(36.079407%, 88.238525%, 90.19928%)" fill-opacity="1"><g transform="translate(46.053055, 18.663266)"><g/></g></g><g fill="rgb(36.079407%, 88.238525%, 90.19928%)" fill-opacity="1"><g transform="translate(49.199526, 18.663266)"><g><path d="M 2.09375 -0.40625 C 2.050781 -0.257812 2 -0.128906 1.9375 -0.015625 C 1.882812 0.0976562 1.800781 0.203125 1.6875 0.296875 C 1.570312 0.398438 1.4375 0.492188 1.28125 0.578125 C 1.125 0.671875 0.972656 0.734375 0.828125 0.765625 C 0.503906 0.835938 0.335938 0.742188 0.328125 0.484375 C 0.296875 0.410156 0.242188 0.367188 0.171875 0.359375 C 0.109375 0.347656 0.0507812 0.328125 0 0.296875 C -0.144531 0.234375 -0.1875 0.0625 -0.125 -0.21875 C -0.0078125 -0.613281 0.113281 -1.09375 0.25 -1.65625 C 0.382812 -2.21875 0.554688 -2.832031 0.765625 -3.5 C 1.273438 -5.125 1.90625 -6.59375 2.65625 -7.90625 C 2.707031 -7.96875 2.765625 -8.050781 2.828125 -8.15625 C 2.890625 -8.257812 2.972656 -8.351562 3.078125 -8.4375 C 3.328125 -8.664062 3.632812 -8.71875 4 -8.59375 C 3.988281 -8.5 4.003906 -8.414062 4.046875 -8.34375 C 4.097656 -8.269531 4.160156 -8.191406 4.234375 -8.109375 C 4.390625 -7.921875 4.460938 -7.753906 4.453125 -7.609375 C 3.691406 -5.816406 3.007812 -3.816406 2.40625 -1.609375 C 2.332031 -1.347656 2.273438 -1.117188 2.234375 -0.921875 C 2.191406 -0.734375 2.144531 -0.5625 2.09375 -0.40625 Z M 2.09375 -0.40625 "/></g></g></g><g fill="rgb(36.079407%, 88.238525%, 90.19928%)" fill-opacity="1"><g transform="translate(52.153355, 18.663266)"><g><path d="M 4.90625 -4.59375 L 4.9375 -4.578125 C 4.957031 -4.578125 4.96875 -4.570312 4.96875 -4.5625 C 5.15625 -4.632812 5.304688 -4.582031 5.421875 -4.40625 C 5.503906 -4.289062 5.566406 -4.109375 5.609375 -3.859375 C 5.617188 -3.515625 5.582031 -3.035156 5.5 -2.421875 C 5.332031 -1.203125 5.242188 -0.472656 5.234375 -0.234375 C 5.242188 0.015625 5.09375 0.1875 4.78125 0.28125 C 4.5 0.363281 4.21875 0.359375 3.9375 0.265625 C 3.644531 0.171875 3.523438 0.0195312 3.578125 -0.1875 C 3.515625 -0.0820312 3.453125 -0.0078125 3.390625 0.03125 C 3.335938 0.0820312 3.226562 0.148438 3.0625 0.234375 C 2.894531 0.316406 2.65625 0.382812 2.34375 0.4375 C 2.039062 0.488281 1.734375 0.5 1.421875 0.46875 C 1.117188 0.445312 0.84375 0.375 0.59375 0.25 C 0.34375 0.125 0.171875 -0.0664062 0.078125 -0.328125 C -0.078125 -0.847656 -0.0507812 -1.503906 0.15625 -2.296875 C 0.289062 -2.816406 0.546875 -3.273438 0.921875 -3.671875 C 1.347656 -4.128906 1.832031 -4.507812 2.375 -4.8125 C 2.78125 -5.03125 3.171875 -5.160156 3.546875 -5.203125 C 3.679688 -5.210938 3.796875 -5.207031 3.890625 -5.1875 C 3.984375 -5.164062 4.082031 -5.144531 4.1875 -5.125 C 4.300781 -5.101562 4.410156 -5.070312 4.515625 -5.03125 C 4.773438 -4.925781 4.90625 -4.78125 4.90625 -4.59375 Z M 2.921875 -1.75 C 2.972656 -1.851562 3.015625 -1.976562 3.046875 -2.125 C 3.078125 -2.28125 3.117188 -2.445312 3.171875 -2.625 C 2.597656 -2.382812 2.160156 -2.09375 1.859375 -1.75 C 1.515625 -1.375 1.535156 -1.113281 1.921875 -0.96875 C 2.242188 -0.882812 2.484375 -0.941406 2.640625 -1.140625 C 2.703125 -1.222656 2.753906 -1.328125 2.796875 -1.453125 C 2.847656 -1.578125 2.910156 -1.710938 2.984375 -1.859375 C 2.960938 -1.816406 2.941406 -1.78125 2.921875 -1.75 Z M 2.921875 -1.75 "/></g></g></g><g fill="rgb(36.079407%, 88.238525%, 90.19928%)" fill-opacity="1"><g transform="translate(57.697135, 18.663266)"><g/></g></g><g fill="rgb(36.079407%, 88.238525%, 90.19928%)" fill-opacity="1"><g transform="translate(60.843606, 18.663266)"><g><path d="M 2.046875 0.03125 L 1.78125 0.28125 C 1.632812 0.375 1.492188 0.429688 1.359375 0.453125 L 1.375 0.46875 L 1.3125 0.515625 C 0.8125 0.554688 0.4375 0.445312 0.1875 0.1875 C -0.0625 -0.09375 -0.113281 -0.457031 0.03125 -0.90625 C 0.34375 -2.6875 0.78125 -4.335938 1.34375 -5.859375 C 1.726562 -6.878906 2.09375 -7.566406 2.4375 -7.921875 C 2.625 -8.097656 2.796875 -8.148438 2.953125 -8.078125 C 2.992188 -8.253906 3.066406 -8.390625 3.171875 -8.484375 C 3.285156 -8.578125 3.40625 -8.632812 3.53125 -8.65625 C 3.65625 -8.675781 3.78125 -8.65625 3.90625 -8.59375 C 4.03125 -8.53125 4.125 -8.421875 4.1875 -8.265625 C 4.257812 -8.109375 4.289062 -7.957031 4.28125 -7.8125 C 4.269531 -7.664062 4.234375 -7.519531 4.171875 -7.375 C 4.117188 -7.238281 4.054688 -7.101562 3.984375 -6.96875 C 3.910156 -6.832031 3.84375 -6.695312 3.78125 -6.5625 C 3.320312 -5.457031 2.992188 -4.644531 2.796875 -4.125 L 2.90625 -4.1875 C 3.375 -4.5 3.875 -4.640625 4.40625 -4.609375 C 4.644531 -4.578125 4.859375 -4.507812 5.046875 -4.40625 C 5.234375 -4.3125 5.367188 -4.160156 5.453125 -3.953125 C 5.546875 -3.742188 5.582031 -3.476562 5.5625 -3.15625 C 5.550781 -2.832031 5.488281 -2.492188 5.375 -2.140625 C 5.269531 -1.796875 5.125 -1.457031 4.9375 -1.125 C 4.757812 -0.800781 4.5625 -0.519531 4.34375 -0.28125 C 3.84375 0.269531 3.363281 0.476562 2.90625 0.34375 C 2.695312 0.375 2.460938 0.28125 2.203125 0.0625 C 2.148438 0.0078125 2.097656 -0.0234375 2.046875 -0.046875 Z M 2.328125 -0.734375 C 2.441406 -0.859375 2.628906 -1.085938 2.890625 -1.421875 C 3.148438 -1.753906 3.320312 -2.015625 3.40625 -2.203125 C 3.5 -2.398438 3.476562 -2.578125 3.34375 -2.734375 C 3.207031 -2.910156 3.035156 -2.785156 2.828125 -2.359375 C 2.492188 -1.671875 2.328125 -1.128906 2.328125 -0.734375 Z M 2.328125 -0.734375 "/></g></g></g><g fill="rgb(36.079407%, 88.238525%, 90.19928%)" fill-opacity="1"><g transform="translate(66.323171, 18.663266)"><g><path d="M 4.90625 -4.59375 L 4.9375 -4.578125 C 4.957031 -4.578125 4.96875 -4.570312 4.96875 -4.5625 C 5.15625 -4.632812 5.304688 -4.582031 5.421875 -4.40625 C 5.503906 -4.289062 5.566406 -4.109375 5.609375 -3.859375 C 5.617188 -3.515625 5.582031 -3.035156 5.5 -2.421875 C 5.332031 -1.203125 5.242188 -0.472656 5.234375 -0.234375 C 5.242188 0.015625 5.09375 0.1875 4.78125 0.28125 C 4.5 0.363281 4.21875 0.359375 3.9375 0.265625 C 3.644531 0.171875 3.523438 0.0195312 3.578125 -0.1875 C 3.515625 -0.0820312 3.453125 -0.0078125 3.390625 0.03125 C 3.335938 0.0820312 3.226562 0.148438 3.0625 0.234375 C 2.894531 0.316406 2.65625 0.382812 2.34375 0.4375 C 2.039062 0.488281 1.734375 0.5 1.421875 0.46875 C 1.117188 0.445312 0.84375 0.375 0.59375 0.25 C 0.34375 0.125 0.171875 -0.0664062 0.078125 -0.328125 C -0.078125 -0.847656 -0.0507812 -1.503906 0.15625 -2.296875 C 0.289062 -2.816406 0.546875 -3.273438 0.921875 -3.671875 C 1.347656 -4.128906 1.832031 -4.507812 2.375 -4.8125 C 2.78125 -5.03125 3.171875 -5.160156 3.546875 -5.203125 C 3.679688 -5.210938 3.796875 -5.207031 3.890625 -5.1875 C 3.984375 -5.164062 4.082031 -5.144531 4.1875 -5.125 C 4.300781 -5.101562 4.410156 -5.070312 4.515625 -5.03125 C 4.773438 -4.925781 4.90625 -4.78125 4.90625 -4.59375 Z M 2.921875 -1.75 C 2.972656 -1.851562 3.015625 -1.976562 3.046875 -2.125 C 3.078125 -2.28125 3.117188 -2.445312 3.171875 -2.625 C 2.597656 -2.382812 2.160156 -2.09375 1.859375 -1.75 C 1.515625 -1.375 1.535156 -1.113281 1.921875 -0.96875 C 2.242188 -0.882812 2.484375 -0.941406 2.640625 -1.140625 C 2.703125 -1.222656 2.753906 -1.328125 2.796875 -1.453125 C 2.847656 -1.578125 2.910156 -1.710938 2.984375 -1.859375 C 2.960938 -1.816406 2.941406 -1.78125 2.921875 -1.75 Z M 2.921875 -1.75 "/></g></g></g><g fill="rgb(36.079407%, 88.238525%, 90.19928%)" fill-opacity="1"><g transform="translate(71.866952, 18.663266)"><g><path d="M 1.40625 -4.640625 C 1.5 -4.867188 1.722656 -5.023438 2.078125 -5.109375 C 2.398438 -5.203125 2.707031 -5.191406 3 -5.078125 C 3.289062 -4.960938 3.421875 -4.78125 3.390625 -4.53125 C 3.316406 -4.28125 3.21875 -3.972656 3.09375 -3.609375 C 2.976562 -3.253906 2.867188 -2.882812 2.765625 -2.5 C 2.472656 -1.53125 2.304688 -0.847656 2.265625 -0.453125 C 2.160156 0.191406 1.984375 0.539062 1.734375 0.59375 C 1.660156 0.601562 1.59375 0.613281 1.53125 0.625 C 1.375 0.625 1.273438 0.660156 1.234375 0.734375 C 1.191406 0.816406 1.117188 0.878906 1.015625 0.921875 C 0.910156 0.960938 0.800781 0.976562 0.6875 0.96875 C 0.570312 0.96875 0.453125 0.941406 0.328125 0.890625 C 0.210938 0.835938 0.109375 0.757812 0.015625 0.65625 C -0.179688 0.414062 -0.21875 0.09375 -0.09375 -0.3125 C 0.0195312 -1.09375 0.304688 -2.082031 0.765625 -3.28125 C 0.992188 -3.863281 1.207031 -4.316406 1.40625 -4.640625 Z M 3.4375 -6.234375 C 3.082031 -6.171875 2.796875 -6.191406 2.578125 -6.296875 C 2.367188 -6.410156 2.242188 -6.546875 2.203125 -6.703125 C 2.171875 -6.867188 2.222656 -7.039062 2.359375 -7.21875 C 2.515625 -7.425781 2.75 -7.5625 3.0625 -7.625 C 3.207031 -7.644531 3.3125 -7.65625 3.375 -7.65625 C 3.4375 -7.65625 3.515625 -7.640625 3.609375 -7.609375 C 3.835938 -7.585938 3.988281 -7.484375 4.0625 -7.296875 C 4.164062 -7.140625 4.175781 -6.960938 4.09375 -6.765625 C 4.007812 -6.566406 3.789062 -6.390625 3.4375 -6.234375 Z M 3.4375 -6.234375 "/></g></g></g><g fill="rgb(36.079407%, 88.238525%, 90.19928%)" fill-opacity="1"><g transform="translate(75.109739, 18.663266)"><g><path d="M 4.5 -4.265625 C 4.625 -4.492188 4.785156 -4.609375 4.984375 -4.609375 C 5.285156 -4.429688 5.476562 -4.148438 5.5625 -3.765625 C 5.632812 -3.378906 5.546875 -3.035156 5.296875 -2.734375 C 5.296875 -2.722656 5.300781 -2.660156 5.3125 -2.546875 C 5.4375 -1.835938 5.390625 -1.097656 5.171875 -0.328125 C 5.097656 -0.0664062 5.007812 0.171875 4.90625 0.390625 C 4.800781 0.617188 4.671875 0.898438 4.515625 1.234375 C 4.359375 1.566406 4.140625 1.894531 3.859375 2.21875 C 3.585938 2.550781 3.273438 2.8125 2.921875 3 C 2.191406 3.414062 1.375 3.507812 0.46875 3.28125 C 0.132812 3.144531 -0.09375 2.992188 -0.21875 2.828125 C -0.382812 2.617188 -0.441406 2.394531 -0.390625 2.15625 C -0.335938 1.863281 -0.164062 1.707031 0.125 1.6875 C 0.269531 1.664062 0.445312 1.71875 0.65625 1.84375 C 0.894531 1.894531 1.085938 1.890625 1.234375 1.828125 C 1.390625 1.773438 1.507812 1.722656 1.59375 1.671875 C 1.6875 1.628906 1.800781 1.570312 1.9375 1.5 C 2.175781 1.375 2.445312 1.09375 2.75 0.65625 C 2.90625 0.4375 3.066406 0.132812 3.234375 -0.25 C 2.972656 0.0820312 2.550781 0.242188 1.96875 0.234375 C 1.8125 0.222656 1.628906 0.210938 1.421875 0.203125 C 1.222656 0.203125 1.039062 0.132812 0.875 0 C 0.707031 -0.125 0.570312 -0.285156 0.46875 -0.484375 C 0.375 -0.691406 0.3125 -0.929688 0.28125 -1.203125 C 0.25 -1.472656 0.242188 -1.742188 0.265625 -2.015625 C 0.378906 -2.992188 0.789062 -3.765625 1.5 -4.328125 C 1.96875 -4.710938 2.476562 -4.921875 3.03125 -4.953125 C 3.300781 -4.972656 3.550781 -4.945312 3.78125 -4.875 C 4.070312 -4.757812 4.3125 -4.554688 4.5 -4.265625 Z M 3.1875 -1.84375 C 3.1875 -1.863281 3.191406 -1.878906 3.203125 -1.890625 C 3.171875 -1.910156 3.132812 -1.925781 3.09375 -1.9375 C 3.0625 -1.945312 3 -1.960938 2.90625 -1.984375 C 2.8125 -2.015625 2.6875 -2 2.53125 -1.9375 C 2.375 -1.882812 2.234375 -1.804688 2.109375 -1.703125 C 1.992188 -1.597656 1.898438 -1.488281 1.828125 -1.375 C 1.765625 -1.257812 1.753906 -1.160156 1.796875 -1.078125 C 1.847656 -1.003906 1.929688 -0.972656 2.046875 -0.984375 C 2.171875 -1.003906 2.304688 -1.054688 2.453125 -1.140625 C 2.765625 -1.335938 3.007812 -1.570312 3.1875 -1.84375 Z M 3.1875 -1.84375 "/></g></g></g><g fill="rgb(36.079407%, 88.238525%, 90.19928%)" fill-opacity="1"><g transform="translate(80.717735, 18.663266)"><g><path d="M 1.78125 -4.640625 C 2.257812 -4.828125 2.582031 -4.828125 2.75 -4.640625 C 2.832031 -4.546875 2.875 -4.410156 2.875 -4.234375 L 2.875 -4.171875 C 3.144531 -4.484375 3.609375 -4.738281 4.265625 -4.9375 C 4.953125 -5.15625 5.519531 -5.21875 5.96875 -5.125 C 6.550781 -5 6.878906 -4.617188 6.953125 -3.984375 C 7.015625 -3.441406 6.890625 -2.753906 6.578125 -1.921875 C 6.484375 -1.703125 6.40625 -1.523438 6.34375 -1.390625 C 6.289062 -1.265625 6.242188 -1.144531 6.203125 -1.03125 C 6.109375 -0.832031 5.960938 -0.597656 5.765625 -0.328125 C 5.648438 -0.109375 5.472656 0.0546875 5.234375 0.171875 C 4.992188 0.285156 4.757812 0.347656 4.53125 0.359375 C 4.300781 0.378906 4.109375 0.34375 3.953125 0.25 C 3.804688 0.164062 3.765625 0.03125 3.828125 -0.15625 C 3.992188 -0.601562 4.128906 -1.007812 4.234375 -1.375 C 4.347656 -1.738281 4.457031 -2.046875 4.5625 -2.296875 C 4.675781 -2.660156 4.691406 -2.890625 4.609375 -2.984375 C 4.546875 -3.054688 4.4375 -3.046875 4.28125 -2.953125 C 4.144531 -2.867188 4.050781 -2.769531 4 -2.65625 C 3.863281 -2.5625 3.617188 -2.191406 3.265625 -1.546875 C 3.160156 -1.367188 3.0625 -1.191406 2.96875 -1.015625 C 2.875 -0.835938 2.785156 -0.671875 2.703125 -0.515625 C 2.617188 -0.367188 2.546875 -0.242188 2.484375 -0.140625 C 2.421875 -0.046875 2.367188 0.015625 2.328125 0.046875 C 2.285156 0.078125 2.242188 0.0976562 2.203125 0.109375 C 2.171875 0.117188 2.144531 0.128906 2.125 0.140625 C 2.101562 0.160156 2.085938 0.207031 2.078125 0.28125 C 2.046875 0.445312 1.875 0.570312 1.5625 0.65625 C 1.050781 0.78125 0.59375 0.757812 0.1875 0.59375 C 0.0507812 0.53125 -0.0507812 0.453125 -0.125 0.359375 C -0.289062 0.0234375 -0.0078125 -1.09375 0.71875 -3 C 0.976562 -3.664062 1.144531 -4.066406 1.21875 -4.203125 C 1.394531 -4.472656 1.507812 -4.625 1.5625 -4.65625 C 1.613281 -4.6875 1.6875 -4.679688 1.78125 -4.640625 Z M 1.78125 -4.640625 "/></g></g></g><g fill="rgb(36.079407%, 88.238525%, 90.19928%)" fill-opacity="1"><g transform="translate(87.50298, 18.663266)"><g><path d="M 1.5 -4.5625 C 1.644531 -4.675781 1.832031 -4.703125 2.0625 -4.640625 C 2.101562 -4.640625 2.144531 -4.640625 2.1875 -4.640625 C 2.34375 -4.953125 2.613281 -5.117188 3 -5.140625 C 3.09375 -5.140625 3.226562 -5.15625 3.40625 -5.1875 C 3.59375 -5.21875 3.8125 -5.210938 4.0625 -5.171875 C 4.3125 -5.128906 4.535156 -5.050781 4.734375 -4.9375 C 5.148438 -4.71875 5.398438 -4.390625 5.484375 -3.953125 C 5.660156 -3.328125 5.640625 -2.644531 5.421875 -1.90625 C 5.179688 -1.082031 4.78125 -0.425781 4.21875 0.0625 C 3.957031 0.289062 3.679688 0.4375 3.390625 0.5 C 3.109375 0.5625 2.851562 0.59375 2.625 0.59375 C 2.40625 0.601562 2.195312 0.601562 2 0.59375 C 1.8125 0.59375 1.628906 0.578125 1.453125 0.546875 C 1.066406 0.460938 0.75 0.28125 0.5 0 C 0.207031 -0.320312 0.0820312 -0.820312 0.125 -1.5 C 0.15625 -2.09375 0.304688 -2.695312 0.578125 -3.3125 C 0.859375 -3.925781 1.164062 -4.34375 1.5 -4.5625 Z M 3.375 -2.421875 C 3.195312 -2.359375 3.03125 -2.332031 2.875 -2.34375 C 2.800781 -2.257812 2.734375 -2.171875 2.671875 -2.078125 C 2.609375 -1.992188 2.523438 -1.914062 2.421875 -1.84375 C 2.328125 -1.769531 2.28125 -1.738281 2.28125 -1.75 C 2.15625 -1.582031 2.050781 -1.40625 1.96875 -1.21875 C 1.894531 -1.039062 1.898438 -0.859375 1.984375 -0.671875 C 2.265625 -0.640625 2.472656 -0.644531 2.609375 -0.6875 C 2.742188 -0.738281 2.867188 -0.820312 2.984375 -0.9375 C 3.109375 -1.0625 3.203125 -1.207031 3.265625 -1.375 C 3.390625 -1.675781 3.425781 -2.023438 3.375 -2.421875 Z M 3.375 -2.421875 "/></g></g></g><g fill="rgb(36.079407%, 88.238525%, 90.19928%)" fill-opacity="1"><g transform="translate(92.918334, 18.663266)"><g><path d="M 1.40625 -4.640625 C 1.5 -4.867188 1.722656 -5.023438 2.078125 -5.109375 C 2.398438 -5.203125 2.707031 -5.191406 3 -5.078125 C 3.289062 -4.960938 3.421875 -4.78125 3.390625 -4.53125 C 3.316406 -4.28125 3.21875 -3.972656 3.09375 -3.609375 C 2.976562 -3.253906 2.867188 -2.882812 2.765625 -2.5 C 2.472656 -1.53125 2.304688 -0.847656 2.265625 -0.453125 C 2.160156 0.191406 1.984375 0.539062 1.734375 0.59375 C 1.660156 0.601562 1.59375 0.613281 1.53125 0.625 C 1.375 0.625 1.273438 0.660156 1.234375 0.734375 C 1.191406 0.816406 1.117188 0.878906 1.015625 0.921875 C 0.910156 0.960938 0.800781 0.976562 0.6875 0.96875 C 0.570312 0.96875 0.453125 0.941406 0.328125 0.890625 C 0.210938 0.835938 0.109375 0.757812 0.015625 0.65625 C -0.179688 0.414062 -0.21875 0.09375 -0.09375 -0.3125 C 0.0195312 -1.09375 0.304688 -2.082031 0.765625 -3.28125 C 0.992188 -3.863281 1.207031 -4.316406 1.40625 -4.640625 Z M 3.4375 -6.234375 C 3.082031 -6.171875 2.796875 -6.191406 2.578125 -6.296875 C 2.367188 -6.410156 2.242188 -6.546875 2.203125 -6.703125 C 2.171875 -6.867188 2.222656 -7.039062 2.359375 -7.21875 C 2.515625 -7.425781 2.75 -7.5625 3.0625 -7.625 C 3.207031 -7.644531 3.3125 -7.65625 3.375 -7.65625 C 3.4375 -7.65625 3.515625 -7.640625 3.609375 -7.609375 C 3.835938 -7.585938 3.988281 -7.484375 4.0625 -7.296875 C 4.164062 -7.140625 4.175781 -6.960938 4.09375 -6.765625 C 4.007812 -6.566406 3.789062 -6.390625 3.4375 -6.234375 Z M 3.4375 -6.234375 "/></g></g></g><g fill="rgb(36.079407%, 88.238525%, 90.19928%)" fill-opacity="1"><g transform="translate(96.161125, 18.663266)"><g><path d="M 1.109375 -4.4375 C 1.210938 -4.6875 1.351562 -4.878906 1.53125 -5.015625 C 1.71875 -5.148438 1.894531 -5.234375 2.0625 -5.265625 C 2.226562 -5.296875 2.363281 -5.273438 2.46875 -5.203125 C 2.582031 -5.128906 2.625 -5.019531 2.59375 -4.875 C 2.726562 -5.007812 2.921875 -5.132812 3.171875 -5.25 C 3.429688 -5.363281 3.632812 -5.441406 3.78125 -5.484375 C 3.9375 -5.523438 4.066406 -5.546875 4.171875 -5.546875 C 4.410156 -5.523438 4.476562 -5.394531 4.375 -5.15625 C 4.5 -5.132812 4.585938 -5.054688 4.640625 -4.921875 C 4.703125 -4.785156 4.710938 -4.632812 4.671875 -4.46875 C 4.628906 -4.3125 4.53125 -4.148438 4.375 -3.984375 C 4.226562 -3.828125 4.023438 -3.71875 3.765625 -3.65625 C 3.515625 -3.601562 3.304688 -3.472656 3.140625 -3.265625 C 2.972656 -3.066406 2.828125 -2.820312 2.703125 -2.53125 C 2.484375 -2.019531 2.289062 -1.300781 2.125 -0.375 C 2.0625 -0.0390625 1.828125 0.238281 1.421875 0.46875 C 1.035156 0.6875 0.679688 0.75 0.359375 0.65625 C -0.00390625 0.5625 -0.164062 0.296875 -0.125 -0.140625 C -0.101562 -0.441406 -0.0078125 -0.847656 0.15625 -1.359375 C 0.332031 -1.867188 0.46875 -2.253906 0.5625 -2.515625 C 0.65625 -2.773438 0.71875 -2.972656 0.75 -3.109375 Z M 1.109375 -4.4375 "/></g></g></g><g fill="rgb(36.079407%, 88.238525%, 90.19928%)" fill-opacity="1"><g transform="translate(100.217284, 18.663266)"><g><path d="M 3.734375 -1.578125 C 3.597656 -1.515625 3.460938 -1.460938 3.328125 -1.421875 C 3.203125 -1.390625 3.054688 -1.359375 2.890625 -1.328125 C 2.441406 -1.234375 2.117188 -1.179688 1.921875 -1.171875 C 1.941406 -1.097656 2.046875 -1.007812 2.234375 -0.90625 C 2.359375 -0.882812 2.5 -0.90625 2.65625 -0.96875 C 2.8125 -1.03125 2.972656 -1.085938 3.140625 -1.140625 C 3.304688 -1.191406 3.46875 -1.21875 3.625 -1.21875 C 3.789062 -1.226562 3.945312 -1.171875 4.09375 -1.046875 C 4.144531 -0.921875 4.1875 -0.847656 4.21875 -0.828125 C 4.257812 -0.804688 4.289062 -0.796875 4.3125 -0.796875 C 4.34375 -0.796875 4.375 -0.785156 4.40625 -0.765625 C 4.445312 -0.742188 4.5 -0.660156 4.5625 -0.515625 C 4.632812 -0.367188 4.617188 -0.234375 4.515625 -0.109375 C 4.410156 0.015625 4.25 0.125 4.03125 0.21875 C 3.820312 0.3125 3.578125 0.382812 3.296875 0.4375 C 3.015625 0.5 2.726562 0.539062 2.4375 0.5625 C 1.800781 0.613281 1.3125 0.566406 0.96875 0.421875 C 0.488281 0.253906 0.175781 -0.0703125 0.03125 -0.5625 C -0.15625 -1.195312 -0.0507812 -1.941406 0.34375 -2.796875 C 0.519531 -3.203125 0.800781 -3.632812 1.1875 -4.09375 C 1.519531 -4.488281 1.894531 -4.773438 2.3125 -4.953125 C 2.789062 -5.160156 3.289062 -5.257812 3.8125 -5.25 C 4.363281 -5.226562 4.75 -4.984375 4.96875 -4.515625 C 5.070312 -4.265625 5.09375 -3.914062 5.03125 -3.46875 C 4.914062 -2.882812 4.765625 -2.46875 4.578125 -2.21875 C 4.390625 -1.988281 4.109375 -1.773438 3.734375 -1.578125 Z M 3.109375 -3.28125 C 2.734375 -3.351562 2.4375 -3.140625 2.21875 -2.640625 C 2.15625 -2.492188 2.109375 -2.347656 2.078125 -2.203125 C 2.316406 -2.171875 2.570312 -2.304688 2.84375 -2.609375 C 2.945312 -2.734375 3.019531 -2.859375 3.0625 -2.984375 C 3.113281 -3.109375 3.128906 -3.207031 3.109375 -3.28125 Z M 3.109375 -3.28125 "/></g></g></g><g fill="rgb(36.079407%, 88.238525%, 90.19928%)" fill-opacity="1"><g transform="translate(105.183144, 18.663266)"><g/></g></g><g fill="rgb(36.079407%, 88.238525%, 90.19928%)" fill-opacity="1"><g transform="translate(108.329611, 18.663266)"><g><path d="M 2.171875 -4.375 C 2.429688 -4.550781 2.734375 -4.601562 3.078125 -4.53125 C 3.421875 -4.457031 3.613281 -4.3125 3.65625 -4.09375 C 3.71875 -4.226562 3.757812 -4.363281 3.78125 -4.5 C 4.101562 -5.945312 4.457031 -7.050781 4.84375 -7.8125 C 4.96875 -8.050781 5.09375 -8.21875 5.21875 -8.3125 C 5.550781 -8.519531 5.90625 -8.546875 6.28125 -8.390625 C 6.425781 -8.328125 6.539062 -8.238281 6.625 -8.125 C 6.71875 -8.019531 6.753906 -7.921875 6.734375 -7.828125 C 6.710938 -7.734375 6.71875 -7.65625 6.75 -7.59375 C 6.789062 -7.539062 6.832031 -7.484375 6.875 -7.421875 C 6.988281 -7.285156 7.035156 -7.171875 7.015625 -7.078125 C 6.867188 -6.515625 6.675781 -5.929688 6.4375 -5.328125 C 6.195312 -4.722656 5.953125 -4.117188 5.703125 -3.515625 C 5.453125 -2.921875 5.222656 -2.332031 5.015625 -1.75 C 4.816406 -1.164062 4.6875 -0.613281 4.625 -0.09375 C 4.625 0.0390625 4.566406 0.160156 4.453125 0.265625 C 4.335938 0.378906 4.195312 0.46875 4.03125 0.53125 C 3.625 0.675781 3.242188 0.648438 2.890625 0.453125 L 2.890625 0.390625 C 2.816406 0.367188 2.765625 0.351562 2.734375 0.34375 C 2.703125 0.332031 2.679688 0.316406 2.671875 0.296875 C 2.648438 0.265625 2.628906 0.15625 2.609375 -0.03125 C 2.460938 0.1875 2.320312 0.320312 2.1875 0.375 C 2.050781 0.425781 1.914062 0.453125 1.78125 0.453125 C 1.082031 0.453125 0.585938 0.328125 0.296875 0.078125 C 0.046875 -0.140625 -0.0703125 -0.488281 -0.0625 -0.96875 C -0.0507812 -1.507812 0.144531 -2.117188 0.53125 -2.796875 C 0.976562 -3.554688 1.523438 -4.082031 2.171875 -4.375 Z M 2.15625 -0.859375 C 2.382812 -0.785156 2.546875 -0.84375 2.640625 -1.03125 C 2.679688 -1.125 2.722656 -1.242188 2.765625 -1.390625 C 2.816406 -1.535156 2.878906 -1.710938 2.953125 -1.921875 L 3 -2.125 C 2.820312 -2.226562 2.664062 -2.242188 2.53125 -2.171875 C 2.394531 -2.097656 2.28125 -1.984375 2.1875 -1.828125 C 2.101562 -1.679688 2.050781 -1.515625 2.03125 -1.328125 C 2.019531 -1.148438 2.0625 -0.992188 2.15625 -0.859375 Z M 2.15625 -0.859375 "/></g></g></g><g fill="rgb(36.079407%, 88.238525%, 90.19928%)" fill-opacity="1"><g transform="translate(113.937606, 18.663266)"><g><path d="M 1.96875 -5.53125 C 1.96875 -5.769531 1.945312 -6.007812 1.90625 -6.25 C 1.875 -6.488281 1.851562 -6.757812 1.84375 -7.0625 C 1.832031 -7.363281 1.882812 -7.601562 2 -7.78125 C 2.113281 -7.957031 2.253906 -8.085938 2.421875 -8.171875 C 2.585938 -8.253906 2.765625 -8.289062 2.953125 -8.28125 C 3.148438 -8.269531 3.320312 -8.210938 3.46875 -8.109375 C 3.625 -8.003906 3.742188 -7.851562 3.828125 -7.65625 C 3.910156 -7.46875 3.925781 -7.234375 3.875 -6.953125 C 3.882812 -6.546875 3.71875 -6.097656 3.375 -5.609375 C 3.289062 -5.484375 3.207031 -5.359375 3.125 -5.234375 C 3.050781 -5.109375 2.953125 -5.007812 2.828125 -4.9375 C 2.703125 -4.875 2.570312 -4.847656 2.4375 -4.859375 C 2.3125 -4.867188 2.203125 -4.925781 2.109375 -5.03125 C 2.015625 -5.132812 1.96875 -5.300781 1.96875 -5.53125 Z M 1.96875 -5.53125 "/></g></g></g><g fill="rgb(36.079407%, 88.238525%, 90.19928%)" fill-opacity="1"><g transform="translate(116.420537, 18.663266)"><g><path d="M 2.5625 -2.328125 L 2.046875 -1.03125 C 1.972656 -0.832031 1.90625 -0.625 1.84375 -0.40625 C 1.789062 -0.1875 1.734375 0 1.671875 0.15625 C 1.609375 0.3125 1.507812 0.4375 1.375 0.53125 C 1.238281 0.625 1.085938 0.691406 0.921875 0.734375 C 0.765625 0.785156 0.597656 0.804688 0.421875 0.796875 C 0.242188 0.796875 0.0859375 0.765625 -0.046875 0.703125 C -0.347656 0.566406 -0.453125 0.332031 -0.359375 0 C -0.0351562 -1.4375 0.269531 -2.59375 0.5625 -3.46875 C 0.851562 -4.34375 1.09375 -5.023438 1.28125 -5.515625 C 1.46875 -6.015625 1.664062 -6.546875 1.875 -7.109375 C 1.894531 -7.316406 1.976562 -7.5 2.125 -7.65625 C 2.28125 -7.820312 2.457031 -7.957031 2.65625 -8.0625 C 2.863281 -8.175781 3.078125 -8.253906 3.296875 -8.296875 C 3.515625 -8.347656 3.707031 -8.351562 3.875 -8.3125 C 4.050781 -8.28125 4.179688 -8.203125 4.265625 -8.078125 C 4.347656 -7.960938 4.351562 -7.789062 4.28125 -7.5625 C 4.019531 -6.90625 3.835938 -6.441406 3.734375 -6.171875 C 3.628906 -5.898438 3.535156 -5.65625 3.453125 -5.4375 L 3.140625 -4.734375 C 3.296875 -4.722656 3.488281 -4.742188 3.71875 -4.796875 C 4.125 -4.890625 4.421875 -4.921875 4.609375 -4.890625 C 4.609375 -4.921875 4.628906 -4.984375 4.671875 -5.078125 C 4.867188 -5.941406 5.09375 -6.738281 5.34375 -7.46875 C 5.519531 -8.070312 5.976562 -8.382812 6.71875 -8.40625 C 7.007812 -8.40625 7.234375 -8.335938 7.390625 -8.203125 C 7.546875 -8.046875 7.566406 -7.84375 7.453125 -7.59375 C 6.796875 -5.75 6.332031 -4.296875 6.0625 -3.234375 C 5.75 -2.003906 5.546875 -1.175781 5.453125 -0.75 C 5.359375 -0.320312 5.273438 -0.0703125 5.203125 0 C 5.128906 0.0820312 5.054688 0.140625 4.984375 0.171875 C 4.910156 0.203125 4.835938 0.234375 4.765625 0.265625 C 4.691406 0.296875 4.632812 0.367188 4.59375 0.484375 L 4.5625 0.484375 C 4.5 0.609375 4.367188 0.707031 4.171875 0.78125 C 3.984375 0.851562 3.789062 0.878906 3.59375 0.859375 C 3.40625 0.835938 3.242188 0.765625 3.109375 0.640625 C 2.972656 0.515625 2.9375 0.328125 3 0.078125 C 3.070312 -0.328125 3.191406 -0.765625 3.359375 -1.234375 C 3.523438 -1.703125 3.65625 -2.066406 3.75 -2.328125 C 3.84375 -2.597656 3.925781 -2.847656 4 -3.078125 C 3.9375 -3.046875 3.878906 -3.019531 3.828125 -3 C 3.773438 -2.988281 3.707031 -2.960938 3.625 -2.921875 C 3.550781 -2.890625 3.472656 -2.859375 3.390625 -2.828125 C 3.304688 -2.796875 3.222656 -2.765625 3.140625 -2.734375 C 2.941406 -2.660156 2.78125 -2.582031 2.65625 -2.5 Z M 3.765625 -3.046875 C 3.773438 -3.046875 3.8125 -3.054688 3.875 -3.078125 C 3.832031 -3.066406 3.796875 -3.054688 3.765625 -3.046875 Z M 3.765625 -3.046875 "/></g></g></g><g fill="rgb(36.079407%, 88.238525%, 90.19928%)" fill-opacity="1"><g transform="translate(122.520836, 18.663266)"><g><path d="M 1.40625 -4.640625 C 1.5 -4.867188 1.722656 -5.023438 2.078125 -5.109375 C 2.398438 -5.203125 2.707031 -5.191406 3 -5.078125 C 3.289062 -4.960938 3.421875 -4.78125 3.390625 -4.53125 C 3.316406 -4.28125 3.21875 -3.972656 3.09375 -3.609375 C 2.976562 -3.253906 2.867188 -2.882812 2.765625 -2.5 C 2.472656 -1.53125 2.304688 -0.847656 2.265625 -0.453125 C 2.160156 0.191406 1.984375 0.539062 1.734375 0.59375 C 1.660156 0.601562 1.59375 0.613281 1.53125 0.625 C 1.375 0.625 1.273438 0.660156 1.234375 0.734375 C 1.191406 0.816406 1.117188 0.878906 1.015625 0.921875 C 0.910156 0.960938 0.800781 0.976562 0.6875 0.96875 C 0.570312 0.96875 0.453125 0.941406 0.328125 0.890625 C 0.210938 0.835938 0.109375 0.757812 0.015625 0.65625 C -0.179688 0.414062 -0.21875 0.09375 -0.09375 -0.3125 C 0.0195312 -1.09375 0.304688 -2.082031 0.765625 -3.28125 C 0.992188 -3.863281 1.207031 -4.316406 1.40625 -4.640625 Z M 3.4375 -6.234375 C 3.082031 -6.171875 2.796875 -6.191406 2.578125 -6.296875 C 2.367188 -6.410156 2.242188 -6.546875 2.203125 -6.703125 C 2.171875 -6.867188 2.222656 -7.039062 2.359375 -7.21875 C 2.515625 -7.425781 2.75 -7.5625 3.0625 -7.625 C 3.207031 -7.644531 3.3125 -7.65625 3.375 -7.65625 C 3.4375 -7.65625 3.515625 -7.640625 3.609375 -7.609375 C 3.835938 -7.585938 3.988281 -7.484375 4.0625 -7.296875 C 4.164062 -7.140625 4.175781 -6.960938 4.09375 -6.765625 C 4.007812 -6.566406 3.789062 -6.390625 3.4375 -6.234375 Z M 3.4375 -6.234375 "/></g></g></g><g fill="rgb(36.079407%, 88.238525%, 90.19928%)" fill-opacity="1"><g transform="translate(125.763628, 18.663266)"><g><path d="M 2.90625 -8 L 2.90625 -8.046875 L 3 -8.140625 C 3.082031 -8.328125 3.171875 -8.441406 3.265625 -8.484375 C 3.316406 -8.492188 3.378906 -8.507812 3.453125 -8.53125 C 3.535156 -8.550781 3.640625 -8.601562 3.765625 -8.6875 C 3.816406 -8.789062 3.921875 -8.835938 4.078125 -8.828125 C 4.234375 -8.816406 4.390625 -8.765625 4.546875 -8.671875 C 4.703125 -8.585938 4.828125 -8.460938 4.921875 -8.296875 C 5.015625 -8.140625 5.035156 -7.976562 4.984375 -7.8125 C 4.929688 -7.644531 4.890625 -7.519531 4.859375 -7.4375 C 4.828125 -7.363281 4.796875 -7.289062 4.765625 -7.21875 C 4.734375 -7.144531 4.691406 -7.0625 4.640625 -6.96875 C 4.597656 -6.882812 4.539062 -6.765625 4.46875 -6.609375 L 4.125 -5.875 C 4.082031 -5.78125 4.050781 -5.722656 4.03125 -5.703125 C 4.007812 -5.691406 3.984375 -5.671875 3.953125 -5.640625 C 4.023438 -5.648438 4.082031 -5.660156 4.125 -5.671875 C 4.164062 -5.679688 4.207031 -5.6875 4.25 -5.6875 C 4.351562 -5.707031 4.46875 -5.722656 4.59375 -5.734375 C 4.664062 -5.722656 4.734375 -5.71875 4.796875 -5.71875 L 4.9375 -5.71875 C 5.03125 -5.71875 5.132812 -5.691406 5.25 -5.640625 C 5.375 -5.597656 5.453125 -5.519531 5.484375 -5.40625 C 5.523438 -5.289062 5.53125 -5.171875 5.5 -5.046875 C 5.46875 -4.929688 5.410156 -4.820312 5.328125 -4.71875 C 5.242188 -4.625 5.132812 -4.570312 5 -4.5625 C 4.375 -4.394531 3.929688 -4.304688 3.671875 -4.296875 L 3.609375 -4.21875 L 3.609375 -4.203125 C 3.535156 -4.035156 3.457031 -3.820312 3.375 -3.5625 C 3.289062 -3.300781 3.203125 -3.019531 3.109375 -2.71875 C 3.015625 -2.414062 2.914062 -2.097656 2.8125 -1.765625 C 2.71875 -1.441406 2.613281 -1.128906 2.5 -0.828125 C 2.15625 0.171875 1.90625 0.710938 1.75 0.796875 C 1.695312 0.828125 1.640625 0.847656 1.578125 0.859375 C 1.515625 0.867188 1.484375 0.878906 1.484375 0.890625 C 1.234375 0.867188 1.023438 0.816406 0.859375 0.734375 C 0.691406 0.648438 0.578125 0.566406 0.515625 0.484375 C 0.460938 0.410156 0.453125 0.320312 0.484375 0.21875 C 0.617188 -1.019531 0.890625 -2.378906 1.296875 -3.859375 C 1.148438 -3.859375 1.050781 -3.84375 1 -3.8125 C 0.882812 -3.75 0.753906 -3.71875 0.609375 -3.71875 L 0.59375 -3.71875 C 0.476562 -3.71875 0.375 -3.769531 0.28125 -3.875 C 0.195312 -3.976562 0.140625 -4.09375 0.109375 -4.21875 C 0.0859375 -4.34375 0.109375 -4.472656 0.171875 -4.609375 C 0.242188 -4.742188 0.375 -4.851562 0.5625 -4.9375 C 0.789062 -5 0.957031 -5.050781 1.0625 -5.09375 C 1.269531 -5.175781 1.441406 -5.234375 1.578125 -5.265625 C 1.722656 -5.304688 1.804688 -5.332031 1.828125 -5.34375 C 1.847656 -5.351562 1.859375 -5.363281 1.859375 -5.375 C 1.878906 -5.382812 1.929688 -5.390625 2.015625 -5.390625 C 2.066406 -5.597656 2.113281 -5.804688 2.15625 -6.015625 C 2.195312 -6.234375 2.25 -6.453125 2.3125 -6.671875 C 2.457031 -7.191406 2.65625 -7.632812 2.90625 -8 Z M 2.90625 -8 "/></g></g></g><g fill="rgb(36.079407%, 88.238525%, 90.19928%)" fill-opacity="1"><g transform="translate(130.237183, 18.663266)"><g><path d="M 2.09375 -0.40625 C 2.050781 -0.257812 2 -0.128906 1.9375 -0.015625 C 1.882812 0.0976562 1.800781 0.203125 1.6875 0.296875 C 1.570312 0.398438 1.4375 0.492188 1.28125 0.578125 C 1.125 0.671875 0.972656 0.734375 0.828125 0.765625 C 0.503906 0.835938 0.335938 0.742188 0.328125 0.484375 C 0.296875 0.410156 0.242188 0.367188 0.171875 0.359375 C 0.109375 0.347656 0.0507812 0.328125 0 0.296875 C -0.144531 0.234375 -0.1875 0.0625 -0.125 -0.21875 C -0.0078125 -0.613281 0.113281 -1.09375 0.25 -1.65625 C 0.382812 -2.21875 0.554688 -2.832031 0.765625 -3.5 C 1.273438 -5.125 1.90625 -6.59375 2.65625 -7.90625 C 2.707031 -7.96875 2.765625 -8.050781 2.828125 -8.15625 C 2.890625 -8.257812 2.972656 -8.351562 3.078125 -8.4375 C 3.328125 -8.664062 3.632812 -8.71875 4 -8.59375 C 3.988281 -8.5 4.003906 -8.414062 4.046875 -8.34375 C 4.097656 -8.269531 4.160156 -8.191406 4.234375 -8.109375 C 4.390625 -7.921875 4.460938 -7.753906 4.453125 -7.609375 C 3.691406 -5.816406 3.007812 -3.816406 2.40625 -1.609375 C 2.332031 -1.347656 2.273438 -1.117188 2.234375 -0.921875 C 2.191406 -0.734375 2.144531 -0.5625 2.09375 -0.40625 Z M 2.09375 -0.40625 "/></g></g></g><g fill="rgb(36.079407%, 88.238525%, 90.19928%)" fill-opacity="1"><g transform="translate(133.191009, 18.663266)"><g><path d="M 3.734375 -1.578125 C 3.597656 -1.515625 3.460938 -1.460938 3.328125 -1.421875 C 3.203125 -1.390625 3.054688 -1.359375 2.890625 -1.328125 C 2.441406 -1.234375 2.117188 -1.179688 1.921875 -1.171875 C 1.941406 -1.097656 2.046875 -1.007812 2.234375 -0.90625 C 2.359375 -0.882812 2.5 -0.90625 2.65625 -0.96875 C 2.8125 -1.03125 2.972656 -1.085938 3.140625 -1.140625 C 3.304688 -1.191406 3.46875 -1.21875 3.625 -1.21875 C 3.789062 -1.226562 3.945312 -1.171875 4.09375 -1.046875 C 4.144531 -0.921875 4.1875 -0.847656 4.21875 -0.828125 C 4.257812 -0.804688 4.289062 -0.796875 4.3125 -0.796875 C 4.34375 -0.796875 4.375 -0.785156 4.40625 -0.765625 C 4.445312 -0.742188 4.5 -0.660156 4.5625 -0.515625 C 4.632812 -0.367188 4.617188 -0.234375 4.515625 -0.109375 C 4.410156 0.015625 4.25 0.125 4.03125 0.21875 C 3.820312 0.3125 3.578125 0.382812 3.296875 0.4375 C 3.015625 0.5 2.726562 0.539062 2.4375 0.5625 C 1.800781 0.613281 1.3125 0.566406 0.96875 0.421875 C 0.488281 0.253906 0.175781 -0.0703125 0.03125 -0.5625 C -0.15625 -1.195312 -0.0507812 -1.941406 0.34375 -2.796875 C 0.519531 -3.203125 0.800781 -3.632812 1.1875 -4.09375 C 1.519531 -4.488281 1.894531 -4.773438 2.3125 -4.953125 C 2.789062 -5.160156 3.289062 -5.257812 3.8125 -5.25 C 4.363281 -5.226562 4.75 -4.984375 4.96875 -4.515625 C 5.070312 -4.265625 5.09375 -3.914062 5.03125 -3.46875 C 4.914062 -2.882812 4.765625 -2.46875 4.578125 -2.21875 C 4.390625 -1.988281 4.109375 -1.773438 3.734375 -1.578125 Z M 3.109375 -3.28125 C 2.734375 -3.351562 2.4375 -3.140625 2.21875 -2.640625 C 2.15625 -2.492188 2.109375 -2.347656 2.078125 -2.203125 C 2.316406 -2.171875 2.570312 -2.304688 2.84375 -2.609375 C 2.945312 -2.734375 3.019531 -2.859375 3.0625 -2.984375 C 3.113281 -3.109375 3.128906 -3.207031 3.109375 -3.28125 Z M 3.109375 -3.28125 "/></g></g></g><g fill="rgb(36.079407%, 88.238525%, 90.19928%)" fill-opacity="1"><g transform="translate(138.156869, 18.663266)"><g><path d="M 1.109375 -4.4375 C 1.210938 -4.6875 1.351562 -4.878906 1.53125 -5.015625 C 1.71875 -5.148438 1.894531 -5.234375 2.0625 -5.265625 C 2.226562 -5.296875 2.363281 -5.273438 2.46875 -5.203125 C 2.582031 -5.128906 2.625 -5.019531 2.59375 -4.875 C 2.726562 -5.007812 2.921875 -5.132812 3.171875 -5.25 C 3.429688 -5.363281 3.632812 -5.441406 3.78125 -5.484375 C 3.9375 -5.523438 4.066406 -5.546875 4.171875 -5.546875 C 4.410156 -5.523438 4.476562 -5.394531 4.375 -5.15625 C 4.5 -5.132812 4.585938 -5.054688 4.640625 -4.921875 C 4.703125 -4.785156 4.710938 -4.632812 4.671875 -4.46875 C 4.628906 -4.3125 4.53125 -4.148438 4.375 -3.984375 C 4.226562 -3.828125 4.023438 -3.71875 3.765625 -3.65625 C 3.515625 -3.601562 3.304688 -3.472656 3.140625 -3.265625 C 2.972656 -3.066406 2.828125 -2.820312 2.703125 -2.53125 C 2.484375 -2.019531 2.289062 -1.300781 2.125 -0.375 C 2.0625 -0.0390625 1.828125 0.238281 1.421875 0.46875 C 1.035156 0.6875 0.679688 0.75 0.359375 0.65625 C -0.00390625 0.5625 -0.164062 0.296875 -0.125 -0.140625 C -0.101562 -0.441406 -0.0078125 -0.847656 0.15625 -1.359375 C 0.332031 -1.867188 0.46875 -2.253906 0.5625 -2.515625 C 0.65625 -2.773438 0.71875 -2.972656 0.75 -3.109375 Z M 1.109375 -4.4375 "/></g></g></g><g fill="rgb(36.079407%, 88.238525%, 90.19928%)" fill-opacity="1"><g transform="translate(142.213028, 18.663266)"><g><path d="M 2.46875 -0.765625 C 2.488281 -0.742188 2.507812 -0.71875 2.53125 -0.6875 C 2.550781 -0.664062 2.566406 -0.640625 2.578125 -0.609375 L 2.765625 -0.421875 C 2.765625 -0.328125 2.773438 -0.238281 2.796875 -0.15625 C 2.828125 -0.0703125 2.832031 0.03125 2.8125 0.15625 C 2.800781 0.28125 2.738281 0.421875 2.625 0.578125 C 2.519531 0.734375 2.390625 0.875 2.234375 1 C 1.953125 1.363281 1.617188 1.609375 1.234375 1.734375 C 0.816406 1.878906 0.453125 1.816406 0.140625 1.546875 C 0.0859375 1.453125 0.0625 1.375 0.0625 1.3125 C 0.0625 1.257812 0.0859375 1.191406 0.140625 1.109375 C 0.171875 1.015625 0.226562 0.90625 0.3125 0.78125 C 0.394531 0.65625 0.472656 0.539062 0.546875 0.4375 L 0.5 0.390625 L 0.46875 0.421875 C 0.445312 0.421875 0.4375 0.398438 0.4375 0.359375 C 0.414062 0.335938 0.378906 0.300781 0.328125 0.25 L 0.234375 0.1875 L 0.21875 0.125 C 0.0195312 -0.238281 0.046875 -0.539062 0.296875 -0.78125 C 0.578125 -1.039062 0.984375 -1.160156 1.515625 -1.140625 C 1.640625 -1.128906 1.832031 -1.082031 2.09375 -1 C 2.144531 -0.945312 2.191406 -0.898438 2.234375 -0.859375 C 2.285156 -0.828125 2.328125 -0.796875 2.359375 -0.765625 L 2.40625 -0.796875 Z M 2.46875 -0.765625 "/></g></g></g><g fill="rgb(36.079407%, 88.238525%, 90.19928%)" fill-opacity="1"><g transform="translate(145.102642, 18.663266)"><g/></g></g><g fill="rgb(36.079407%, 88.238525%, 90.19928%)" fill-opacity="1"><g transform="translate(148.249116, 18.663266)"><g><path d="M 5.65625 -8.0625 L 5.6875 -8.0625 C 5.875 -7.957031 6.03125 -7.835938 6.15625 -7.703125 C 6.289062 -7.566406 6.410156 -7.425781 6.515625 -7.28125 C 6.628906 -7.132812 6.71875 -6.976562 6.78125 -6.8125 C 7.050781 -6.15625 6.816406 -5.421875 6.078125 -4.609375 C 5.765625 -4.265625 5.410156 -3.96875 5.015625 -3.71875 C 5.117188 -3.65625 5.210938 -3.601562 5.296875 -3.5625 C 5.390625 -3.53125 5.515625 -3.46875 5.671875 -3.375 C 5.835938 -3.289062 5.945312 -3.125 6 -2.875 C 6.050781 -2.632812 6.039062 -2.359375 5.96875 -2.046875 C 5.894531 -1.742188 5.757812 -1.429688 5.5625 -1.109375 C 5.363281 -0.785156 5.109375 -0.492188 4.796875 -0.234375 C 4.078125 0.359375 3.25 0.609375 2.3125 0.515625 C 2.175781 0.515625 2.085938 0.503906 2.046875 0.484375 C 2.015625 0.460938 1.988281 0.441406 1.96875 0.421875 C 1.945312 0.410156 1.898438 0.398438 1.828125 0.390625 C 1.648438 0.535156 1.445312 0.625 1.21875 0.65625 C 0.988281 0.695312 0.769531 0.679688 0.5625 0.609375 C 0.363281 0.535156 0.191406 0.410156 0.046875 0.234375 C -0.0859375 0.0664062 -0.15625 -0.148438 -0.15625 -0.421875 C -0.132812 -0.609375 -0.0976562 -0.753906 -0.046875 -0.859375 C -0.0664062 -0.929688 -0.078125 -1.015625 -0.078125 -1.109375 C 0.160156 -2.398438 0.390625 -3.382812 0.609375 -4.0625 C 1.046875 -5.425781 1.515625 -6.457031 2.015625 -7.15625 C 2.429688 -7.738281 3.007812 -8.113281 3.75 -8.28125 C 4.457031 -8.445312 5.09375 -8.375 5.65625 -8.0625 Z M 2.328125 -0.59375 C 2.410156 -0.613281 2.484375 -0.617188 2.546875 -0.609375 C 2.609375 -0.597656 2.679688 -0.601562 2.765625 -0.625 C 2.972656 -0.644531 3.25 -0.769531 3.59375 -1 C 3.8125 -1.226562 3.925781 -1.445312 3.9375 -1.65625 C 3.957031 -1.875 3.925781 -2.007812 3.84375 -2.0625 C 3.769531 -2.125 3.664062 -2.15625 3.53125 -2.15625 C 3.40625 -2.15625 3.257812 -2.132812 3.09375 -2.09375 C 2.9375 -2.0625 2.785156 -2.039062 2.640625 -2.03125 L 2.640625 -2.015625 C 2.597656 -1.867188 2.554688 -1.742188 2.515625 -1.640625 C 2.484375 -1.535156 2.453125 -1.429688 2.421875 -1.328125 C 2.359375 -1.085938 2.3125 -0.84375 2.28125 -0.59375 Z M 4.3125 -6.171875 C 4.101562 -6.191406 3.875 -6.019531 3.625 -5.65625 C 3.457031 -5.425781 3.332031 -5.082031 3.25 -4.625 C 3.40625 -4.6875 3.554688 -4.738281 3.703125 -4.78125 C 3.847656 -4.832031 3.984375 -4.882812 4.109375 -4.9375 C 4.421875 -5.070312 4.644531 -5.238281 4.78125 -5.4375 C 4.9375 -5.625 4.988281 -5.78125 4.9375 -5.90625 C 4.851562 -6.019531 4.710938 -6.125 4.515625 -6.21875 C 4.460938 -6.164062 4.394531 -6.148438 4.3125 -6.171875 Z M 4.15625 -6.203125 L 4.1875 -6.203125 Z M 4.15625 -6.203125 "/></g></g></g><g fill="rgb(36.079407%, 88.238525%, 90.19928%)" fill-opacity="1"><g transform="translate(154.317311, 18.663266)"><g><path d="M 3.734375 -1.578125 C 3.597656 -1.515625 3.460938 -1.460938 3.328125 -1.421875 C 3.203125 -1.390625 3.054688 -1.359375 2.890625 -1.328125 C 2.441406 -1.234375 2.117188 -1.179688 1.921875 -1.171875 C 1.941406 -1.097656 2.046875 -1.007812 2.234375 -0.90625 C 2.359375 -0.882812 2.5 -0.90625 2.65625 -0.96875 C 2.8125 -1.03125 2.972656 -1.085938 3.140625 -1.140625 C 3.304688 -1.191406 3.46875 -1.21875 3.625 -1.21875 C 3.789062 -1.226562 3.945312 -1.171875 4.09375 -1.046875 C 4.144531 -0.921875 4.1875 -0.847656 4.21875 -0.828125 C 4.257812 -0.804688 4.289062 -0.796875 4.3125 -0.796875 C 4.34375 -0.796875 4.375 -0.785156 4.40625 -0.765625 C 4.445312 -0.742188 4.5 -0.660156 4.5625 -0.515625 C 4.632812 -0.367188 4.617188 -0.234375 4.515625 -0.109375 C 4.410156 0.015625 4.25 0.125 4.03125 0.21875 C 3.820312 0.3125 3.578125 0.382812 3.296875 0.4375 C 3.015625 0.5 2.726562 0.539062 2.4375 0.5625 C 1.800781 0.613281 1.3125 0.566406 0.96875 0.421875 C 0.488281 0.253906 0.175781 -0.0703125 0.03125 -0.5625 C -0.15625 -1.195312 -0.0507812 -1.941406 0.34375 -2.796875 C 0.519531 -3.203125 0.800781 -3.632812 1.1875 -4.09375 C 1.519531 -4.488281 1.894531 -4.773438 2.3125 -4.953125 C 2.789062 -5.160156 3.289062 -5.257812 3.8125 -5.25 C 4.363281 -5.226562 4.75 -4.984375 4.96875 -4.515625 C 5.070312 -4.265625 5.09375 -3.914062 5.03125 -3.46875 C 4.914062 -2.882812 4.765625 -2.46875 4.578125 -2.21875 C 4.390625 -1.988281 4.109375 -1.773438 3.734375 -1.578125 Z M 3.109375 -3.28125 C 2.734375 -3.351562 2.4375 -3.140625 2.21875 -2.640625 C 2.15625 -2.492188 2.109375 -2.347656 2.078125 -2.203125 C 2.316406 -2.171875 2.570312 -2.304688 2.84375 -2.609375 C 2.945312 -2.734375 3.019531 -2.859375 3.0625 -2.984375 C 3.113281 -3.109375 3.128906 -3.207031 3.109375 -3.28125 Z M 3.109375 -3.28125 "/></g></g></g><g fill="rgb(36.079407%, 88.238525%, 90.19928%)" fill-opacity="1"><g transform="translate(159.283171, 18.663266)"><g><path d="M 1.109375 -4.4375 C 1.210938 -4.6875 1.351562 -4.878906 1.53125 -5.015625 C 1.71875 -5.148438 1.894531 -5.234375 2.0625 -5.265625 C 2.226562 -5.296875 2.363281 -5.273438 2.46875 -5.203125 C 2.582031 -5.128906 2.625 -5.019531 2.59375 -4.875 C 2.726562 -5.007812 2.921875 -5.132812 3.171875 -5.25 C 3.429688 -5.363281 3.632812 -5.441406 3.78125 -5.484375 C 3.9375 -5.523438 4.066406 -5.546875 4.171875 -5.546875 C 4.410156 -5.523438 4.476562 -5.394531 4.375 -5.15625 C 4.5 -5.132812 4.585938 -5.054688 4.640625 -4.921875 C 4.703125 -4.785156 4.710938 -4.632812 4.671875 -4.46875 C 4.628906 -4.3125 4.53125 -4.148438 4.375 -3.984375 C 4.226562 -3.828125 4.023438 -3.71875 3.765625 -3.65625 C 3.515625 -3.601562 3.304688 -3.472656 3.140625 -3.265625 C 2.972656 -3.066406 2.828125 -2.820312 2.703125 -2.53125 C 2.484375 -2.019531 2.289062 -1.300781 2.125 -0.375 C 2.0625 -0.0390625 1.828125 0.238281 1.421875 0.46875 C 1.035156 0.6875 0.679688 0.75 0.359375 0.65625 C -0.00390625 0.5625 -0.164062 0.296875 -0.125 -0.140625 C -0.101562 -0.441406 -0.0078125 -0.847656 0.15625 -1.359375 C 0.332031 -1.867188 0.46875 -2.253906 0.5625 -2.515625 C 0.65625 -2.773438 0.71875 -2.972656 0.75 -3.109375 Z M 1.109375 -4.4375 "/></g></g></g><g fill="rgb(36.079407%, 88.238525%, 90.19928%)" fill-opacity="1"><g transform="translate(163.33933, 18.663266)"><g><path d="M 2.09375 -0.40625 C 2.050781 -0.257812 2 -0.128906 1.9375 -0.015625 C 1.882812 0.0976562 1.800781 0.203125 1.6875 0.296875 C 1.570312 0.398438 1.4375 0.492188 1.28125 0.578125 C 1.125 0.671875 0.972656 0.734375 0.828125 0.765625 C 0.503906 0.835938 0.335938 0.742188 0.328125 0.484375 C 0.296875 0.410156 0.242188 0.367188 0.171875 0.359375 C 0.109375 0.347656 0.0507812 0.328125 0 0.296875 C -0.144531 0.234375 -0.1875 0.0625 -0.125 -0.21875 C -0.0078125 -0.613281 0.113281 -1.09375 0.25 -1.65625 C 0.382812 -2.21875 0.554688 -2.832031 0.765625 -3.5 C 1.273438 -5.125 1.90625 -6.59375 2.65625 -7.90625 C 2.707031 -7.96875 2.765625 -8.050781 2.828125 -8.15625 C 2.890625 -8.257812 2.972656 -8.351562 3.078125 -8.4375 C 3.328125 -8.664062 3.632812 -8.71875 4 -8.59375 C 3.988281 -8.5 4.003906 -8.414062 4.046875 -8.34375 C 4.097656 -8.269531 4.160156 -8.191406 4.234375 -8.109375 C 4.390625 -7.921875 4.460938 -7.753906 4.453125 -7.609375 C 3.691406 -5.816406 3.007812 -3.816406 2.40625 -1.609375 C 2.332031 -1.347656 2.273438 -1.117188 2.234375 -0.921875 C 2.191406 -0.734375 2.144531 -0.5625 2.09375 -0.40625 Z M 2.09375 -0.40625 "/></g></g></g><g fill="rgb(36.079407%, 88.238525%, 90.19928%)" fill-opacity="1"><g transform="translate(166.293155, 18.663266)"><g><path d="M 1.40625 -4.640625 C 1.5 -4.867188 1.722656 -5.023438 2.078125 -5.109375 C 2.398438 -5.203125 2.707031 -5.191406 3 -5.078125 C 3.289062 -4.960938 3.421875 -4.78125 3.390625 -4.53125 C 3.316406 -4.28125 3.21875 -3.972656 3.09375 -3.609375 C 2.976562 -3.253906 2.867188 -2.882812 2.765625 -2.5 C 2.472656 -1.53125 2.304688 -0.847656 2.265625 -0.453125 C 2.160156 0.191406 1.984375 0.539062 1.734375 0.59375 C 1.660156 0.601562 1.59375 0.613281 1.53125 0.625 C 1.375 0.625 1.273438 0.660156 1.234375 0.734375 C 1.191406 0.816406 1.117188 0.878906 1.015625 0.921875 C 0.910156 0.960938 0.800781 0.976562 0.6875 0.96875 C 0.570312 0.96875 0.453125 0.941406 0.328125 0.890625 C 0.210938 0.835938 0.109375 0.757812 0.015625 0.65625 C -0.179688 0.414062 -0.21875 0.09375 -0.09375 -0.3125 C 0.0195312 -1.09375 0.304688 -2.082031 0.765625 -3.28125 C 0.992188 -3.863281 1.207031 -4.316406 1.40625 -4.640625 Z M 3.4375 -6.234375 C 3.082031 -6.171875 2.796875 -6.191406 2.578125 -6.296875 C 2.367188 -6.410156 2.242188 -6.546875 2.203125 -6.703125 C 2.171875 -6.867188 2.222656 -7.039062 2.359375 -7.21875 C 2.515625 -7.425781 2.75 -7.5625 3.0625 -7.625 C 3.207031 -7.644531 3.3125 -7.65625 3.375 -7.65625 C 3.4375 -7.65625 3.515625 -7.640625 3.609375 -7.609375 C 3.835938 -7.585938 3.988281 -7.484375 4.0625 -7.296875 C 4.164062 -7.140625 4.175781 -6.960938 4.09375 -6.765625 C 4.007812 -6.566406 3.789062 -6.390625 3.4375 -6.234375 Z M 3.4375 -6.234375 "/></g></g></g><g fill="rgb(36.079407%, 88.238525%, 90.19928%)" fill-opacity="1"><g transform="translate(169.535946, 18.663266)"><g><path d="M 1.78125 -4.640625 C 2.257812 -4.828125 2.582031 -4.828125 2.75 -4.640625 C 2.832031 -4.546875 2.875 -4.410156 2.875 -4.234375 L 2.875 -4.171875 C 3.144531 -4.484375 3.609375 -4.738281 4.265625 -4.9375 C 4.953125 -5.15625 5.519531 -5.21875 5.96875 -5.125 C 6.550781 -5 6.878906 -4.617188 6.953125 -3.984375 C 7.015625 -3.441406 6.890625 -2.753906 6.578125 -1.921875 C 6.484375 -1.703125 6.40625 -1.523438 6.34375 -1.390625 C 6.289062 -1.265625 6.242188 -1.144531 6.203125 -1.03125 C 6.109375 -0.832031 5.960938 -0.597656 5.765625 -0.328125 C 5.648438 -0.109375 5.472656 0.0546875 5.234375 0.171875 C 4.992188 0.285156 4.757812 0.347656 4.53125 0.359375 C 4.300781 0.378906 4.109375 0.34375 3.953125 0.25 C 3.804688 0.164062 3.765625 0.03125 3.828125 -0.15625 C 3.992188 -0.601562 4.128906 -1.007812 4.234375 -1.375 C 4.347656 -1.738281 4.457031 -2.046875 4.5625 -2.296875 C 4.675781 -2.660156 4.691406 -2.890625 4.609375 -2.984375 C 4.546875 -3.054688 4.4375 -3.046875 4.28125 -2.953125 C 4.144531 -2.867188 4.050781 -2.769531 4 -2.65625 C 3.863281 -2.5625 3.617188 -2.191406 3.265625 -1.546875 C 3.160156 -1.367188 3.0625 -1.191406 2.96875 -1.015625 C 2.875 -0.835938 2.785156 -0.671875 2.703125 -0.515625 C 2.617188 -0.367188 2.546875 -0.242188 2.484375 -0.140625 C 2.421875 -0.046875 2.367188 0.015625 2.328125 0.046875 C 2.285156 0.078125 2.242188 0.0976562 2.203125 0.109375 C 2.171875 0.117188 2.144531 0.128906 2.125 0.140625 C 2.101562 0.160156 2.085938 0.207031 2.078125 0.28125 C 2.046875 0.445312 1.875 0.570312 1.5625 0.65625 C 1.050781 0.78125 0.59375 0.757812 0.1875 0.59375 C 0.0507812 0.53125 -0.0507812 0.453125 -0.125 0.359375 C -0.289062 0.0234375 -0.0078125 -1.09375 0.71875 -3 C 0.976562 -3.664062 1.144531 -4.066406 1.21875 -4.203125 C 1.394531 -4.472656 1.507812 -4.625 1.5625 -4.65625 C 1.613281 -4.6875 1.6875 -4.679688 1.78125 -4.640625 Z M 1.78125 -4.640625 "/></g></g></g></svg>