<svg xmlns="http://www.w3.org/2000/svg" xmlns:xlink="http://www.w3.org/1999/xlink" width="80" zoomAndPan="magnify" viewBox="0 0 60 32.249999" height="43" preserveAspectRatio="xMidYMid meet" version="1.0"><defs><g><g id="id1"/><g id="id2"/></g><clipPath id="id3"><path d="M 51 8 L 59.316406 8 L 59.316406 18 L 51 18 Z M 51 8 " clip-rule="nonzero"/></clipPath><clipPath id="id4"><path d="M 0.683594 12 L 10 12 L 10 25 L 0.683594 25 Z M 0.683594 12 " clip-rule="nonzero"/></clipPath></defs><g fill="rgb(36.079407%, 88.238525%, 90.19928%)" fill-opacity="0.4"><g transform="translate(3.559952, 24.586267)"><g><path d="M 4.796875 -0.125 C 4.617188 -0.0390625 4.445312 0.015625 4.28125 0.046875 C 4.113281 0.078125 3.9375 0.113281 3.75 0.15625 C 3.570312 0.195312 3.332031 0.238281 3.03125 0.28125 C 2.726562 0.332031 2.269531 0.398438 1.65625 0.484375 C 1.507812 0.515625 1.363281 0.539062 1.21875 0.5625 C 1.070312 0.59375 0.929688 0.59375 0.796875 0.5625 C 0.503906 0.488281 0.273438 0.25 0.109375 -0.15625 C 0.0234375 -0.351562 -0.0507812 -0.484375 -0.125 -0.546875 C -0.195312 -0.617188 -0.253906 -0.6875 -0.296875 -0.75 C -0.410156 -0.882812 -0.441406 -1.125 -0.390625 -1.46875 C -0.347656 -1.820312 -0.28125 -2.253906 -0.1875 -2.765625 C -0.101562 -3.285156 -0.0078125 -3.835938 0.09375 -4.421875 C 0.375 -5.816406 0.640625 -6.929688 0.890625 -7.765625 C 0.992188 -8.128906 1.082031 -8.445312 1.15625 -8.71875 C 1.226562 -8.988281 1.289062 -9.222656 1.34375 -9.421875 C 1.394531 -9.617188 1.421875 -9.722656 1.421875 -9.734375 C 1.460938 -10.085938 1.769531 -10.429688 2.34375 -10.765625 C 2.882812 -11.109375 3.398438 -11.253906 3.890625 -11.203125 C 4.453125 -11.160156 4.75 -10.851562 4.78125 -10.28125 C 4.75 -9.695312 4.648438 -9.101562 4.484375 -8.5 C 4.328125 -7.90625 4.140625 -7.273438 3.921875 -6.609375 C 3.710938 -5.941406 3.476562 -5.238281 3.21875 -4.5 C 2.957031 -3.757812 2.71875 -2.957031 2.5 -2.09375 C 2.488281 -2.0625 2.515625 -2.035156 2.578125 -2.015625 C 2.679688 -2.035156 2.832031 -2.09375 3.03125 -2.1875 C 3.238281 -2.289062 3.453125 -2.382812 3.671875 -2.46875 C 3.890625 -2.550781 4.113281 -2.609375 4.34375 -2.640625 C 4.570312 -2.679688 4.773438 -2.660156 4.953125 -2.578125 C 4.972656 -2.421875 5.03125 -2.296875 5.125 -2.203125 C 5.226562 -2.117188 5.332031 -2.039062 5.4375 -1.96875 C 5.707031 -1.769531 5.78125 -1.460938 5.65625 -1.046875 C 5.53125 -0.628906 5.242188 -0.320312 4.796875 -0.125 Z M 4.796875 -0.125 "/></g></g></g><g fill="rgb(36.079407%, 88.238525%, 90.19928%)" fill-opacity="0.4"><g transform="translate(9.632621, 23.593627)"><g><path d="M 4.390625 -2.765625 C 4.222656 -2.660156 4.066406 -2.570312 3.921875 -2.5 C 3.773438 -2.4375 3.59375 -2.363281 3.375 -2.28125 C 2.832031 -2.0625 2.4375 -1.925781 2.1875 -1.875 C 2.226562 -1.789062 2.378906 -1.707031 2.640625 -1.625 C 2.796875 -1.613281 2.96875 -1.660156 3.15625 -1.765625 C 3.34375 -1.878906 3.535156 -1.988281 3.734375 -2.09375 C 3.929688 -2.195312 4.128906 -2.269531 4.328125 -2.3125 C 4.535156 -2.351562 4.742188 -2.304688 4.953125 -2.171875 C 5.054688 -2.015625 5.128906 -1.925781 5.171875 -1.90625 C 5.222656 -1.894531 5.265625 -1.890625 5.296875 -1.890625 C 5.335938 -1.898438 5.378906 -1.894531 5.421875 -1.875 C 5.472656 -1.851562 5.554688 -1.757812 5.671875 -1.59375 C 5.785156 -1.4375 5.789062 -1.265625 5.6875 -1.078125 C 5.582031 -0.890625 5.40625 -0.710938 5.15625 -0.546875 C 4.90625 -0.378906 4.601562 -0.234375 4.25 -0.109375 C 3.90625 0.015625 3.550781 0.117188 3.1875 0.203125 C 2.394531 0.398438 1.769531 0.441406 1.3125 0.328125 C 0.664062 0.222656 0.207031 -0.117188 -0.0625 -0.703125 C -0.4375 -1.484375 -0.460938 -2.457031 -0.140625 -3.625 C -0.00390625 -4.15625 0.257812 -4.753906 0.65625 -5.421875 C 1 -5.984375 1.414062 -6.421875 1.90625 -6.734375 C 2.457031 -7.085938 3.066406 -7.3125 3.734375 -7.40625 C 4.441406 -7.5 4.976562 -7.273438 5.34375 -6.734375 C 5.519531 -6.441406 5.617188 -6 5.640625 -5.40625 C 5.617188 -4.644531 5.515625 -4.09375 5.328125 -3.75 C 5.140625 -3.414062 4.828125 -3.085938 4.390625 -2.765625 Z M 3.265625 -4.765625 C 2.765625 -4.796875 2.429688 -4.46875 2.265625 -3.78125 C 2.222656 -3.59375 2.191406 -3.40625 2.171875 -3.21875 C 2.472656 -3.226562 2.765625 -3.453125 3.046875 -3.890625 C 3.160156 -4.066406 3.234375 -4.238281 3.265625 -4.40625 C 3.304688 -4.582031 3.304688 -4.703125 3.265625 -4.765625 Z M 3.265625 -4.765625 "/></g></g></g><g fill="rgb(36.079407%, 88.238525%, 90.19928%)" fill-opacity="0.4"><g transform="translate(15.908164, 22.567826)"><g><path d="M 4.390625 -2.765625 C 4.222656 -2.660156 4.066406 -2.570312 3.921875 -2.5 C 3.773438 -2.4375 3.59375 -2.363281 3.375 -2.28125 C 2.832031 -2.0625 2.4375 -1.925781 2.1875 -1.875 C 2.226562 -1.789062 2.378906 -1.707031 2.640625 -1.625 C 2.796875 -1.613281 2.96875 -1.660156 3.15625 -1.765625 C 3.34375 -1.878906 3.535156 -1.988281 3.734375 -2.09375 C 3.929688 -2.195312 4.128906 -2.269531 4.328125 -2.3125 C 4.535156 -2.351562 4.742188 -2.304688 4.953125 -2.171875 C 5.054688 -2.015625 5.128906 -1.925781 5.171875 -1.90625 C 5.222656 -1.894531 5.265625 -1.890625 5.296875 -1.890625 C 5.335938 -1.898438 5.378906 -1.894531 5.421875 -1.875 C 5.472656 -1.851562 5.554688 -1.757812 5.671875 -1.59375 C 5.785156 -1.4375 5.789062 -1.265625 5.6875 -1.078125 C 5.582031 -0.890625 5.40625 -0.710938 5.15625 -0.546875 C 4.90625 -0.378906 4.601562 -0.234375 4.25 -0.109375 C 3.90625 0.015625 3.550781 0.117188 3.1875 0.203125 C 2.394531 0.398438 1.769531 0.441406 1.3125 0.328125 C 0.664062 0.222656 0.207031 -0.117188 -0.0625 -0.703125 C -0.4375 -1.484375 -0.460938 -2.457031 -0.140625 -3.625 C -0.00390625 -4.15625 0.257812 -4.753906 0.65625 -5.421875 C 1 -5.984375 1.414062 -6.421875 1.90625 -6.734375 C 2.457031 -7.085938 3.066406 -7.3125 3.734375 -7.40625 C 4.441406 -7.5 4.976562 -7.273438 5.34375 -6.734375 C 5.519531 -6.441406 5.617188 -6 5.640625 -5.40625 C 5.617188 -4.644531 5.515625 -4.09375 5.328125 -3.75 C 5.140625 -3.414062 4.828125 -3.085938 4.390625 -2.765625 Z M 3.265625 -4.765625 C 2.765625 -4.796875 2.429688 -4.46875 2.265625 -3.78125 C 2.222656 -3.59375 2.191406 -3.40625 2.171875 -3.21875 C 2.472656 -3.226562 2.765625 -3.453125 3.046875 -3.890625 C 3.160156 -4.066406 3.234375 -4.238281 3.265625 -4.40625 C 3.304688 -4.582031 3.304688 -4.703125 3.265625 -4.765625 Z M 3.265625 -4.765625 "/></g></g></g><g fill="rgb(36.079407%, 88.238525%, 90.19928%)" fill-opacity="0.4"><g transform="translate(22.183707, 21.542024)"><g/></g></g><g fill="rgb(36.079407%, 88.238525%, 90.19928%)" fill-opacity="0.4"><g transform="translate(26.160014, 20.892056)"><g><path d="M 3.703125 -10.75 C 3.828125 -10.519531 3.898438 -10.363281 3.921875 -10.28125 C 3.972656 -10.101562 3.9375 -9.945312 3.8125 -9.8125 C 3.8125 -9.800781 3.804688 -9.785156 3.796875 -9.765625 C 3.929688 -9.359375 4.007812 -8.96875 4.03125 -8.59375 C 4.0625 -8.21875 4.066406 -7.847656 4.046875 -7.484375 C 4.390625 -8.390625 4.675781 -9.066406 4.90625 -9.515625 C 5.375 -10.410156 5.832031 -11.066406 6.28125 -11.484375 C 6.4375 -11.617188 6.632812 -11.734375 6.875 -11.828125 C 7.113281 -11.921875 7.347656 -11.96875 7.578125 -11.96875 C 7.816406 -11.96875 8.019531 -11.90625 8.1875 -11.78125 C 8.351562 -11.65625 8.453125 -11.445312 8.484375 -11.15625 C 8.523438 -9.351562 8.523438 -7.671875 8.484375 -6.109375 C 8.453125 -4.546875 8.3125 -3.039062 8.0625 -1.59375 L 8.078125 -1.5625 L 8.0625 -1.5625 C 8.007812 -1.207031 7.78125 -0.925781 7.375 -0.71875 C 6.96875 -0.539062 6.585938 -0.46875 6.234375 -0.5 C 5.804688 -0.5625 5.582031 -0.757812 5.5625 -1.09375 L 5.53125 -1.40625 L 5.53125 -1.421875 C 5.53125 -1.628906 5.523438 -1.769531 5.515625 -1.84375 C 5.503906 -1.925781 5.5 -1.992188 5.5 -2.046875 C 5.488281 -2.285156 5.492188 -2.507812 5.515625 -2.71875 C 5.535156 -2.925781 5.550781 -3.097656 5.5625 -3.234375 C 5.570312 -3.367188 5.582031 -3.492188 5.59375 -3.609375 C 5.601562 -3.722656 5.609375 -3.816406 5.609375 -3.890625 C 5.335938 -3.347656 5.140625 -3.019531 5.015625 -2.90625 C 4.691406 -2.59375 4.289062 -2.410156 3.8125 -2.359375 C 3.507812 -2.328125 3.328125 -2.359375 3.265625 -2.453125 C 3.128906 -2.691406 3.039062 -2.832031 3 -2.875 C 2.9375 -2.945312 2.875 -3.066406 2.8125 -3.234375 C 2.75 -2.148438 2.640625 -1.378906 2.484375 -0.921875 C 2.421875 -0.722656 2.351562 -0.550781 2.28125 -0.40625 C 2.195312 -0.0820312 1.941406 0.171875 1.515625 0.359375 C 1.109375 0.546875 0.703125 0.609375 0.296875 0.546875 C -0.117188 0.484375 -0.34375 0.289062 -0.375 -0.03125 C -0.414062 -0.363281 -0.421875 -0.785156 -0.390625 -1.296875 C -0.359375 -1.804688 -0.304688 -2.351562 -0.234375 -2.9375 C -0.0664062 -4.75 0.0664062 -5.929688 0.171875 -6.484375 C 0.285156 -7.046875 0.390625 -7.488281 0.484375 -7.8125 C 0.679688 -8.550781 0.882812 -9.097656 1.09375 -9.453125 C 1.28125 -10.066406 1.691406 -10.476562 2.328125 -10.6875 C 2.816406 -10.882812 3.273438 -10.90625 3.703125 -10.75 Z M 3.703125 -10.75 "/></g></g></g><g fill="rgb(36.079407%, 88.238525%, 90.19928%)" fill-opacity="0.4"><g transform="translate(35.262267, 19.4042)"><g><path d="M 0.828125 -6.15625 C 0.890625 -6.46875 1.132812 -6.710938 1.5625 -6.890625 C 1.957031 -7.066406 2.351562 -7.125 2.75 -7.0625 C 3.132812 -6.96875 3.332031 -6.753906 3.34375 -6.421875 C 3.289062 -6.085938 3.226562 -5.679688 3.15625 -5.203125 C 3.082031 -4.734375 3.019531 -4.238281 2.96875 -3.71875 C 2.800781 -2.445312 2.738281 -1.554688 2.78125 -1.046875 C 2.78125 -0.210938 2.625 0.257812 2.3125 0.375 C 2.21875 0.414062 2.128906 0.445312 2.046875 0.46875 C 1.859375 0.507812 1.742188 0.582031 1.703125 0.6875 C 1.671875 0.800781 1.59375 0.894531 1.46875 0.96875 C 1.351562 1.039062 1.21875 1.082031 1.0625 1.09375 C 0.914062 1.113281 0.757812 1.101562 0.59375 1.0625 C 0.4375 1.019531 0.296875 0.941406 0.171875 0.828125 C -0.140625 0.578125 -0.257812 0.175781 -0.1875 -0.375 C -0.207031 -1.375 -0.046875 -2.675781 0.296875 -4.28125 C 0.453125 -5.09375 0.628906 -5.71875 0.828125 -6.15625 Z M 3.0625 -8.578125 C 2.632812 -8.429688 2.269531 -8.40625 1.96875 -8.5 C 1.664062 -8.601562 1.472656 -8.75 1.390625 -8.9375 C 1.316406 -9.132812 1.347656 -9.351562 1.484375 -9.59375 C 1.628906 -9.894531 1.898438 -10.117188 2.296875 -10.265625 C 2.460938 -10.316406 2.585938 -10.347656 2.671875 -10.359375 C 2.753906 -10.378906 2.859375 -10.382812 2.984375 -10.375 C 3.285156 -10.382812 3.503906 -10.28125 3.640625 -10.0625 C 3.796875 -9.882812 3.84375 -9.660156 3.78125 -9.390625 C 3.71875 -9.117188 3.476562 -8.847656 3.0625 -8.578125 Z M 3.0625 -8.578125 "/></g></g></g><g fill="rgb(36.079407%, 88.238525%, 90.19928%)" fill-opacity="0.4"><g transform="translate(39.3603, 18.734335)"><g><path d="M 2.5625 -0.96875 C 2.539062 -0.769531 2.503906 -0.59375 2.453125 -0.4375 C 2.410156 -0.28125 2.328125 -0.125 2.203125 0.03125 C 2.078125 0.1875 1.925781 0.332031 1.75 0.46875 C 1.570312 0.613281 1.390625 0.722656 1.203125 0.796875 C 0.816406 0.953125 0.582031 0.863281 0.5 0.53125 C 0.46875 0.457031 0.40625 0.421875 0.3125 0.421875 C 0.226562 0.421875 0.144531 0.410156 0.0625 0.390625 C -0.132812 0.335938 -0.226562 0.125 -0.21875 -0.25 C -0.144531 -0.78125 -0.078125 -1.410156 -0.015625 -2.140625 C 0.0351562 -2.867188 0.125 -3.679688 0.25 -4.578125 C 0.539062 -6.742188 1.03125 -8.726562 1.71875 -10.53125 C 1.769531 -10.613281 1.820312 -10.726562 1.875 -10.875 C 1.9375 -11.03125 2.03125 -11.171875 2.15625 -11.296875 C 2.40625 -11.628906 2.773438 -11.757812 3.265625 -11.6875 C 3.273438 -11.570312 3.320312 -11.46875 3.40625 -11.375 C 3.488281 -11.289062 3.570312 -11.207031 3.65625 -11.125 C 3.90625 -10.925781 4.035156 -10.734375 4.046875 -10.546875 C 3.460938 -8.117188 3.015625 -5.445312 2.703125 -2.53125 C 2.679688 -2.1875 2.660156 -1.890625 2.640625 -1.640625 C 2.617188 -1.390625 2.59375 -1.164062 2.5625 -0.96875 Z M 2.5625 -0.96875 "/></g></g></g><g fill="rgb(36.079407%, 88.238525%, 90.19928%)" fill-opacity="0.4"><g transform="translate(43.093157, 18.124161)"><g><path d="M 2.5625 -0.96875 C 2.539062 -0.769531 2.503906 -0.59375 2.453125 -0.4375 C 2.410156 -0.28125 2.328125 -0.125 2.203125 0.03125 C 2.078125 0.1875 1.925781 0.332031 1.75 0.46875 C 1.570312 0.613281 1.390625 0.722656 1.203125 0.796875 C 0.816406 0.953125 0.582031 0.863281 0.5 0.53125 C 0.46875 0.457031 0.40625 0.421875 0.3125 0.421875 C 0.226562 0.421875 0.144531 0.410156 0.0625 0.390625 C -0.132812 0.335938 -0.226562 0.125 -0.21875 -0.25 C -0.144531 -0.78125 -0.078125 -1.410156 -0.015625 -2.140625 C 0.0351562 -2.867188 0.125 -3.679688 0.25 -4.578125 C 0.539062 -6.742188 1.03125 -8.726562 1.71875 -10.53125 C 1.769531 -10.613281 1.820312 -10.726562 1.875 -10.875 C 1.9375 -11.03125 2.03125 -11.171875 2.15625 -11.296875 C 2.40625 -11.628906 2.773438 -11.757812 3.265625 -11.6875 C 3.273438 -11.570312 3.320312 -11.46875 3.40625 -11.375 C 3.488281 -11.289062 3.570312 -11.207031 3.65625 -11.125 C 3.90625 -10.925781 4.035156 -10.734375 4.046875 -10.546875 C 3.460938 -8.117188 3.015625 -5.445312 2.703125 -2.53125 C 2.679688 -2.1875 2.660156 -1.890625 2.640625 -1.640625 C 2.617188 -1.390625 2.59375 -1.164062 2.5625 -0.96875 Z M 2.5625 -0.96875 "/></g></g></g><g fill="rgb(36.079407%, 88.238525%, 90.19928%)" fill-opacity="0.4"><g transform="translate(46.826014, 17.513988)"><g><path d="M 4.390625 -2.765625 C 4.222656 -2.660156 4.066406 -2.570312 3.921875 -2.5 C 3.773438 -2.4375 3.59375 -2.363281 3.375 -2.28125 C 2.832031 -2.0625 2.4375 -1.925781 2.1875 -1.875 C 2.226562 -1.789062 2.378906 -1.707031 2.640625 -1.625 C 2.796875 -1.613281 2.96875 -1.660156 3.15625 -1.765625 C 3.34375 -1.878906 3.535156 -1.988281 3.734375 -2.09375 C 3.929688 -2.195312 4.128906 -2.269531 4.328125 -2.3125 C 4.535156 -2.351562 4.742188 -2.304688 4.953125 -2.171875 C 5.054688 -2.015625 5.128906 -1.925781 5.171875 -1.90625 C 5.222656 -1.894531 5.265625 -1.890625 5.296875 -1.890625 C 5.335938 -1.898438 5.378906 -1.894531 5.421875 -1.875 C 5.472656 -1.851562 5.554688 -1.757812 5.671875 -1.59375 C 5.785156 -1.4375 5.789062 -1.265625 5.6875 -1.078125 C 5.582031 -0.890625 5.40625 -0.710938 5.15625 -0.546875 C 4.90625 -0.378906 4.601562 -0.234375 4.25 -0.109375 C 3.90625 0.015625 3.550781 0.117188 3.1875 0.203125 C 2.394531 0.398438 1.769531 0.441406 1.3125 0.328125 C 0.664062 0.222656 0.207031 -0.117188 -0.0625 -0.703125 C -0.4375 -1.484375 -0.460938 -2.457031 -0.140625 -3.625 C -0.00390625 -4.15625 0.257812 -4.753906 0.65625 -5.421875 C 1 -5.984375 1.414062 -6.421875 1.90625 -6.734375 C 2.457031 -7.085938 3.066406 -7.3125 3.734375 -7.40625 C 4.441406 -7.5 4.976562 -7.273438 5.34375 -6.734375 C 5.519531 -6.441406 5.617188 -6 5.640625 -5.40625 C 5.617188 -4.644531 5.515625 -4.09375 5.328125 -3.75 C 5.140625 -3.414062 4.828125 -3.085938 4.390625 -2.765625 Z M 3.265625 -4.765625 C 2.765625 -4.796875 2.429688 -4.46875 2.265625 -3.78125 C 2.222656 -3.59375 2.191406 -3.40625 2.171875 -3.21875 C 2.472656 -3.226562 2.765625 -3.453125 3.046875 -3.890625 C 3.160156 -4.066406 3.234375 -4.238281 3.265625 -4.40625 C 3.304688 -4.582031 3.304688 -4.703125 3.265625 -4.765625 Z M 3.265625 -4.765625 "/></g></g></g><g clip-path="url(#id3)"><g fill="rgb(36.079407%, 88.238525%, 90.19928%)" fill-opacity="0.4"><g transform="translate(53.101558, 16.488186)"><g><path d="M 0.484375 -5.828125 C 0.554688 -6.179688 0.691406 -6.457031 0.890625 -6.65625 C 1.097656 -6.851562 1.304688 -6.988281 1.515625 -7.0625 C 1.722656 -7.132812 1.90625 -7.140625 2.0625 -7.078125 C 2.21875 -7.015625 2.285156 -6.882812 2.265625 -6.6875 C 2.410156 -6.894531 2.628906 -7.09375 2.921875 -7.28125 C 3.222656 -7.476562 3.46875 -7.617188 3.65625 -7.703125 C 3.84375 -7.785156 4.003906 -7.835938 4.140625 -7.859375 C 4.429688 -7.898438 4.539062 -7.753906 4.46875 -7.421875 C 4.625 -7.410156 4.753906 -7.328125 4.859375 -7.171875 C 4.960938 -7.023438 5 -6.835938 4.96875 -6.609375 C 4.945312 -6.390625 4.859375 -6.164062 4.703125 -5.9375 C 4.546875 -5.71875 4.3125 -5.546875 4 -5.421875 C 3.695312 -5.296875 3.460938 -5.085938 3.296875 -4.796875 C 3.128906 -4.503906 2.992188 -4.15625 2.890625 -3.75 C 2.722656 -3.0625 2.628906 -2.117188 2.609375 -0.921875 C 2.609375 -0.472656 2.367188 -0.0664062 1.890625 0.296875 C 1.453125 0.660156 1.023438 0.8125 0.609375 0.75 C 0.117188 0.695312 -0.144531 0.398438 -0.1875 -0.140625 C -0.226562 -0.535156 -0.191406 -1.070312 -0.078125 -1.75 C 0.0351562 -2.4375 0.117188 -2.953125 0.171875 -3.296875 C 0.234375 -3.648438 0.273438 -3.914062 0.296875 -4.09375 Z M 0.484375 -5.828125 "/></g></g></g></g><g clip-path="url(#id4)"><g fill="rgb(36.079407%, 88.238525%, 90.19928%)" fill-opacity="1"><g transform="translate(2.864463, 24.086203)"><g><path d="M 4.796875 -0.125 C 4.617188 -0.0390625 4.445312 0.015625 4.28125 0.046875 C 4.113281 0.078125 3.9375 0.113281 3.75 0.15625 C 3.570312 0.195312 3.332031 0.238281 3.03125 0.28125 C 2.726562 0.332031 2.269531 0.398438 1.65625 0.484375 C 1.507812 0.515625 1.363281 0.539062 1.21875 0.5625 C 1.070312 0.59375 0.929688 0.59375 0.796875 0.5625 C 0.503906 0.488281 0.273438 0.25 0.109375 -0.15625 C 0.0234375 -0.351562 -0.0507812 -0.484375 -0.125 -0.546875 C -0.195312 -0.617188 -0.253906 -0.6875 -0.296875 -0.75 C -0.410156 -0.882812 -0.441406 -1.125 -0.390625 -1.46875 C -0.347656 -1.820312 -0.28125 -2.253906 -0.1875 -2.765625 C -0.101562 -3.285156 -0.0078125 -3.835938 0.09375 -4.421875 C 0.375 -5.816406 0.640625 -6.929688 0.890625 -7.765625 C 0.992188 -8.128906 1.082031 -8.445312 1.15625 -8.71875 C 1.226562 -8.988281 1.289062 -9.222656 1.34375 -9.421875 C 1.394531 -9.617188 1.421875 -9.722656 1.421875 -9.734375 C 1.460938 -10.085938 1.769531 -10.429688 2.34375 -10.765625 C 2.882812 -11.109375 3.398438 -11.253906 3.890625 -11.203125 C 4.453125 -11.160156 4.75 -10.851562 4.78125 -10.28125 C 4.75 -9.695312 4.648438 -9.101562 4.484375 -8.5 C 4.328125 -7.90625 4.140625 -7.273438 3.921875 -6.609375 C 3.710938 -5.941406 3.476562 -5.238281 3.21875 -4.5 C 2.957031 -3.757812 2.71875 -2.957031 2.5 -2.09375 C 2.488281 -2.0625 2.515625 -2.035156 2.578125 -2.015625 C 2.679688 -2.035156 2.832031 -2.09375 3.03125 -2.1875 C 3.238281 -2.289062 3.453125 -2.382812 3.671875 -2.46875 C 3.890625 -2.550781 4.113281 -2.609375 4.34375 -2.640625 C 4.570312 -2.679688 4.773438 -2.660156 4.953125 -2.578125 C 4.972656 -2.421875 5.03125 -2.296875 5.125 -2.203125 C 5.226562 -2.117188 5.332031 -2.039062 5.4375 -1.96875 C 5.707031 -1.769531 5.78125 -1.460938 5.65625 -1.046875 C 5.53125 -0.628906 5.242188 -0.320312 4.796875 -0.125 Z M 4.796875 -0.125 "/></g></g></g></g><g fill="rgb(36.079407%, 88.238525%, 90.19928%)" fill-opacity="1"><g transform="translate(8.937132, 23.093563)"><g><path d="M 4.390625 -2.765625 C 4.222656 -2.660156 4.066406 -2.570312 3.921875 -2.5 C 3.773438 -2.4375 3.59375 -2.363281 3.375 -2.28125 C 2.832031 -2.0625 2.4375 -1.925781 2.1875 -1.875 C 2.226562 -1.789062 2.378906 -1.707031 2.640625 -1.625 C 2.796875 -1.613281 2.96875 -1.660156 3.15625 -1.765625 C 3.34375 -1.878906 3.535156 -1.988281 3.734375 -2.09375 C 3.929688 -2.195312 4.128906 -2.269531 4.328125 -2.3125 C 4.535156 -2.351562 4.742188 -2.304688 4.953125 -2.171875 C 5.054688 -2.015625 5.128906 -1.925781 5.171875 -1.90625 C 5.222656 -1.894531 5.265625 -1.890625 5.296875 -1.890625 C 5.335938 -1.898438 5.378906 -1.894531 5.421875 -1.875 C 5.472656 -1.851562 5.554688 -1.757812 5.671875 -1.59375 C 5.785156 -1.4375 5.789062 -1.265625 5.6875 -1.078125 C 5.582031 -0.890625 5.40625 -0.710938 5.15625 -0.546875 C 4.90625 -0.378906 4.601562 -0.234375 4.25 -0.109375 C 3.90625 0.015625 3.550781 0.117188 3.1875 0.203125 C 2.394531 0.398438 1.769531 0.441406 1.3125 0.328125 C 0.664062 0.222656 0.207031 -0.117188 -0.0625 -0.703125 C -0.4375 -1.484375 -0.460938 -2.457031 -0.140625 -3.625 C -0.00390625 -4.15625 0.257812 -4.753906 0.65625 -5.421875 C 1 -5.984375 1.414062 -6.421875 1.90625 -6.734375 C 2.457031 -7.085938 3.066406 -7.3125 3.734375 -7.40625 C 4.441406 -7.5 4.976562 -7.273438 5.34375 -6.734375 C 5.519531 -6.441406 5.617188 -6 5.640625 -5.40625 C 5.617188 -4.644531 5.515625 -4.09375 5.328125 -3.75 C 5.140625 -3.414062 4.828125 -3.085938 4.390625 -2.765625 Z M 3.265625 -4.765625 C 2.765625 -4.796875 2.429688 -4.46875 2.265625 -3.78125 C 2.222656 -3.59375 2.191406 -3.40625 2.171875 -3.21875 C 2.472656 -3.226562 2.765625 -3.453125 3.046875 -3.890625 C 3.160156 -4.066406 3.234375 -4.238281 3.265625 -4.40625 C 3.304688 -4.582031 3.304688 -4.703125 3.265625 -4.765625 Z M 3.265625 -4.765625 "/></g></g></g><g fill="rgb(36.079407%, 88.238525%, 90.19928%)" fill-opacity="1"><g transform="translate(15.212675, 22.067761)"><g><path d="M 4.390625 -2.765625 C 4.222656 -2.660156 4.066406 -2.570312 3.921875 -2.5 C 3.773438 -2.4375 3.59375 -2.363281 3.375 -2.28125 C 2.832031 -2.0625 2.4375 -1.925781 2.1875 -1.875 C 2.226562 -1.789062 2.378906 -1.707031 2.640625 -1.625 C 2.796875 -1.613281 2.96875 -1.660156 3.15625 -1.765625 C 3.34375 -1.878906 3.535156 -1.988281 3.734375 -2.09375 C 3.929688 -2.195312 4.128906 -2.269531 4.328125 -2.3125 C 4.535156 -2.351562 4.742188 -2.304688 4.953125 -2.171875 C 5.054688 -2.015625 5.128906 -1.925781 5.171875 -1.90625 C 5.222656 -1.894531 5.265625 -1.890625 5.296875 -1.890625 C 5.335938 -1.898438 5.378906 -1.894531 5.421875 -1.875 C 5.472656 -1.851562 5.554688 -1.757812 5.671875 -1.59375 C 5.785156 -1.4375 5.789062 -1.265625 5.6875 -1.078125 C 5.582031 -0.890625 5.40625 -0.710938 5.15625 -0.546875 C 4.90625 -0.378906 4.601562 -0.234375 4.25 -0.109375 C 3.90625 0.015625 3.550781 0.117188 3.1875 0.203125 C 2.394531 0.398438 1.769531 0.441406 1.3125 0.328125 C 0.664062 0.222656 0.207031 -0.117188 -0.0625 -0.703125 C -0.4375 -1.484375 -0.460938 -2.457031 -0.140625 -3.625 C -0.00390625 -4.15625 0.257812 -4.753906 0.65625 -5.421875 C 1 -5.984375 1.414062 -6.421875 1.90625 -6.734375 C 2.457031 -7.085938 3.066406 -7.3125 3.734375 -7.40625 C 4.441406 -7.5 4.976562 -7.273438 5.34375 -6.734375 C 5.519531 -6.441406 5.617188 -6 5.640625 -5.40625 C 5.617188 -4.644531 5.515625 -4.09375 5.328125 -3.75 C 5.140625 -3.414062 4.828125 -3.085938 4.390625 -2.765625 Z M 3.265625 -4.765625 C 2.765625 -4.796875 2.429688 -4.46875 2.265625 -3.78125 C 2.222656 -3.59375 2.191406 -3.40625 2.171875 -3.21875 C 2.472656 -3.226562 2.765625 -3.453125 3.046875 -3.890625 C 3.160156 -4.066406 3.234375 -4.238281 3.265625 -4.40625 C 3.304688 -4.582031 3.304688 -4.703125 3.265625 -4.765625 Z M 3.265625 -4.765625 "/></g></g></g><g fill="rgb(36.079407%, 88.238525%, 90.19928%)" fill-opacity="1"><g transform="translate(21.488218, 21.04196)"><g/></g></g><g fill="rgb(36.079407%, 88.238525%, 90.19928%)" fill-opacity="1"><g transform="translate(25.464525, 20.391992)"><g><path d="M 3.703125 -10.75 C 3.828125 -10.519531 3.898438 -10.363281 3.921875 -10.28125 C 3.972656 -10.101562 3.9375 -9.945312 3.8125 -9.8125 C 3.8125 -9.800781 3.804688 -9.785156 3.796875 -9.765625 C 3.929688 -9.359375 4.007812 -8.96875 4.03125 -8.59375 C 4.0625 -8.21875 4.066406 -7.847656 4.046875 -7.484375 C 4.390625 -8.390625 4.675781 -9.066406 4.90625 -9.515625 C 5.375 -10.410156 5.832031 -11.066406 6.28125 -11.484375 C 6.4375 -11.617188 6.632812 -11.734375 6.875 -11.828125 C 7.113281 -11.921875 7.347656 -11.96875 7.578125 -11.96875 C 7.816406 -11.96875 8.019531 -11.90625 8.1875 -11.78125 C 8.351562 -11.65625 8.453125 -11.445312 8.484375 -11.15625 C 8.523438 -9.351562 8.523438 -7.671875 8.484375 -6.109375 C 8.453125 -4.546875 8.3125 -3.039062 8.0625 -1.59375 L 8.078125 -1.5625 L 8.0625 -1.5625 C 8.007812 -1.207031 7.78125 -0.925781 7.375 -0.71875 C 6.96875 -0.539062 6.585938 -0.46875 6.234375 -0.5 C 5.804688 -0.5625 5.582031 -0.757812 5.5625 -1.09375 L 5.53125 -1.40625 L 5.53125 -1.421875 C 5.53125 -1.628906 5.523438 -1.769531 5.515625 -1.84375 C 5.503906 -1.925781 5.5 -1.992188 5.5 -2.046875 C 5.488281 -2.285156 5.492188 -2.507812 5.515625 -2.71875 C 5.535156 -2.925781 5.550781 -3.097656 5.5625 -3.234375 C 5.570312 -3.367188 5.582031 -3.492188 5.59375 -3.609375 C 5.601562 -3.722656 5.609375 -3.816406 5.609375 -3.890625 C 5.335938 -3.347656 5.140625 -3.019531 5.015625 -2.90625 C 4.691406 -2.59375 4.289062 -2.410156 3.8125 -2.359375 C 3.507812 -2.328125 3.328125 -2.359375 3.265625 -2.453125 C 3.128906 -2.691406 3.039062 -2.832031 3 -2.875 C 2.9375 -2.945312 2.875 -3.066406 2.8125 -3.234375 C 2.75 -2.148438 2.640625 -1.378906 2.484375 -0.921875 C 2.421875 -0.722656 2.351562 -0.550781 2.28125 -0.40625 C 2.195312 -0.0820312 1.941406 0.171875 1.515625 0.359375 C 1.109375 0.546875 0.703125 0.609375 0.296875 0.546875 C -0.117188 0.484375 -0.34375 0.289062 -0.375 -0.03125 C -0.414062 -0.363281 -0.421875 -0.785156 -0.390625 -1.296875 C -0.359375 -1.804688 -0.304688 -2.351562 -0.234375 -2.9375 C -0.0664062 -4.75 0.0664062 -5.929688 0.171875 -6.484375 C 0.285156 -7.046875 0.390625 -7.488281 0.484375 -7.8125 C 0.679688 -8.550781 0.882812 -9.097656 1.09375 -9.453125 C 1.28125 -10.066406 1.691406 -10.476562 2.328125 -10.6875 C 2.816406 -10.882812 3.273438 -10.90625 3.703125 -10.75 Z M 3.703125 -10.75 "/></g></g></g><g fill="rgb(36.079407%, 88.238525%, 90.19928%)" fill-opacity="1"><g transform="translate(34.566778, 18.904136)"><g><path d="M 0.828125 -6.15625 C 0.890625 -6.46875 1.132812 -6.710938 1.5625 -6.890625 C 1.957031 -7.066406 2.351562 -7.125 2.75 -7.0625 C 3.132812 -6.96875 3.332031 -6.753906 3.34375 -6.421875 C 3.289062 -6.085938 3.226562 -5.679688 3.15625 -5.203125 C 3.082031 -4.734375 3.019531 -4.238281 2.96875 -3.71875 C 2.800781 -2.445312 2.738281 -1.554688 2.78125 -1.046875 C 2.78125 -0.210938 2.625 0.257812 2.3125 0.375 C 2.21875 0.414062 2.128906 0.445312 2.046875 0.46875 C 1.859375 0.507812 1.742188 0.582031 1.703125 0.6875 C 1.671875 0.800781 1.59375 0.894531 1.46875 0.96875 C 1.351562 1.039062 1.21875 1.082031 1.0625 1.09375 C 0.914062 1.113281 0.757812 1.101562 0.59375 1.0625 C 0.4375 1.019531 0.296875 0.941406 0.171875 0.828125 C -0.140625 0.578125 -0.257812 0.175781 -0.1875 -0.375 C -0.207031 -1.375 -0.046875 -2.675781 0.296875 -4.28125 C 0.453125 -5.09375 0.628906 -5.71875 0.828125 -6.15625 Z M 3.0625 -8.578125 C 2.632812 -8.429688 2.269531 -8.40625 1.96875 -8.5 C 1.664062 -8.601562 1.472656 -8.75 1.390625 -8.9375 C 1.316406 -9.132812 1.347656 -9.351562 1.484375 -9.59375 C 1.628906 -9.894531 1.898438 -10.117188 2.296875 -10.265625 C 2.460938 -10.316406 2.585938 -10.347656 2.671875 -10.359375 C 2.753906 -10.378906 2.859375 -10.382812 2.984375 -10.375 C 3.285156 -10.382812 3.503906 -10.28125 3.640625 -10.0625 C 3.796875 -9.882812 3.84375 -9.660156 3.78125 -9.390625 C 3.71875 -9.117188 3.476562 -8.847656 3.0625 -8.578125 Z M 3.0625 -8.578125 "/></g></g></g><g fill="rgb(36.079407%, 88.238525%, 90.19928%)" fill-opacity="1"><g transform="translate(38.664811, 18.234271)"><g><path d="M 2.5625 -0.96875 C 2.539062 -0.769531 2.503906 -0.59375 2.453125 -0.4375 C 2.410156 -0.28125 2.328125 -0.125 2.203125 0.03125 C 2.078125 0.1875 1.925781 0.332031 1.75 0.46875 C 1.570312 0.613281 1.390625 0.722656 1.203125 0.796875 C 0.816406 0.953125 0.582031 0.863281 0.5 0.53125 C 0.46875 0.457031 0.40625 0.421875 0.3125 0.421875 C 0.226562 0.421875 0.144531 0.410156 0.0625 0.390625 C -0.132812 0.335938 -0.226562 0.125 -0.21875 -0.25 C -0.144531 -0.78125 -0.078125 -1.410156 -0.015625 -2.140625 C 0.0351562 -2.867188 0.125 -3.679688 0.25 -4.578125 C 0.539062 -6.742188 1.03125 -8.726562 1.71875 -10.53125 C 1.769531 -10.613281 1.820312 -10.726562 1.875 -10.875 C 1.9375 -11.03125 2.03125 -11.171875 2.15625 -11.296875 C 2.40625 -11.628906 2.773438 -11.757812 3.265625 -11.6875 C 3.273438 -11.570312 3.320312 -11.46875 3.40625 -11.375 C 3.488281 -11.289062 3.570312 -11.207031 3.65625 -11.125 C 3.90625 -10.925781 4.035156 -10.734375 4.046875 -10.546875 C 3.460938 -8.117188 3.015625 -5.445312 2.703125 -2.53125 C 2.679688 -2.1875 2.660156 -1.890625 2.640625 -1.640625 C 2.617188 -1.390625 2.59375 -1.164062 2.5625 -0.96875 Z M 2.5625 -0.96875 "/></g></g></g><g fill="rgb(36.079407%, 88.238525%, 90.19928%)" fill-opacity="1"><g transform="translate(42.397668, 17.624097)"><g><path d="M 2.5625 -0.96875 C 2.539062 -0.769531 2.503906 -0.59375 2.453125 -0.4375 C 2.410156 -0.28125 2.328125 -0.125 2.203125 0.03125 C 2.078125 0.1875 1.925781 0.332031 1.75 0.46875 C 1.570312 0.613281 1.390625 0.722656 1.203125 0.796875 C 0.816406 0.953125 0.582031 0.863281 0.5 0.53125 C 0.46875 0.457031 0.40625 0.421875 0.3125 0.421875 C 0.226562 0.421875 0.144531 0.410156 0.0625 0.390625 C -0.132812 0.335938 -0.226562 0.125 -0.21875 -0.25 C -0.144531 -0.78125 -0.078125 -1.410156 -0.015625 -2.140625 C 0.0351562 -2.867188 0.125 -3.679688 0.25 -4.578125 C 0.539062 -6.742188 1.03125 -8.726562 1.71875 -10.53125 C 1.769531 -10.613281 1.820312 -10.726562 1.875 -10.875 C 1.9375 -11.03125 2.03125 -11.171875 2.15625 -11.296875 C 2.40625 -11.628906 2.773438 -11.757812 3.265625 -11.6875 C 3.273438 -11.570312 3.320312 -11.46875 3.40625 -11.375 C 3.488281 -11.289062 3.570312 -11.207031 3.65625 -11.125 C 3.90625 -10.925781 4.035156 -10.734375 4.046875 -10.546875 C 3.460938 -8.117188 3.015625 -5.445312 2.703125 -2.53125 C 2.679688 -2.1875 2.660156 -1.890625 2.640625 -1.640625 C 2.617188 -1.390625 2.59375 -1.164062 2.5625 -0.96875 Z M 2.5625 -0.96875 "/></g></g></g><g fill="rgb(36.079407%, 88.238525%, 90.19928%)" fill-opacity="1"><g transform="translate(46.130525, 17.013924)"><g><path d="M 4.390625 -2.765625 C 4.222656 -2.660156 4.066406 -2.570312 3.921875 -2.5 C 3.773438 -2.4375 3.59375 -2.363281 3.375 -2.28125 C 2.832031 -2.0625 2.4375 -1.925781 2.1875 -1.875 C 2.226562 -1.789062 2.378906 -1.707031 2.640625 -1.625 C 2.796875 -1.613281 2.96875 -1.660156 3.15625 -1.765625 C 3.34375 -1.878906 3.535156 -1.988281 3.734375 -2.09375 C 3.929688 -2.195312 4.128906 -2.269531 4.328125 -2.3125 C 4.535156 -2.351562 4.742188 -2.304688 4.953125 -2.171875 C 5.054688 -2.015625 5.128906 -1.925781 5.171875 -1.90625 C 5.222656 -1.894531 5.265625 -1.890625 5.296875 -1.890625 C 5.335938 -1.898438 5.378906 -1.894531 5.421875 -1.875 C 5.472656 -1.851562 5.554688 -1.757812 5.671875 -1.59375 C 5.785156 -1.4375 5.789062 -1.265625 5.6875 -1.078125 C 5.582031 -0.890625 5.40625 -0.710938 5.15625 -0.546875 C 4.90625 -0.378906 4.601562 -0.234375 4.25 -0.109375 C 3.90625 0.015625 3.550781 0.117188 3.1875 0.203125 C 2.394531 0.398438 1.769531 0.441406 1.3125 0.328125 C 0.664062 0.222656 0.207031 -0.117188 -0.0625 -0.703125 C -0.4375 -1.484375 -0.460938 -2.457031 -0.140625 -3.625 C -0.00390625 -4.15625 0.257812 -4.753906 0.65625 -5.421875 C 1 -5.984375 1.414062 -6.421875 1.90625 -6.734375 C 2.457031 -7.085938 3.066406 -7.3125 3.734375 -7.40625 C 4.441406 -7.5 4.976562 -7.273438 5.34375 -6.734375 C 5.519531 -6.441406 5.617188 -6 5.640625 -5.40625 C 5.617188 -4.644531 5.515625 -4.09375 5.328125 -3.75 C 5.140625 -3.414062 4.828125 -3.085938 4.390625 -2.765625 Z M 3.265625 -4.765625 C 2.765625 -4.796875 2.429688 -4.46875 2.265625 -3.78125 C 2.222656 -3.59375 2.191406 -3.40625 2.171875 -3.21875 C 2.472656 -3.226562 2.765625 -3.453125 3.046875 -3.890625 C 3.160156 -4.066406 3.234375 -4.238281 3.265625 -4.40625 C 3.304688 -4.582031 3.304688 -4.703125 3.265625 -4.765625 Z M 3.265625 -4.765625 "/></g></g></g><g fill="rgb(36.079407%, 88.238525%, 90.19928%)" fill-opacity="1"><g transform="translate(52.406069, 15.988122)"><g><path d="M 0.484375 -5.828125 C 0.554688 -6.179688 0.691406 -6.457031 0.890625 -6.65625 C 1.097656 -6.851562 1.304688 -6.988281 1.515625 -7.0625 C 1.722656 -7.132812 1.90625 -7.140625 2.0625 -7.078125 C 2.21875 -7.015625 2.285156 -6.882812 2.265625 -6.6875 C 2.410156 -6.894531 2.628906 -7.09375 2.921875 -7.28125 C 3.222656 -7.476562 3.46875 -7.617188 3.65625 -7.703125 C 3.84375 -7.785156 4.003906 -7.835938 4.140625 -7.859375 C 4.429688 -7.898438 4.539062 -7.753906 4.46875 -7.421875 C 4.625 -7.410156 4.753906 -7.328125 4.859375 -7.171875 C 4.960938 -7.023438 5 -6.835938 4.96875 -6.609375 C 4.945312 -6.390625 4.859375 -6.164062 4.703125 -5.9375 C 4.546875 -5.71875 4.3125 -5.546875 4 -5.421875 C 3.695312 -5.296875 3.460938 -5.085938 3.296875 -4.796875 C 3.128906 -4.503906 2.992188 -4.15625 2.890625 -3.75 C 2.722656 -3.0625 2.628906 -2.117188 2.609375 -0.921875 C 2.609375 -0.472656 2.367188 -0.0664062 1.890625 0.296875 C 1.453125 0.660156 1.023438 0.8125 0.609375 0.75 C 0.117188 0.695312 -0.144531 0.398438 -0.1875 -0.140625 C -0.226562 -0.535156 -0.191406 -1.070312 -0.078125 -1.75 C 0.0351562 -2.4375 0.117188 -2.953125 0.171875 -3.296875 C 0.234375 -3.648438 0.273438 -3.914062 0.296875 -4.09375 Z M 0.484375 -5.828125 "/></g></g></g><g fill="rgb(93.728638%, 17.248535%, 37.249756%)" fill-opacity="1"><g transform="translate(20.469412, 29.604064)"><g><path d="M 0.515625 -0.078125 L 0.203125 -2.015625 L -0.1875 -1.859375 L -0.25 -2.203125 L 0.28125 -2.578125 L 0.5625 -2.625 L 0.96875 -0.15625 Z M 0.515625 -0.078125 "/></g></g></g><g fill="rgb(93.728638%, 17.248535%, 37.249756%)" fill-opacity="1"><g transform="translate(21.682465, 29.406789)"><g><path d="M 1.078125 -0.125 C 0.898438 -0.101562 0.75 -0.113281 0.625 -0.15625 C 0.507812 -0.207031 0.410156 -0.28125 0.328125 -0.375 C 0.242188 -0.476562 0.1875 -0.585938 0.15625 -0.703125 L 0.5625 -0.765625 C 0.601562 -0.671875 0.664062 -0.597656 0.75 -0.546875 C 0.832031 -0.503906 0.925781 -0.488281 1.03125 -0.5 C 1.1875 -0.53125 1.300781 -0.625 1.375 -0.78125 C 1.445312 -0.9375 1.460938 -1.164062 1.421875 -1.46875 C 1.378906 -1.363281 1.304688 -1.269531 1.203125 -1.1875 C 1.097656 -1.101562 0.976562 -1.050781 0.84375 -1.03125 C 0.707031 -1.007812 0.578125 -1.019531 0.453125 -1.0625 C 0.328125 -1.101562 0.210938 -1.179688 0.109375 -1.296875 C 0.015625 -1.410156 -0.0390625 -1.546875 -0.0625 -1.703125 C -0.09375 -1.847656 -0.0820312 -1.988281 -0.03125 -2.125 C 0.0195312 -2.257812 0.101562 -2.375 0.21875 -2.46875 C 0.332031 -2.570312 0.476562 -2.640625 0.65625 -2.671875 C 0.84375 -2.703125 1.003906 -2.691406 1.140625 -2.640625 C 1.285156 -2.597656 1.40625 -2.523438 1.5 -2.421875 C 1.59375 -2.316406 1.664062 -2.195312 1.71875 -2.0625 C 1.769531 -1.925781 1.804688 -1.785156 1.828125 -1.640625 C 1.878906 -1.359375 1.878906 -1.113281 1.828125 -0.90625 C 1.785156 -0.695312 1.703125 -0.519531 1.578125 -0.375 C 1.453125 -0.238281 1.285156 -0.15625 1.078125 -0.125 Z M 0.890625 -1.421875 C 0.972656 -1.441406 1.046875 -1.476562 1.109375 -1.53125 C 1.179688 -1.582031 1.234375 -1.640625 1.265625 -1.703125 C 1.296875 -1.773438 1.304688 -1.851562 1.296875 -1.9375 C 1.273438 -2.050781 1.210938 -2.140625 1.109375 -2.203125 C 1.003906 -2.273438 0.882812 -2.300781 0.75 -2.28125 C 0.613281 -2.257812 0.503906 -2.203125 0.421875 -2.109375 C 0.347656 -2.023438 0.328125 -1.921875 0.359375 -1.796875 C 0.367188 -1.671875 0.425781 -1.570312 0.53125 -1.5 C 0.632812 -1.425781 0.753906 -1.398438 0.890625 -1.421875 Z M 0.890625 -1.421875 "/></g></g></g><g fill="rgb(93.728638%, 17.248535%, 37.249756%)" fill-opacity="1"><g transform="translate(23.91167, 29.04426)"><g><path d="M 1.25 -0.15625 C 1.019531 -0.113281 0.816406 -0.132812 0.640625 -0.21875 C 0.460938 -0.300781 0.3125 -0.429688 0.1875 -0.609375 C 0.0703125 -0.785156 -0.00390625 -1.003906 -0.046875 -1.265625 C -0.0859375 -1.515625 -0.078125 -1.738281 -0.015625 -1.9375 C 0.0351562 -2.144531 0.132812 -2.3125 0.28125 -2.4375 C 0.425781 -2.570312 0.613281 -2.660156 0.84375 -2.703125 C 1.070312 -2.742188 1.273438 -2.722656 1.453125 -2.640625 C 1.628906 -2.566406 1.773438 -2.4375 1.890625 -2.25 C 2.015625 -2.070312 2.097656 -1.859375 2.140625 -1.609375 C 2.179688 -1.347656 2.171875 -1.117188 2.109375 -0.921875 C 2.054688 -0.722656 1.957031 -0.554688 1.8125 -0.421875 C 1.664062 -0.285156 1.476562 -0.195312 1.25 -0.15625 Z M 1.1875 -0.5625 C 1.375 -0.59375 1.507812 -0.695312 1.59375 -0.875 C 1.6875 -1.050781 1.710938 -1.273438 1.671875 -1.546875 C 1.628906 -1.816406 1.535156 -2.015625 1.390625 -2.140625 C 1.253906 -2.273438 1.09375 -2.328125 0.90625 -2.296875 C 0.71875 -2.265625 0.578125 -2.160156 0.484375 -1.984375 C 0.390625 -1.816406 0.363281 -1.597656 0.40625 -1.328125 C 0.445312 -1.054688 0.539062 -0.851562 0.6875 -0.71875 C 0.832031 -0.582031 1 -0.53125 1.1875 -0.5625 Z M 1.1875 -0.5625 "/></g></g></g><g fill="rgb(93.728638%, 17.248535%, 37.249756%)" fill-opacity="1"><g transform="translate(26.4081, 28.638273)"><g><path d="M 0.390625 -0.0625 L 0.96875 -2.296875 L -0.25 -2.09375 L -0.3125 -2.484375 L 1.375 -2.75 L 1.4375 -2.421875 L 0.84375 -0.140625 Z M 0.390625 -0.0625 "/></g></g></g><g fill="rgb(93.728638%, 17.248535%, 37.249756%)" fill-opacity="1"><g transform="translate(28.285696, 28.332925)"><g/></g></g><g fill="rgb(93.728638%, 17.248535%, 37.249756%)" fill-opacity="1"><g transform="translate(29.122526, 28.196834)"><g><path d="M 0.0625 -0.859375 L 0 -1.234375 L 1.46875 -1.46875 L 1.53125 -1.09375 Z M 0.0625 -0.859375 "/></g></g></g><g fill="rgb(93.728638%, 17.248535%, 37.249756%)" fill-opacity="1"><g transform="translate(30.975509, 27.895489)"><g/></g></g><g fill="rgb(93.728638%, 17.248535%, 37.249756%)" fill-opacity="1"><g transform="translate(31.81234, 27.759398)"><g><path d="M 0.515625 -0.078125 L 0.203125 -2.015625 L -0.1875 -1.859375 L -0.25 -2.203125 L 0.28125 -2.578125 L 0.5625 -2.625 L 0.96875 -0.15625 Z M 0.515625 -0.078125 "/></g></g></g><g fill="rgb(93.728638%, 17.248535%, 37.249756%)" fill-opacity="1"><g transform="translate(33.025393, 27.562123)"><g><path d="M 1.078125 -0.125 C 0.898438 -0.101562 0.75 -0.113281 0.625 -0.15625 C 0.507812 -0.207031 0.410156 -0.28125 0.328125 -0.375 C 0.242188 -0.476562 0.1875 -0.585938 0.15625 -0.703125 L 0.5625 -0.765625 C 0.601562 -0.671875 0.664062 -0.597656 0.75 -0.546875 C 0.832031 -0.503906 0.925781 -0.488281 1.03125 -0.5 C 1.1875 -0.53125 1.300781 -0.625 1.375 -0.78125 C 1.445312 -0.9375 1.460938 -1.164062 1.421875 -1.46875 C 1.378906 -1.363281 1.304688 -1.269531 1.203125 -1.1875 C 1.097656 -1.101562 0.976562 -1.050781 0.84375 -1.03125 C 0.707031 -1.007812 0.578125 -1.019531 0.453125 -1.0625 C 0.328125 -1.101562 0.210938 -1.179688 0.109375 -1.296875 C 0.015625 -1.410156 -0.0390625 -1.546875 -0.0625 -1.703125 C -0.09375 -1.847656 -0.0820312 -1.988281 -0.03125 -2.125 C 0.0195312 -2.257812 0.101562 -2.375 0.21875 -2.46875 C 0.332031 -2.570312 0.476562 -2.640625 0.65625 -2.671875 C 0.84375 -2.703125 1.003906 -2.691406 1.140625 -2.640625 C 1.285156 -2.597656 1.40625 -2.523438 1.5 -2.421875 C 1.59375 -2.316406 1.664062 -2.195312 1.71875 -2.0625 C 1.769531 -1.925781 1.804688 -1.785156 1.828125 -1.640625 C 1.878906 -1.359375 1.878906 -1.113281 1.828125 -0.90625 C 1.785156 -0.695312 1.703125 -0.519531 1.578125 -0.375 C 1.453125 -0.238281 1.285156 -0.15625 1.078125 -0.125 Z M 0.890625 -1.421875 C 0.972656 -1.441406 1.046875 -1.476562 1.109375 -1.53125 C 1.179688 -1.582031 1.234375 -1.640625 1.265625 -1.703125 C 1.296875 -1.773438 1.304688 -1.851562 1.296875 -1.9375 C 1.273438 -2.050781 1.210938 -2.140625 1.109375 -2.203125 C 1.003906 -2.273438 0.882812 -2.300781 0.75 -2.28125 C 0.613281 -2.257812 0.503906 -2.203125 0.421875 -2.109375 C 0.347656 -2.023438 0.328125 -1.921875 0.359375 -1.796875 C 0.367188 -1.671875 0.425781 -1.570312 0.53125 -1.5 C 0.632812 -1.425781 0.753906 -1.398438 0.890625 -1.421875 Z M 0.890625 -1.421875 "/></g></g></g><g fill="rgb(93.728638%, 17.248535%, 37.249756%)" fill-opacity="1"><g transform="translate(35.254598, 27.199594)"><g><path d="M 0.390625 -0.0625 L 0.96875 -2.296875 L -0.25 -2.09375 L -0.3125 -2.484375 L 1.375 -2.75 L 1.4375 -2.421875 L 0.84375 -0.140625 Z M 0.390625 -0.0625 "/></g></g></g><g fill="rgb(93.728638%, 17.248535%, 37.249756%)" fill-opacity="1"><g transform="translate(37.132194, 26.894246)"><g><path d="M 0.390625 -0.0625 L 0.96875 -2.296875 L -0.25 -2.09375 L -0.3125 -2.484375 L 1.375 -2.75 L 1.4375 -2.421875 L 0.84375 -0.140625 Z M 0.390625 -0.0625 "/></g></g></g></svg>